<svg width="340" height="66" viewBox="0 0 340 66" fill="none" xmlns="http://www.w3.org/2000/svg">
    <mask id="path-1-outside-1_451_5200" maskUnits="userSpaceOnUse" x="-0.999084" y="-1" width="342"
        height="68" fill="black">
        <rect fill="white" x="-0.999084" y="-1" width="342" height="68" />
        <path
            d="M58.0322 23.4062H44.3447C44.0947 21.6354 43.5842 20.0625 42.8134 18.6875C42.0426 17.2917 41.053 16.1042 39.8447 15.125C38.6363 14.1458 37.2405 13.3958 35.6572 12.875C34.0947 12.3542 32.3967 12.0938 30.5634 12.0938C27.2509 12.0938 24.3655 12.9167 21.9072 14.5625C19.4488 16.1875 17.5426 18.5625 16.1884 21.6875C14.8342 24.7917 14.1572 28.5625 14.1572 33C14.1572 37.5625 14.8342 41.3958 16.1884 44.5C17.5634 47.6042 19.4801 49.9479 21.9384 51.5312C24.3967 53.1146 27.2405 53.9062 30.4697 53.9062C32.2822 53.9062 33.9593 53.6667 35.5009 53.1875C37.0634 52.7083 38.4488 52.0104 39.6572 51.0937C40.8655 50.1562 41.8655 49.0208 42.6572 47.6875C43.4697 46.3542 44.0322 44.8333 44.3447 43.125L58.0322 43.1875C57.678 46.125 56.7926 48.9583 55.3759 51.6875C53.9801 54.3958 52.0947 56.8229 49.7197 58.9687C47.3655 61.0937 44.553 62.7812 41.2822 64.0312C38.0322 65.2604 34.3551 65.875 30.2509 65.875C24.5426 65.875 19.4384 64.5833 14.9384 62C10.4592 59.4167 6.91758 55.6771 4.31342 50.7813C1.73008 45.8854 0.438416 39.9583 0.438416 33C0.438416 26.0208 1.75092 20.0833 4.37592 15.1875C7.00092 10.2917 10.5634 6.5625 15.0634 4C19.5634 1.41667 24.6259 0.124998 30.2509 0.124998C33.9592 0.124998 37.3967 0.645831 40.5634 1.6875C43.7509 2.72917 46.5738 4.25 49.0322 6.25C51.4905 8.22916 53.4905 10.6562 55.0322 13.5312C56.5947 16.4062 57.5947 19.6979 58.0322 23.4062ZM67.7353 65V0.999998H92.9853C97.8186 0.999998 101.944 1.86458 105.36 3.59375C108.798 5.30208 111.412 7.72917 113.204 10.875C115.017 14 115.923 17.6771 115.923 21.9062C115.923 26.1562 115.006 29.8125 113.173 32.875C111.339 35.9167 108.683 38.25 105.204 39.875C101.746 41.5 97.5582 42.3125 92.6415 42.3125H75.7353V31.4375H90.454C93.0374 31.4375 95.1832 31.0833 96.8915 30.375C98.5999 29.6667 99.8707 28.6042 100.704 27.1875C101.558 25.7708 101.985 24.0104 101.985 21.9062C101.985 19.7812 101.558 17.9896 100.704 16.5312C99.8707 15.0729 98.5895 13.9687 96.8603 13.2187C95.152 12.4479 92.9957 12.0625 90.3915 12.0625H81.2665V65H67.7353ZM102.298 35.875L118.204 65H103.267L87.704 35.875H102.298ZM125.485 65V0.999998H168.61V12.1562H139.017V27.4062H166.392V38.5625H139.017V53.8437H168.735V65H125.485ZM190.399 65H175.899L197.993 0.999998H215.431L237.493 65H222.993L206.962 15.625H206.462L190.399 65ZM189.493 39.8437H223.743V50.4062H189.493V39.8437ZM234.938 12.1562V0.999998H287.501V12.1562H267.907V65H254.532V12.1562H234.938ZM296.157 65V0.999998H339.282V12.1562H309.688V27.4062H337.063V38.5625H309.688V53.8437H339.407V65H296.157Z" />
    </mask>
    <path
        d="M58.0322 23.4062V24.4062H59.1571L59.0253 23.2891L58.0322 23.4062ZM44.3447 23.4062L43.3545 23.546L43.4759 24.4062H44.3447V23.4062ZM42.8134 18.6875L41.938 19.1709L41.9411 19.1765L42.8134 18.6875ZM39.8447 15.125L39.2151 15.9019H39.2151L39.8447 15.125ZM35.6572 12.875L35.3409 13.8237L35.3447 13.8249L35.6572 12.875ZM21.9072 14.5625L22.4586 15.3967L22.4635 15.3935L21.9072 14.5625ZM16.1884 21.6875L17.105 22.0874L17.106 22.0851L16.1884 21.6875ZM16.1884 44.5L15.2718 44.8999L15.2741 44.905L16.1884 44.5ZM21.9384 51.5312L21.3969 52.372L21.9384 51.5312ZM35.5009 53.1875L35.2077 52.2314L35.2041 52.2326L35.5009 53.1875ZM39.6572 51.0938L40.2616 51.8905L40.2702 51.8838L39.6572 51.0938ZM42.6572 47.6875L41.8032 47.1671L41.7973 47.177L42.6572 47.6875ZM44.3447 43.125L44.3492 42.125L43.5117 42.1212L43.361 42.9451L44.3447 43.125ZM58.0322 43.1875L59.025 43.3072L59.1594 42.1926L58.0367 42.1875L58.0322 43.1875ZM55.3759 51.6875L54.4884 51.2268L54.487 51.2294L55.3759 51.6875ZM49.7197 58.9688L50.3897 59.7111L50.3901 59.7107L49.7197 58.9688ZM41.2822 64.0312L41.6359 64.9666L41.6392 64.9654L41.2822 64.0312ZM14.9384 62L14.4388 62.8663L14.4405 62.8673L14.9384 62ZM4.31342 50.7812L3.42898 51.2479L3.43054 51.2509L4.31342 50.7812ZM4.37592 15.1875L5.25723 15.66L4.37592 15.1875ZM15.0634 4L15.5583 4.86899L15.5613 4.86725L15.0634 4ZM40.5634 1.6875L40.2509 2.63742L40.2528 2.63803L40.5634 1.6875ZM49.0322 6.25L48.4011 7.02572L48.4051 7.02893L49.0322 6.25ZM55.0322 13.5312L54.1509 14.0038L54.1535 14.0088L55.0322 13.5312ZM58.0322 22.4062H44.3447V24.4062H58.0322V22.4062ZM45.3348 23.2665C45.0698 21.3893 44.5247 19.6951 43.6857 18.1985L41.9411 19.1765C42.6438 20.4299 43.1195 21.8815 43.3545 23.546L45.3348 23.2665ZM43.6888 18.2041C42.8573 16.6984 41.7852 15.4104 40.4742 14.3481L39.2151 15.9019C40.3208 16.7979 41.2279 17.8849 41.938 19.1709L43.6888 18.2041ZM40.4743 14.3481C39.165 13.2871 37.66 12.4811 35.9696 11.9251L35.3447 13.8249C36.821 14.3106 38.1077 15.0045 39.2151 15.9019L40.4743 14.3481ZM35.9734 11.9263C34.2981 11.3679 32.4922 11.0938 30.5634 11.0938V13.0938C32.3013 13.0938 33.8912 13.3405 35.3409 13.8237L35.9734 11.9263ZM30.5634 11.0938C27.0774 11.0938 23.9931 11.9626 21.3508 13.7315L22.4635 15.3935C24.7379 13.8708 27.4244 13.0938 30.5634 13.0938V11.0938ZM21.3557 13.7283C18.7116 15.4761 16.6898 18.0153 15.2709 21.2899L17.106 22.0851C18.3953 19.1097 20.1861 16.8989 22.4586 15.3967L21.3557 13.7283ZM15.2718 21.2877C13.8484 24.5506 13.1572 28.4656 13.1572 33H15.1572C15.1572 28.6594 15.8201 25.0328 17.105 22.0873L15.2718 21.2877ZM13.1572 33C13.1572 37.655 13.8471 41.6339 15.2718 44.8998L17.105 44.1002C15.8214 41.1578 15.1572 37.47 15.1572 33H13.1572ZM15.2741 44.905C16.7151 48.1582 18.7493 50.6667 21.3969 52.372L22.4799 50.6905C20.2108 49.2291 18.4117 47.0501 17.1027 44.095L15.2741 44.905ZM21.3969 52.372C24.0333 54.07 27.0692 54.9062 30.4697 54.9062V52.9062C27.4118 52.9062 24.7602 52.1592 22.4799 50.6905L21.3969 52.372ZM30.4697 54.9062C32.3706 54.9062 34.149 54.6549 35.7977 54.1424L35.2041 52.2326C33.7695 52.6784 32.1937 52.9062 30.4697 52.9062V54.9062ZM35.7941 54.1436C37.4602 53.6326 38.9526 52.8834 40.2616 51.8904L39.0528 50.2971C37.945 51.1374 36.6667 51.784 35.2077 52.2314L35.7941 54.1436ZM40.2702 51.8838C41.579 50.8684 42.6622 49.6377 43.517 48.198L41.7973 47.177C41.0688 48.404 40.152 49.4441 39.0442 50.3037L40.2702 51.8838ZM43.5111 48.2079C44.3941 46.7589 44.9963 45.1203 45.3283 43.3049L43.361 42.9451C43.0681 44.5464 42.5452 45.9495 41.8032 47.1671L43.5111 48.2079ZM44.3401 44.125L58.0276 44.1875L58.0367 42.1875L44.3492 42.125L44.3401 44.125ZM57.0394 43.0678C56.7001 45.8816 55.852 48.5998 54.4884 51.2268L56.2635 52.1482C57.7332 49.3168 58.6559 46.3684 59.025 43.3072L57.0394 43.0678ZM54.487 51.2294C53.1491 53.8254 51.3395 56.1575 49.0493 58.2268L50.3901 59.7107C52.8498 57.4883 54.8111 54.9663 56.2648 52.1456L54.487 51.2294ZM49.0496 58.2264C46.7961 60.2605 44.0927 61.8866 40.9252 63.0971L41.6392 64.9654C45.0133 63.6759 47.9349 61.927 50.3897 59.7111L49.0496 58.2264ZM40.9284 63.0959C37.8099 64.2753 34.2557 64.875 30.2509 64.875V66.875C34.4545 66.875 38.2544 66.2455 41.6359 64.9666L40.9284 63.0959ZM30.2509 64.875C24.6993 64.875 19.7699 63.6206 15.4363 61.1327L14.4405 62.8673C19.1069 65.5461 24.3858 66.875 30.2509 66.875V64.875ZM15.438 61.1338C11.1331 58.6509 7.71906 55.0544 5.19629 50.3116L3.43054 51.2509C6.11611 56.2997 9.78539 60.1824 14.4388 62.8662L15.438 61.1338ZM5.19784 50.3146C2.70745 45.5949 1.43842 39.8366 1.43842 33H-0.561584C-0.561584 40.08 0.752711 46.1759 3.42899 51.2479L5.19784 50.3146ZM1.43842 33C1.43842 26.1443 2.72762 20.378 5.25723 15.66L3.4946 14.715C0.774211 19.7887 -0.561584 25.8974 -0.561584 33H1.43842ZM5.25723 15.66C7.80003 10.9175 11.2338 7.33152 15.5583 4.86898L14.5686 3.13102C9.89303 5.79348 6.2018 9.66582 3.4946 14.715L5.25723 15.66ZM15.5613 4.86725C19.8972 2.37814 24.7855 1.125 30.2509 1.125V-0.875004C24.4664 -0.875004 19.2297 0.455193 14.5655 3.13275L15.5613 4.86725ZM30.2509 1.125C33.8649 1.125 37.1958 1.63243 40.2509 2.63742L40.8759 0.737572C37.5977 -0.340767 34.0536 -0.875004 30.2509 -0.875004V1.125ZM40.2528 2.63803C43.3305 3.64382 46.0434 5.10757 48.4011 7.02571L49.6633 5.47429C47.1043 3.39242 44.1713 1.81451 40.874 0.736969L40.2528 2.63803ZM48.4051 7.02893C50.7555 8.9212 52.6704 11.2429 54.1509 14.0038L55.9135 13.0587C54.3106 10.0696 52.2255 7.53713 49.6593 5.47106L48.4051 7.02893ZM54.1535 14.0088C55.6474 16.7574 56.6144 19.9237 57.0391 23.5234L59.0253 23.2891C58.575 19.4721 57.542 16.0551 55.9108 13.0537L54.1535 14.0088ZM67.7353 65H66.7353V66H67.7353V65ZM67.7353 1V0H66.7353V1H67.7353ZM105.36 3.59375L104.909 4.48601L104.915 4.48926L105.36 3.59375ZM113.204 10.875L112.335 11.3699L112.339 11.3767L113.204 10.875ZM113.173 32.875L114.029 33.3912L114.031 33.3886L113.173 32.875ZM105.204 39.875L104.781 38.9689L104.779 38.9699L105.204 39.875ZM75.7353 42.3125H74.7353V43.3125H75.7353V42.3125ZM75.7353 31.4375V30.4375H74.7353V31.4375H75.7353ZM96.8915 30.375L97.2746 31.2987H97.2746L96.8915 30.375ZM100.704 27.1875L99.8476 26.6711L99.8421 26.6805L100.704 27.1875ZM100.704 16.5312L99.8357 17.0274L99.8412 17.0367L100.704 16.5312ZM96.8603 13.2188L96.449 14.1303L96.4557 14.1333L96.4624 14.1362L96.8603 13.2188ZM81.2665 12.0625V11.0625H80.2665V12.0625H81.2665ZM81.2665 65V66H82.2665V65H81.2665ZM102.298 35.875L103.175 35.3957L102.891 34.875H102.298V35.875ZM118.204 65V66H119.89L119.082 64.5207L118.204 65ZM103.267 65L102.385 65.4713L102.667 66H103.267V65ZM87.704 35.875V34.875H86.0359L86.8221 36.3463L87.704 35.875ZM68.7353 65V1H66.7353V65H68.7353ZM67.7353 2H92.9853V0H67.7353V2ZM92.9853 2C97.7018 2 101.664 2.84379 104.909 4.48599L105.812 2.70151C102.223 0.885372 97.9354 0 92.9853 0V2ZM104.915 4.48926C108.186 6.11476 110.648 8.40741 112.335 11.3699L114.073 10.3801C112.177 7.05092 109.41 4.4894 105.805 2.69824L104.915 4.48926ZM112.339 11.3767C114.049 14.325 114.923 17.8229 114.923 21.9062H116.923C116.923 17.5312 115.984 13.675 114.069 10.3733L112.339 11.3767ZM114.923 21.9062C114.923 26.0101 114.039 29.4814 112.315 32.3614L114.031 33.3886C115.973 30.1436 116.923 26.3024 116.923 21.9062H114.923ZM112.316 32.3588C110.594 35.2164 108.095 37.4208 104.781 38.969L105.627 40.781C109.271 39.0792 112.085 36.6169 114.029 33.3912L112.316 32.3588ZM104.779 38.9699C101.486 40.5172 97.4518 41.3125 92.6415 41.3125V43.3125C97.6646 43.3125 102.006 42.4828 105.629 40.7801L104.779 38.9699ZM92.6415 41.3125H75.7353V43.3125H92.6415V41.3125ZM76.7353 42.3125V31.4375H74.7353V42.3125H76.7353ZM75.7353 32.4375H90.454V30.4375H75.7353V32.4375ZM90.454 32.4375C93.1203 32.4375 95.4069 32.0732 97.2746 31.2987L96.5085 29.4513C94.9596 30.0935 92.9544 30.4375 90.454 30.4375V32.4375ZM97.2746 31.2987C99.1572 30.5181 100.609 29.3216 101.566 27.6945L99.8421 26.6805C99.1326 27.8867 98.0426 28.8152 96.5085 29.4513L97.2746 31.2987ZM101.56 27.7038C102.531 26.0943 102.985 24.1436 102.985 21.9062H100.985C100.985 23.8773 100.586 25.4474 99.8477 26.6712L101.56 27.7038ZM102.985 21.9062C102.985 19.6487 102.531 17.6722 101.567 16.0258L99.8412 17.0367C100.585 18.3069 100.985 19.9138 100.985 21.9062H102.985ZM101.572 16.0351C100.619 14.3666 99.1601 13.1263 97.2582 12.3013L96.4624 14.1362C98.0188 14.8112 99.1226 15.7793 99.8358 17.0274L101.572 16.0351ZM97.2716 12.3072C95.394 11.46 93.0858 11.0625 90.3915 11.0625V13.0625C92.9056 13.0625 94.91 13.4358 96.449 14.1303L97.2716 12.3072ZM90.3915 11.0625H81.2665V13.0625H90.3915V11.0625ZM80.2665 12.0625V65H82.2665V12.0625H80.2665ZM81.2665 64H67.7353V66H81.2665V64ZM101.42 36.3543L117.326 65.4793L119.082 64.5207L103.175 35.3957L101.42 36.3543ZM118.204 64H103.267V66H118.204V64ZM104.149 64.5287L88.586 35.4037L86.8221 36.3463L102.385 65.4713L104.149 64.5287ZM87.704 36.875H102.298V34.875H87.704V36.875ZM125.485 65H124.485V66H125.485V65ZM125.485 1V0H124.485V1H125.485ZM168.61 1H169.61V0H168.61V1ZM168.61 12.1562V13.1562H169.61V12.1562H168.61ZM139.017 12.1562V11.1562H138.017V12.1562H139.017ZM139.017 27.4062H138.017V28.4062H139.017V27.4062ZM166.392 27.4062H167.392V26.4062H166.392V27.4062ZM166.392 38.5625V39.5625H167.392V38.5625H166.392ZM139.017 38.5625V37.5625H138.017V38.5625H139.017ZM139.017 53.8438H138.017V54.8438H139.017V53.8438ZM168.735 53.8438H169.735V52.8438H168.735V53.8438ZM168.735 65V66H169.735V65H168.735ZM126.485 65V1H124.485V65H126.485ZM125.485 2H168.61V0H125.485V2ZM167.61 1V12.1562H169.61V1H167.61ZM168.61 11.1562H139.017V13.1562H168.61V11.1562ZM138.017 12.1562V27.4062H140.017V12.1562H138.017ZM139.017 28.4062H166.392V26.4062H139.017V28.4062ZM165.392 27.4062V38.5625H167.392V27.4062H165.392ZM166.392 37.5625H139.017V39.5625H166.392V37.5625ZM138.017 38.5625V53.8438H140.017V38.5625H138.017ZM139.017 54.8438H168.735V52.8438H139.017V54.8438ZM167.735 53.8438V65H169.735V53.8438H167.735ZM168.735 64H125.485V66H168.735V64ZM190.399 65V66H191.126L191.35 65.3094L190.399 65ZM175.899 65L174.954 64.6737L174.496 66H175.899V65ZM197.993 1V0H197.28L197.048 0.673679L197.993 1ZM215.431 1L216.376 0.674091L216.144 0H215.431V1ZM237.493 65V66H238.896L238.439 64.6741L237.493 65ZM222.993 65L222.042 65.3088L222.266 66H222.993V65ZM206.962 15.625L207.913 15.3162L207.689 14.625H206.962V15.625ZM206.462 15.625V14.625H205.736L205.511 15.3156L206.462 15.625ZM189.493 39.8438V38.8438H188.493V39.8438H189.493ZM223.743 39.8438H224.743V38.8438H223.743V39.8438ZM223.743 50.4062V51.4062H224.743V50.4062H223.743ZM189.493 50.4062H188.493V51.4062H189.493V50.4062ZM190.399 64H175.899V66H190.399V64ZM176.845 65.3263L198.938 1.32632L197.048 0.673679L174.954 64.6737L176.845 65.3263ZM197.993 2H215.431V0H197.993V2ZM214.485 1.3259L236.548 65.3259L238.439 64.6741L216.376 0.674091L214.485 1.3259ZM237.493 64H222.993V66H237.493V64ZM223.944 64.6912L207.913 15.3162L206.011 15.9338L222.042 65.3088L223.944 64.6912ZM206.962 14.625H206.462V16.625H206.962V14.625ZM205.511 15.3156L189.448 64.6906L191.35 65.3094L207.413 15.9344L205.511 15.3156ZM189.493 40.8438H223.743V38.8438H189.493V40.8438ZM222.743 39.8438V50.4062H224.743V39.8438H222.743ZM223.743 49.4062H189.493V51.4062H223.743V49.4062ZM190.493 50.4062V39.8438H188.493V50.4062H190.493ZM234.938 12.1562H233.938V13.1562H234.938V12.1562ZM234.938 1V0H233.938V1H234.938ZM287.501 1H288.501V0H287.501V1ZM287.501 12.1562V13.1562H288.501V12.1562H287.501ZM267.907 12.1562V11.1562H266.907V12.1562H267.907ZM267.907 65V66H268.907V65H267.907ZM254.532 65H253.532V66H254.532V65ZM254.532 12.1562H255.532V11.1562H254.532V12.1562ZM235.938 12.1562V1H233.938V12.1562H235.938ZM234.938 2H287.501V0H234.938V2ZM286.501 1V12.1562H288.501V1H286.501ZM287.501 11.1562H267.907V13.1562H287.501V11.1562ZM266.907 12.1562V65H268.907V12.1562H266.907ZM267.907 64H254.532V66H267.907V64ZM255.532 65V12.1562H253.532V65H255.532ZM254.532 11.1562H234.938V13.1562H254.532V11.1562ZM296.157 65H295.157V66H296.157V65ZM296.157 1V0H295.157V1H296.157ZM339.282 1H340.282V0H339.282V1ZM339.282 12.1562V13.1562H340.282V12.1562H339.282ZM309.688 12.1562V11.1562H308.688V12.1562H309.688ZM309.688 27.4062H308.688V28.4062H309.688V27.4062ZM337.063 27.4062H338.063V26.4062H337.063V27.4062ZM337.063 38.5625V39.5625H338.063V38.5625H337.063ZM309.688 38.5625V37.5625H308.688V38.5625H309.688ZM309.688 53.8438H308.688V54.8438H309.688V53.8438ZM339.407 53.8438H340.407V52.8438H339.407V53.8438ZM339.407 65V66H340.407V65H339.407ZM297.157 65V1H295.157V65H297.157ZM296.157 2H339.282V0H296.157V2ZM338.282 1V12.1562H340.282V1H338.282ZM339.282 11.1562H309.688V13.1562H339.282V11.1562ZM308.688 12.1562V27.4062H310.688V12.1562H308.688ZM309.688 28.4062H337.063V26.4062H309.688V28.4062ZM336.063 27.4062V38.5625H338.063V27.4062H336.063ZM337.063 37.5625H309.688V39.5625H337.063V37.5625ZM308.688 38.5625V53.8438H310.688V38.5625H308.688ZM309.688 54.8438H339.407V52.8438H309.688V54.8438ZM338.407 53.8438V65H340.407V53.8438H338.407ZM339.407 64H296.157V66H339.407V64Z"
        fill="#F7F7F7" mask="url(#path-1-outside-1_451_5200)" />
</svg>
    