<svg width="406" height="145" viewBox="0 0 406 145" fill="none" xmlns="http://www.w3.org/2000/svg">
<mask id="path-1-outside-1_1285_23" maskUnits="userSpaceOnUse" x="35.0012" y="32" width="342" height="68" fill="black">
<rect fill="white" x="35.0012" y="32" width="342" height="68"/>
<path d="M94.0324 56.4062H80.3449C80.0949 54.6354 79.5845 53.0625 78.8137 51.6875C78.0428 50.2917 77.0532 49.1042 75.8449 48.125C74.6366 47.1458 73.2407 46.3958 71.6574 45.875C70.0949 45.3542 68.397 45.0938 66.5637 45.0938C63.2512 45.0938 60.3657 45.9167 57.9074 47.5625C55.4491 49.1875 53.5428 51.5625 52.1887 54.6875C50.8345 57.7917 50.1574 61.5625 50.1574 66C50.1574 70.5625 50.8345 74.3958 52.1887 77.5C53.5637 80.6042 55.4803 82.9479 57.9387 84.5312C60.397 86.1146 63.2407 86.9062 66.4699 86.9062C68.2824 86.9062 69.9595 86.6667 71.5012 86.1875C73.0637 85.7083 74.4491 85.0104 75.6574 84.0937C76.8657 83.1562 77.8657 82.0208 78.6574 80.6875C79.4699 79.3542 80.0324 77.8333 80.3449 76.125L94.0324 76.1875C93.6782 79.125 92.7928 81.9583 91.3762 84.6875C89.9803 87.3958 88.0949 89.8229 85.7199 91.9687C83.3657 94.0937 80.5532 95.7812 77.2824 97.0312C74.0324 98.2604 70.3553 98.875 66.2512 98.875C60.5428 98.875 55.4387 97.5833 50.9387 95C46.4595 92.4167 42.9178 88.6771 40.3137 83.7813C37.7303 78.8854 36.4387 72.9583 36.4387 66C36.4387 59.0208 37.7512 53.0833 40.3762 48.1875C43.0012 43.2917 46.5637 39.5625 51.0637 37C55.5637 34.4167 60.6262 33.125 66.2512 33.125C69.9595 33.125 73.397 33.6458 76.5637 34.6875C79.7512 35.7292 82.5741 37.25 85.0324 39.25C87.4907 41.2292 89.4907 43.6562 91.0324 46.5312C92.5949 49.4062 93.5949 52.6979 94.0324 56.4062ZM103.736 98V34H128.986C133.819 34 137.944 34.8646 141.361 36.5937C144.798 38.3021 147.413 40.7292 149.204 43.875C151.017 47 151.923 50.6771 151.923 54.9062C151.923 59.1562 151.006 62.8125 149.173 65.875C147.34 68.9167 144.683 71.25 141.204 72.875C137.746 74.5 133.558 75.3125 128.642 75.3125H111.736V64.4375H126.454C129.038 64.4375 131.183 64.0833 132.892 63.375C134.6 62.6667 135.871 61.6042 136.704 60.1875C137.558 58.7708 137.986 57.0104 137.986 54.9062C137.986 52.7812 137.558 50.9896 136.704 49.5312C135.871 48.0729 134.59 46.9687 132.861 46.2187C131.152 45.4479 128.996 45.0625 126.392 45.0625H117.267V98H103.736ZM138.298 68.875L154.204 98H139.267L123.704 68.875H138.298ZM161.486 98V34H204.611V45.1562H175.017V60.4062H202.392V71.5625H175.017V86.8437H204.736V98H161.486ZM226.4 98H211.9L233.993 34H251.431L273.493 98H258.993L242.962 48.625H242.462L226.4 98ZM225.493 72.8437H259.743V83.4062H225.493V72.8437ZM270.939 45.1562V34H323.501V45.1562H303.907V98H290.532V45.1562H270.939ZM332.157 98V34H375.282V45.1562H345.689V60.4062H373.064V71.5625H345.689V86.8437H375.407V98H332.157Z"/>
</mask>
<path d="M94.0324 56.4062V57.4062H95.1573L95.0255 56.2891L94.0324 56.4062ZM80.3449 56.4062L79.3547 56.546L79.4762 57.4062H80.3449V56.4062ZM78.8137 51.6875L77.9383 52.1709L77.9414 52.1765L78.8137 51.6875ZM75.8449 48.125L75.2153 48.9019H75.2153L75.8449 48.125ZM71.6574 45.875L71.3412 46.8237L71.3449 46.8249L71.6574 45.875ZM57.9074 47.5625L58.4589 48.3967L58.4637 48.3935L57.9074 47.5625ZM52.1887 54.6875L53.1052 55.0874L53.1062 55.0851L52.1887 54.6875ZM52.1887 77.5L51.2721 77.8999L51.2743 77.905L52.1887 77.5ZM57.9387 84.5312L57.3972 85.372L57.9387 84.5312ZM71.5012 86.1875L71.208 85.2314L71.2044 85.2326L71.5012 86.1875ZM75.6574 84.0938L76.2618 84.8905L76.2704 84.8838L75.6574 84.0938ZM78.6574 80.6875L77.8034 80.1671L77.7976 80.177L78.6574 80.6875ZM80.3449 76.125L80.3495 75.125L79.5119 75.1212L79.3612 75.9451L80.3449 76.125ZM94.0324 76.1875L95.0252 76.3072L95.1596 75.1926L94.037 75.1875L94.0324 76.1875ZM91.3762 84.6875L90.4886 84.2268L90.4873 84.2294L91.3762 84.6875ZM85.7199 91.9688L86.39 92.7111L86.3903 92.7107L85.7199 91.9688ZM77.2824 97.0312L77.6362 97.9666L77.6394 97.9654L77.2824 97.0312ZM50.9387 95L50.4391 95.8663L50.4408 95.8673L50.9387 95ZM40.3137 83.7812L39.4292 84.2479L39.4308 84.2509L40.3137 83.7812ZM40.3762 48.1875L41.2575 48.66L40.3762 48.1875ZM51.0637 37L51.5585 37.869L51.5615 37.8673L51.0637 37ZM76.5637 34.6875L76.2512 35.6374L76.253 35.638L76.5637 34.6875ZM85.0324 39.25L84.4013 40.0257L84.4053 40.0289L85.0324 39.25ZM91.0324 46.5312L90.1511 47.0038L90.1538 47.0088L91.0324 46.5312ZM94.0324 55.4062H80.3449V57.4062H94.0324V55.4062ZM81.3351 56.2665C81.0701 54.3893 80.525 52.6951 79.6859 51.1985L77.9414 52.1765C78.644 53.4299 79.1197 54.8815 79.3547 56.546L81.3351 56.2665ZM79.689 51.2041C78.8576 49.6984 77.7854 48.4104 76.4745 47.3481L75.2153 48.9019C76.321 49.7979 77.2281 50.8849 77.9383 52.1709L79.689 51.2041ZM76.4745 47.3481C75.1653 46.2871 73.6602 45.4811 71.9699 44.9251L71.3449 46.8249C72.8213 47.3106 74.1079 48.0045 75.2153 48.9019L76.4745 47.3481ZM71.9736 44.9263C70.2983 44.3679 68.4924 44.0938 66.5637 44.0938V46.0938C68.3016 46.0938 69.8915 46.3405 71.3412 46.8237L71.9736 44.9263ZM66.5637 44.0938C63.0777 44.0938 59.9933 44.9626 57.3511 46.7315L58.4637 48.3935C60.7382 46.8708 63.4247 46.0938 66.5637 46.0938V44.0938ZM57.356 46.7283C54.7118 48.4761 52.6901 51.0153 51.2711 54.2899L53.1062 55.0851C54.3956 52.1097 56.1863 49.8989 58.4588 48.3967L57.356 46.7283ZM51.2721 54.2877C49.8487 57.5506 49.1574 61.4656 49.1574 66H51.1574C51.1574 61.6594 51.8203 58.0328 53.1052 55.0873L51.2721 54.2877ZM49.1574 66C49.1574 70.655 49.8473 74.6339 51.2721 77.8998L53.1052 77.1002C51.8217 74.1578 51.1574 70.47 51.1574 66H49.1574ZM51.2743 77.905C52.7154 81.1582 54.7496 83.6667 57.3972 85.372L58.4801 83.6905C56.2111 82.2291 54.4119 80.0501 53.103 77.095L51.2743 77.905ZM57.3972 85.372C60.0336 87.07 63.0695 87.9062 66.4699 87.9062V85.9062C63.412 85.9062 60.7604 85.1592 58.4801 83.6905L57.3972 85.372ZM66.4699 87.9062C68.3709 87.9062 70.1492 87.6549 71.798 87.1424L71.2044 85.2326C69.7698 85.6784 68.194 85.9062 66.4699 85.9062V87.9062ZM71.7943 87.1436C73.4604 86.6326 74.9529 85.8834 76.2618 84.8904L75.053 83.2971C73.9453 84.1374 72.6669 84.784 71.208 85.2314L71.7943 87.1436ZM76.2704 84.8838C77.5792 83.8684 78.6625 82.6377 79.5173 81.198L77.7976 80.177C77.069 81.404 76.1523 82.4441 75.0444 83.3037L76.2704 84.8838ZM79.5114 81.2079C80.3943 79.7589 80.9965 78.1203 81.3286 76.3049L79.3612 75.9451C79.0683 77.5464 78.5455 78.9495 77.8035 80.1671L79.5114 81.2079ZM80.3403 77.125L94.0278 77.1875L94.037 75.1875L80.3495 75.125L80.3403 77.125ZM93.0396 76.0678C92.7004 78.8816 91.8522 81.5998 90.4886 84.2268L92.2637 85.1482C93.7334 82.3168 94.6561 79.3684 95.0252 76.3072L93.0396 76.0678ZM90.4873 84.2294C89.1493 86.8254 87.3398 89.1575 85.0495 91.2268L86.3903 92.7107C88.8501 90.4883 90.8113 87.9663 92.2651 85.1456L90.4873 84.2294ZM85.0499 91.2264C82.7964 93.2605 80.093 94.8866 76.9254 96.0971L77.6394 97.9654C81.0135 96.6759 83.9351 94.927 86.39 92.7111L85.0499 91.2264ZM76.9287 96.0959C73.8101 97.2753 70.2559 97.875 66.2512 97.875V99.875C70.4548 99.875 74.2547 99.2455 77.6362 97.9666L76.9287 96.0959ZM66.2512 97.875C60.6996 97.875 55.7702 96.6206 51.4365 94.1327L50.4408 95.8673C55.1072 98.5461 60.3861 99.875 66.2512 99.875V97.875ZM51.4383 94.1338C47.1334 91.6509 43.7193 88.0544 41.1965 83.3116L39.4308 84.2509C42.1164 89.2997 45.7856 93.1824 50.4391 95.8662L51.4383 94.1338ZM41.1981 83.3146C38.7077 78.5949 37.4387 72.8366 37.4387 66H35.4387C35.4387 73.08 36.753 79.1759 39.4292 84.2479L41.1981 83.3146ZM37.4387 66C37.4387 59.1443 38.7279 53.378 41.2575 48.66L39.4948 47.715C36.7745 52.7887 35.4387 58.8974 35.4387 66H37.4387ZM41.2575 48.66C43.8003 43.9175 47.234 40.3315 51.5585 37.869L50.5688 36.131C45.8933 38.7935 42.202 42.6658 39.4948 47.715L41.2575 48.66ZM51.5615 37.8673C55.8974 35.3781 60.7857 34.125 66.2512 34.125V32.125C60.4666 32.125 55.2299 33.4552 50.5658 36.1327L51.5615 37.8673ZM66.2512 34.125C69.8652 34.125 73.196 34.6324 76.2512 35.6374L76.8761 33.7376C73.598 32.6592 70.0538 32.125 66.2512 32.125V34.125ZM76.253 35.638C79.3307 36.6438 82.0436 38.1076 84.4013 40.0257L85.6635 38.4743C83.1045 36.3924 80.1716 34.8145 76.8743 33.737L76.253 35.638ZM84.4053 40.0289C86.7557 41.9212 88.6706 44.2429 90.1511 47.0038L91.9137 46.0587C90.3109 43.0696 88.2258 40.5371 85.6595 38.4711L84.4053 40.0289ZM90.1538 47.0088C91.6476 49.7574 92.6146 52.9237 93.0393 56.5234L95.0255 56.2891C94.5752 52.4721 93.5422 49.0551 91.911 46.0537L90.1538 47.0088ZM103.736 98H102.736V99H103.736V98ZM103.736 34V33H102.736V34H103.736ZM141.361 36.5938L140.909 37.486L140.915 37.4893L141.361 36.5938ZM149.204 43.875L148.335 44.3699L148.339 44.3767L149.204 43.875ZM149.173 65.875L150.029 66.3912L150.031 66.3886L149.173 65.875ZM141.204 72.875L140.781 71.9689L140.779 71.9699L141.204 72.875ZM111.736 75.3125H110.736V76.3125H111.736V75.3125ZM111.736 64.4375V63.4375H110.736V64.4375H111.736ZM132.892 63.375L133.275 64.2987H133.275L132.892 63.375ZM136.704 60.1875L135.848 59.6711L135.842 59.6805L136.704 60.1875ZM136.704 49.5312L135.836 50.0274L135.841 50.0367L136.704 49.5312ZM132.861 46.2188L132.449 47.1303L132.456 47.1333L132.463 47.1362L132.861 46.2188ZM117.267 45.0625V44.0625H116.267V45.0625H117.267ZM117.267 98V99H118.267V98H117.267ZM138.298 68.875L139.176 68.3957L138.891 67.875H138.298V68.875ZM154.204 98V99H155.89L155.082 97.5207L154.204 98ZM139.267 98L138.385 98.4713L138.667 99H139.267V98ZM123.704 68.875V67.875H122.036L122.822 69.3463L123.704 68.875ZM104.736 98V34H102.736V98H104.736ZM103.736 35H128.986V33H103.736V35ZM128.986 35C133.702 35 137.664 35.8438 140.909 37.486L141.812 35.7015C138.224 33.8854 133.936 33 128.986 33V35ZM140.915 37.4893C144.186 39.1148 146.648 41.4074 148.335 44.3699L150.073 43.3801C148.177 40.0509 145.41 37.4894 141.806 35.6982L140.915 37.4893ZM148.339 44.3767C150.049 47.325 150.923 50.8229 150.923 54.9062H152.923C152.923 50.5312 151.984 46.675 150.069 43.3733L148.339 44.3767ZM150.923 54.9062C150.923 59.0101 150.039 62.4814 148.315 65.3614L150.031 66.3886C151.974 63.1436 152.923 59.3024 152.923 54.9062H150.923ZM148.317 65.3588C146.594 68.2164 144.096 70.4208 140.781 71.969L141.627 73.781C145.271 72.0792 148.085 69.6169 150.029 66.3912L148.317 65.3588ZM140.779 71.9699C137.486 73.5172 133.452 74.3125 128.642 74.3125V76.3125C133.665 76.3125 138.006 75.4828 141.63 73.7801L140.779 71.9699ZM128.642 74.3125H111.736V76.3125H128.642V74.3125ZM112.736 75.3125V64.4375H110.736V75.3125H112.736ZM111.736 65.4375H126.454V63.4375H111.736V65.4375ZM126.454 65.4375C129.121 65.4375 131.407 65.0732 133.275 64.2987L132.509 62.4513C130.96 63.0935 128.955 63.4375 126.454 63.4375V65.4375ZM133.275 64.2987C135.157 63.5181 136.609 62.3216 137.566 60.6945L135.842 59.6805C135.133 60.8867 134.043 61.8152 132.509 62.4513L133.275 64.2987ZM137.561 60.7038C138.531 59.0943 138.986 57.1436 138.986 54.9062H136.986C136.986 56.8773 136.586 58.4474 135.848 59.6712L137.561 60.7038ZM138.986 54.9062C138.986 52.6487 138.531 50.6722 137.567 49.0258L135.841 50.0367C136.585 51.3069 136.986 52.9138 136.986 54.9062H138.986ZM137.573 49.0351C136.619 47.3666 135.16 46.1263 133.258 45.3013L132.463 47.1362C134.019 47.8112 135.123 48.7793 135.836 50.0274L137.573 49.0351ZM133.272 45.3072C131.394 44.46 129.086 44.0625 126.392 44.0625V46.0625C128.906 46.0625 130.91 46.4358 132.449 47.1303L133.272 45.3072ZM126.392 44.0625H117.267V46.0625H126.392V44.0625ZM116.267 45.0625V98H118.267V45.0625H116.267ZM117.267 97H103.736V99H117.267V97ZM137.42 69.3543L153.327 98.4793L155.082 97.5207L139.176 68.3957L137.42 69.3543ZM154.204 97H139.267V99H154.204V97ZM140.149 97.5287L124.586 68.4037L122.822 69.3463L138.385 98.4713L140.149 97.5287ZM123.704 69.875H138.298V67.875H123.704V69.875ZM161.486 98H160.486V99H161.486V98ZM161.486 34V33H160.486V34H161.486ZM204.611 34H205.611V33H204.611V34ZM204.611 45.1562V46.1562H205.611V45.1562H204.611ZM175.017 45.1562V44.1562H174.017V45.1562H175.017ZM175.017 60.4062H174.017V61.4062H175.017V60.4062ZM202.392 60.4062H203.392V59.4062H202.392V60.4062ZM202.392 71.5625V72.5625H203.392V71.5625H202.392ZM175.017 71.5625V70.5625H174.017V71.5625H175.017ZM175.017 86.8438H174.017V87.8438H175.017V86.8438ZM204.736 86.8438H205.736V85.8438H204.736V86.8438ZM204.736 98V99H205.736V98H204.736ZM162.486 98V34H160.486V98H162.486ZM161.486 35H204.611V33H161.486V35ZM203.611 34V45.1562H205.611V34H203.611ZM204.611 44.1562H175.017V46.1562H204.611V44.1562ZM174.017 45.1562V60.4062H176.017V45.1562H174.017ZM175.017 61.4062H202.392V59.4062H175.017V61.4062ZM201.392 60.4062V71.5625H203.392V60.4062H201.392ZM202.392 70.5625H175.017V72.5625H202.392V70.5625ZM174.017 71.5625V86.8438H176.017V71.5625H174.017ZM175.017 87.8438H204.736V85.8438H175.017V87.8438ZM203.736 86.8438V98H205.736V86.8438H203.736ZM204.736 97H161.486V99H204.736V97ZM226.4 98V99H227.126L227.351 98.3094L226.4 98ZM211.9 98L210.954 97.6737L210.496 99H211.9V98ZM233.993 34V33H233.281L233.048 33.6737L233.993 34ZM251.431 34L252.376 33.6741L252.144 33H251.431V34ZM273.493 98V99H274.896L274.439 97.6741L273.493 98ZM258.993 98L258.042 98.3088L258.267 99H258.993V98ZM242.962 48.625L243.913 48.3162L243.689 47.625H242.962V48.625ZM242.462 48.625V47.625H241.736L241.511 48.3156L242.462 48.625ZM225.493 72.8438V71.8438H224.493V72.8438H225.493ZM259.743 72.8438H260.743V71.8438H259.743V72.8438ZM259.743 83.4062V84.4062H260.743V83.4062H259.743ZM225.493 83.4062H224.493V84.4062H225.493V83.4062ZM226.4 97H211.9V99H226.4V97ZM212.845 98.3263L234.939 34.3263L233.048 33.6737L210.954 97.6737L212.845 98.3263ZM233.993 35H251.431V33H233.993V35ZM250.485 34.3259L272.548 98.3259L274.439 97.6741L252.376 33.6741L250.485 34.3259ZM273.493 97H258.993V99H273.493V97ZM259.944 97.6912L243.913 48.3162L242.011 48.9338L258.042 98.3088L259.944 97.6912ZM242.962 47.625H242.462V49.625H242.962V47.625ZM241.511 48.3156L225.449 97.6906L227.351 98.3094L243.413 48.9344L241.511 48.3156ZM225.493 73.8438H259.743V71.8438H225.493V73.8438ZM258.743 72.8438V83.4062H260.743V72.8438H258.743ZM259.743 82.4062H225.493V84.4062H259.743V82.4062ZM226.493 83.4062V72.8438H224.493V83.4062H226.493ZM270.939 45.1562H269.939V46.1562H270.939V45.1562ZM270.939 34V33H269.939V34H270.939ZM323.501 34H324.501V33H323.501V34ZM323.501 45.1562V46.1562H324.501V45.1562H323.501ZM303.907 45.1562V44.1562H302.907V45.1562H303.907ZM303.907 98V99H304.907V98H303.907ZM290.532 98H289.532V99H290.532V98ZM290.532 45.1562H291.532V44.1562H290.532V45.1562ZM271.939 45.1562V34H269.939V45.1562H271.939ZM270.939 35H323.501V33H270.939V35ZM322.501 34V45.1562H324.501V34H322.501ZM323.501 44.1562H303.907V46.1562H323.501V44.1562ZM302.907 45.1562V98H304.907V45.1562H302.907ZM303.907 97H290.532V99H303.907V97ZM291.532 98V45.1562H289.532V98H291.532ZM290.532 44.1562H270.939V46.1562H290.532V44.1562ZM332.157 98H331.157V99H332.157V98ZM332.157 34V33H331.157V34H332.157ZM375.282 34H376.282V33H375.282V34ZM375.282 45.1562V46.1562H376.282V45.1562H375.282ZM345.689 45.1562V44.1562H344.689V45.1562H345.689ZM345.689 60.4062H344.689V61.4062H345.689V60.4062ZM373.064 60.4062H374.064V59.4062H373.064V60.4062ZM373.064 71.5625V72.5625H374.064V71.5625H373.064ZM345.689 71.5625V70.5625H344.689V71.5625H345.689ZM345.689 86.8438H344.689V87.8438H345.689V86.8438ZM375.407 86.8438H376.407V85.8438H375.407V86.8438ZM375.407 98V99H376.407V98H375.407ZM333.157 98V34H331.157V98H333.157ZM332.157 35H375.282V33H332.157V35ZM374.282 34V45.1562H376.282V34H374.282ZM375.282 44.1562H345.689V46.1562H375.282V44.1562ZM344.689 45.1562V60.4062H346.689V45.1562H344.689ZM345.689 61.4062H373.064V59.4062H345.689V61.4062ZM372.064 60.4062V71.5625H374.064V60.4062H372.064ZM373.064 70.5625H345.689V72.5625H373.064V70.5625ZM344.689 71.5625V86.8438H346.689V71.5625H344.689ZM345.689 87.8438H375.407V85.8438H345.689V87.8438ZM374.407 86.8438V98H376.407V86.8438H374.407ZM375.407 97H332.157V99H375.407V97Z" fill="#F7F7F7" mask="url(#path-1-outside-1_1285_23)"/>
</svg>
