<svg width="376" height="66" viewBox="0 0 376 66" fill="none" xmlns="http://www.w3.org/2000/svg">
    <mask id="path-1-outside-1_451_5199" maskUnits="userSpaceOnUse" x="-0.999084" y="-1" width="378"
        height="68" fill="black">
        <rect fill="white" x="-0.999084" y="-1" width="378" height="68" />
        <path
            d="M23.2509 65H0.563415V0.999998H23.4384C29.8759 0.999998 35.4176 2.28125 40.0634 4.84375C44.7093 7.38541 48.2822 11.0417 50.7822 15.8125C53.303 20.5833 54.5634 26.2917 54.5634 32.9375C54.5634 39.6042 53.303 45.3333 50.7822 50.125C48.2822 54.9167 44.6884 58.5937 40.0009 61.1562C35.3342 63.7187 29.7509 65 23.2509 65ZM14.0947 53.4063H22.6884C26.6884 53.4063 30.053 52.6979 32.7822 51.2812C35.5322 49.8437 37.5947 47.625 38.9697 44.625C40.3655 41.6042 41.0634 37.7083 41.0634 32.9375C41.0634 28.2083 40.3655 24.3437 38.9697 21.3438C37.5947 18.3437 35.5426 16.1354 32.8134 14.7187C30.0842 13.3021 26.7197 12.5938 22.7197 12.5938H14.0947V53.4063ZM78.1181 0.999998V65H64.5869V0.999998H78.1181ZM123.97 19.4062C123.72 16.8854 122.647 14.9271 120.751 13.5312C118.855 12.1354 116.282 11.4375 113.032 11.4375C110.824 11.4375 108.959 11.75 107.438 12.375C105.918 12.9792 104.751 13.8229 103.938 14.9062C103.147 15.9896 102.751 17.2188 102.751 18.5938C102.709 19.7396 102.949 20.7396 103.47 21.5937C104.011 22.4479 104.751 23.1875 105.688 23.8125C106.626 24.4167 107.709 24.9479 108.938 25.4062C110.168 25.8437 111.48 26.2187 112.876 26.5312L118.626 27.9062C121.418 28.5312 123.98 29.3646 126.313 30.4062C128.647 31.4479 130.668 32.7292 132.376 34.25C134.084 35.7708 135.407 37.5625 136.345 39.625C137.303 41.6875 137.793 44.0521 137.813 46.7187C137.793 50.6354 136.793 54.0312 134.813 56.9062C132.855 59.7604 130.022 61.9792 126.313 63.5625C122.626 65.125 118.178 65.9063 112.97 65.9063C107.803 65.9063 103.303 65.1146 99.4697 63.5312C95.6572 61.9479 92.678 59.6042 90.5322 56.5C88.4072 53.375 87.2926 49.5104 87.1884 44.9062H100.282C100.428 47.0521 101.043 48.8437 102.126 50.2812C103.23 51.6979 104.699 52.7708 106.532 53.5C108.386 54.2083 110.48 54.5625 112.813 54.5625C115.105 54.5625 117.095 54.2292 118.782 53.5625C120.49 52.8958 121.813 51.9687 122.751 50.7813C123.688 49.5937 124.157 48.2292 124.157 46.6875C124.157 45.25 123.73 44.0417 122.876 43.0625C122.043 42.0833 120.813 41.25 119.188 40.5625C117.584 39.875 115.615 39.25 113.282 38.6875L106.313 36.9375C100.918 35.625 96.6572 33.5729 93.5322 30.7812C90.4072 27.9896 88.8551 24.2292 88.8759 19.5C88.8551 15.625 89.8863 12.2396 91.9697 9.34375C94.0738 6.44792 96.9592 4.1875 100.626 2.5625C104.293 0.937498 108.459 0.124998 113.126 0.124998C117.876 0.124998 122.022 0.937498 125.563 2.5625C129.126 4.1875 131.897 6.44792 133.876 9.34375C135.855 12.2396 136.876 15.5937 136.938 19.4062H123.97ZM146.915 65V0.999998H172.165C176.998 0.999998 181.123 1.86458 184.54 3.59375C187.977 5.30208 190.592 7.72917 192.384 10.875C194.196 14 195.102 17.6771 195.102 21.9062C195.102 26.1562 194.186 29.8125 192.352 32.875C190.519 35.9167 187.863 38.25 184.384 39.875C180.925 41.5 176.738 42.3125 171.821 42.3125H154.915V31.4375H169.634C172.217 31.4375 174.363 31.0833 176.071 30.375C177.78 29.6667 179.05 28.6042 179.884 27.1875C180.738 25.7708 181.165 24.0104 181.165 21.9062C181.165 19.7812 180.738 17.9896 179.884 16.5312C179.05 15.0729 177.769 13.9687 176.04 13.2187C174.332 12.4479 172.175 12.0625 169.571 12.0625H160.446V65H146.915ZM181.477 35.875L197.384 65H182.446L166.884 35.875H181.477ZM244.196 0.999998H257.727V42.5625C257.727 47.2292 256.613 51.3125 254.384 54.8125C252.175 58.3125 249.082 61.0417 245.102 63C241.123 64.9375 236.488 65.9063 231.196 65.9063C225.884 65.9063 221.238 64.9375 217.259 63C213.28 61.0417 210.186 58.3125 207.977 54.8125C205.769 51.3125 204.665 47.2292 204.665 42.5625V0.999998H218.196V41.4062C218.196 43.8437 218.727 46.0104 219.79 47.9062C220.873 49.8021 222.394 51.2917 224.352 52.375C226.311 53.4583 228.592 54 231.196 54C233.821 54 236.102 53.4583 238.04 52.375C239.998 51.2917 241.509 49.8021 242.571 47.9062C243.655 46.0104 244.196 43.8437 244.196 41.4062V0.999998ZM268.86 65V0.999998H294.11C298.964 0.999998 303.1 1.92708 306.517 3.78125C309.933 5.61458 312.537 8.16666 314.329 11.4375C316.142 14.6875 317.048 18.4375 317.048 22.6875C317.048 26.9375 316.131 30.6875 314.298 33.9375C312.464 37.1875 309.808 39.7187 306.329 41.5312C302.871 43.3437 298.683 44.25 293.767 44.25H277.673V33.4062H291.579C294.183 33.4062 296.329 32.9583 298.017 32.0625C299.725 31.1458 300.996 29.8854 301.829 28.2812C302.683 26.6562 303.11 24.7917 303.11 22.6875C303.11 20.5625 302.683 18.7083 301.829 17.125C300.996 15.5208 299.725 14.2812 298.017 13.4062C296.308 12.5104 294.142 12.0625 291.517 12.0625H282.392V65H268.86ZM323.399 12.1562V0.999998H375.962V12.1562H356.368V65H342.993V12.1562H323.399Z" />
    </mask>
    <path
        d="M0.563416 65H-0.436584V66H0.563416V65ZM0.563416 1V0H-0.436584V1H0.563416ZM40.0634 4.84375L39.5804 5.71939L39.5835 5.72104L40.0634 4.84375ZM50.7822 15.8125L49.8964 16.2767L49.898 16.2797L50.7822 15.8125ZM50.7822 50.125L49.8972 49.6594L49.8956 49.6624L50.7822 50.125ZM40.0009 61.1562L39.5212 60.2788L39.5196 60.2797L40.0009 61.1562ZM14.0947 53.4062H13.0947V54.4062H14.0947V53.4062ZM32.7822 51.2812L33.2429 52.1688L33.2454 52.1675L32.7822 51.2812ZM38.9697 44.625L38.0619 44.2055L38.0606 44.2083L38.9697 44.625ZM38.9697 21.3438L38.0606 21.7604L38.063 21.7656L38.9697 21.3438ZM32.8134 14.7187L33.2741 13.8312V13.8312L32.8134 14.7187ZM14.0947 12.5938V11.5938H13.0947V12.5938H14.0947ZM23.2509 64H0.563416V66H23.2509V64ZM1.56342 65V1H-0.436584V65H1.56342ZM0.563416 2H23.4384V0H0.563416V2ZM23.4384 2C29.7428 2 35.111 3.25417 39.5804 5.71938L40.5464 3.96812C35.7242 1.30833 30.009 0 23.4384 0V2ZM39.5835 5.72104C44.0531 8.16632 47.4863 11.6774 49.8964 16.2766L51.6679 15.3483C49.078 10.406 45.3654 6.6045 40.5434 3.96646L39.5835 5.72104ZM49.898 16.2797C52.3271 20.8769 53.5634 26.4173 53.5634 32.9375H55.5634C55.5634 26.166 54.2789 20.2898 51.6663 15.3453L49.898 16.2797ZM53.5634 32.9375C53.5634 39.4789 52.327 45.0408 49.8972 49.6594L51.6672 50.5906C54.2791 45.6258 55.5634 39.7294 55.5634 32.9375H53.5634ZM49.8956 49.6624C47.486 54.2808 44.0329 57.8124 39.5212 60.2788L40.4806 62.0337C45.344 59.3751 49.0783 55.5526 51.6688 50.5876L49.8956 49.6624ZM39.5196 60.2797C35.0297 62.7452 29.6195 64 23.2509 64V66C29.8823 66 35.6388 64.6923 40.4822 62.0328L39.5196 60.2797ZM14.0947 54.4062H22.6884V52.4062H14.0947V54.4062ZM22.6884 54.4062C26.8021 54.4062 30.3351 53.6782 33.2429 52.1688L32.3215 50.3937C29.7709 51.7176 26.5747 52.4062 22.6884 52.4062V54.4062ZM33.2454 52.1675C36.2049 50.6205 38.4176 48.2296 39.8787 45.0417L38.0606 44.2083C36.7717 47.0204 34.8594 49.067 32.3189 50.395L33.2454 52.1675ZM39.8774 45.0445C41.3545 41.8479 42.0634 37.795 42.0634 32.9375H40.0634C40.0634 37.6217 39.3765 41.3604 38.0619 44.2055L39.8774 45.0445ZM42.0634 32.9375C42.0634 28.1207 41.3542 24.0981 39.8763 20.9219L38.063 21.7656C39.3768 24.5894 40.0634 28.296 40.0634 32.9375H42.0634ZM39.8787 20.9271C38.4182 17.7404 36.216 15.3583 33.2741 13.8312L32.3527 15.6063C34.8692 16.9126 36.7712 18.9471 38.0606 21.7604L39.8787 20.9271ZM33.2741 13.8312C30.3663 12.3218 26.8334 11.5938 22.7197 11.5938V13.5938C26.6059 13.5938 29.8022 14.2824 32.3527 15.6063L33.2741 13.8312ZM22.7197 11.5938H14.0947V13.5938H22.7197V11.5938ZM13.0947 12.5938V53.4062H15.0947V12.5938H13.0947ZM78.1181 1H79.1181V0H78.1181V1ZM78.1181 65V66H79.1181V65H78.1181ZM64.5869 65H63.5869V66H64.5869V65ZM64.5869 1V0H63.5869V1H64.5869ZM77.1181 1V65H79.1181V1H77.1181ZM78.1181 64H64.5869V66H78.1181V64ZM65.5869 65V1H63.5869V65H65.5869ZM64.5869 2H78.1181V0H64.5869V2ZM123.97 19.4062L122.975 19.5049L123.064 20.4062H123.97V19.4062ZM107.438 12.375L107.808 13.3044L107.819 13.2999L107.438 12.375ZM103.938 14.9062L103.138 14.3062L103.131 14.3162L103.938 14.9062ZM102.751 18.5938L103.75 18.6301L103.751 18.6119V18.5938H102.751ZM103.47 21.5938L102.616 22.1144L102.62 22.1219L102.625 22.1293L103.47 21.5938ZM105.688 23.8125L105.134 24.6446L105.14 24.6489L105.147 24.6531L105.688 23.8125ZM108.938 25.4062L108.589 26.3432L108.596 26.3458L108.603 26.3484L108.938 25.4062ZM112.876 26.5312L113.108 25.5587L113.101 25.557L113.094 25.5554L112.876 26.5312ZM118.626 27.9062L118.393 28.8788L118.4 28.8805L118.407 28.8821L118.626 27.9062ZM126.313 30.4062L125.906 31.3194L126.313 30.4062ZM132.376 34.25L133.041 33.5031L132.376 34.25ZM136.345 39.625L135.434 40.0388L135.438 40.0464L136.345 39.625ZM137.813 46.7188L138.813 46.7241L138.813 46.7109L137.813 46.7188ZM134.813 56.9062L133.99 56.3392L133.989 56.3405L134.813 56.9062ZM126.313 63.5625L126.704 64.4833L126.706 64.4822L126.313 63.5625ZM99.4697 63.5312L99.0861 64.4548L99.0879 64.4555L99.4697 63.5312ZM90.5322 56.5L89.7052 57.0623L89.7096 57.0686L90.5322 56.5ZM87.1884 44.9062V43.9062H86.1655L86.1887 44.9289L87.1884 44.9062ZM100.282 44.9062L101.28 44.8384L101.217 43.9062H100.282V44.9062ZM102.126 50.2812L101.327 50.8831L101.332 50.8896L101.337 50.896L102.126 50.2812ZM106.532 53.5L106.163 54.4293L106.175 54.4342L106.532 53.5ZM118.782 53.5625L118.419 52.6309L118.415 52.6324L118.782 53.5625ZM122.751 50.7812L123.536 51.4009L122.751 50.7812ZM122.876 43.0625L122.114 43.7107L122.122 43.7199L122.876 43.0625ZM119.188 40.5625L118.794 41.4817L118.799 41.4835L119.188 40.5625ZM113.282 38.6875L113.039 39.6574L113.048 39.6597L113.282 38.6875ZM106.313 36.9375L106.557 35.9676L106.55 35.9658L106.313 36.9375ZM93.5322 30.7812L92.866 31.527L93.5322 30.7812ZM88.8759 19.5L89.876 19.5044L89.8759 19.4946L88.8759 19.5ZM91.9697 9.34375L91.1607 8.75592L91.1579 8.75975L91.9697 9.34375ZM100.626 2.5625L100.221 1.64826L100.626 2.5625ZM125.563 2.5625L125.146 3.4714L125.148 3.47232L125.563 2.5625ZM133.876 9.34375L133.05 9.90801L133.876 9.34375ZM136.938 19.4062V20.4062H137.955L137.938 19.3899L136.938 19.4062ZM124.965 19.3076C124.689 16.5289 123.487 14.3036 121.344 12.726L120.158 14.3365C121.807 15.5506 122.75 17.2419 122.975 19.5049L124.965 19.3076ZM121.344 12.726C119.222 11.1635 116.416 10.4375 113.032 10.4375V12.4375C116.148 12.4375 118.488 13.1073 120.158 14.3365L121.344 12.726ZM113.032 10.4375C110.736 10.4375 108.733 10.7617 107.058 11.4501L107.819 13.2999C109.185 12.7383 110.912 12.4375 113.032 12.4375V10.4375ZM107.069 11.4456C105.413 12.1036 104.082 13.0475 103.138 14.3062L104.738 15.5062C105.419 14.5984 106.422 13.8547 107.808 13.3044L107.069 11.4456ZM103.131 14.3162C102.211 15.5753 101.751 17.0123 101.751 18.5938H103.751C103.751 17.4252 104.083 16.4038 104.746 15.4963L103.131 14.3162ZM101.752 18.5574C101.704 19.8697 101.979 21.0693 102.616 22.1144L104.323 21.0731C103.919 20.4098 103.715 19.6095 103.75 18.6301L101.752 18.5574ZM102.625 22.1293C103.25 23.1143 104.093 23.9509 105.134 24.6446L106.243 22.9804C105.409 22.4241 104.773 21.7816 104.314 21.0582L102.625 22.1293ZM105.147 24.6531C106.154 25.3023 107.304 25.864 108.589 26.3432L109.288 24.4693C108.115 24.0318 107.098 23.531 106.23 22.9719L105.147 24.6531ZM108.603 26.3484C109.874 26.8007 111.226 27.1866 112.657 27.5071L113.094 25.5554C111.734 25.2509 110.461 24.8868 109.274 24.4641L108.603 26.3484ZM112.643 27.5038L118.393 28.8788L118.858 26.9337L113.108 25.5587L112.643 27.5038ZM118.407 28.8821C121.142 29.4942 123.64 30.3079 125.906 31.3194L126.721 29.4931C124.32 28.4213 121.693 27.5683 118.844 26.9304L118.407 28.8821ZM125.906 31.3194C128.156 32.324 130.088 33.5518 131.711 34.9969L133.041 33.5031C131.247 31.9065 129.137 30.5718 126.721 29.4931L125.906 31.3194ZM131.711 34.9969C133.316 36.4259 134.555 38.1045 135.434 40.0388L137.255 39.2112C136.259 37.0205 134.852 35.1157 133.041 33.5031L131.711 34.9969ZM135.438 40.0464C136.326 41.9588 136.794 44.1784 136.813 46.7266L138.813 46.7109C138.792 43.9258 138.28 41.4162 137.252 39.2036L135.438 40.0464ZM136.813 46.7134C136.794 50.4548 135.841 53.6493 133.99 56.3392L135.637 57.4733C137.744 54.4132 138.792 50.816 138.813 46.7241L136.813 46.7134ZM133.989 56.3405C132.155 59.0137 129.484 61.1215 125.921 62.6428L126.706 64.4822C130.56 62.8368 133.555 60.5072 135.638 57.472L133.989 56.3405ZM125.923 62.6417C122.39 64.1388 118.082 64.9062 112.97 64.9062V66.9062C118.274 66.9062 122.862 66.1112 126.704 64.4833L125.923 62.6417ZM112.97 64.9062C107.903 64.9062 103.538 64.1297 99.8514 62.607L99.0879 64.4555C103.068 66.0995 107.703 66.9062 112.97 66.9062V64.9062ZM99.8532 62.6077C96.2008 61.0909 93.3812 58.8628 91.3548 55.9314L89.7096 57.0686C91.9748 60.3456 95.1136 62.805 99.0861 64.4548L99.8532 62.6077ZM91.3591 55.9377C89.3642 53.004 88.2889 49.3374 88.1882 44.8836L86.1887 44.9289C86.2962 49.6834 87.4502 53.746 89.7052 57.0623L91.3591 55.9377ZM87.1884 45.9062H100.282V43.9062H87.1884V45.9062ZM99.2845 44.9741C99.4409 47.2752 100.106 49.2626 101.327 50.8831L102.925 49.6794C101.979 48.4248 101.415 46.829 101.28 44.8384L99.2845 44.9741ZM101.337 50.896C102.561 52.4664 104.181 53.641 106.163 54.4292L106.902 52.5708C105.217 51.9007 103.899 50.9294 102.915 49.6665L101.337 50.896ZM106.175 54.4342C108.162 55.1929 110.379 55.5625 112.813 55.5625V53.5625C110.581 53.5625 108.611 53.2237 106.889 52.5658L106.175 54.4342ZM112.813 55.5625C115.199 55.5625 117.319 55.2158 119.15 54.4926L118.415 52.6324C116.871 53.2425 115.011 53.5625 112.813 53.5625V55.5625ZM119.146 54.4941C120.985 53.7765 122.467 52.7549 123.536 51.4009L121.966 50.1616C121.16 51.1826 119.996 52.0152 118.419 52.6309L119.146 54.4941ZM123.536 51.4009C124.615 50.0333 125.157 48.4494 125.157 46.6875H123.157C123.157 48.0089 122.761 49.1542 121.966 50.1616L123.536 51.4009ZM125.157 46.6875C125.157 45.0359 124.66 43.5862 123.629 42.4051L122.122 43.7199C122.8 44.4971 123.157 45.4641 123.157 46.6875H125.157ZM123.637 42.4144C122.673 41.2808 121.296 40.3684 119.578 39.6415L118.799 41.4835C120.331 42.1316 121.412 42.8859 122.114 43.7106L123.637 42.4144ZM119.582 39.6434C117.911 38.9273 115.886 38.2865 113.517 37.7153L113.048 39.6597C115.345 40.2135 117.257 40.8227 118.794 41.4816L119.582 39.6434ZM113.526 37.7176L106.557 35.9676L106.07 37.9074L113.039 39.6574L113.526 37.7176ZM106.55 35.9658C101.264 34.68 97.1675 32.6879 94.1984 30.0355L92.866 31.527C96.1469 34.458 100.572 36.57 106.077 37.9092L106.55 35.9658ZM94.1984 30.0355C91.3157 27.4603 89.8562 23.9882 89.8759 19.5044L87.8759 19.4956C87.854 24.4701 89.4987 28.5189 92.866 31.527L94.1984 30.0355ZM89.8759 19.4946C89.8561 15.8118 90.8323 12.637 92.7814 9.92775L91.1579 8.75975C88.9403 11.8422 87.8541 15.4382 87.8759 19.5054L89.8759 19.4946ZM92.7787 9.93158C94.7673 7.19477 97.5056 5.03917 101.031 3.47674L100.221 1.64826C96.4129 3.33583 93.3804 5.70106 91.1607 8.75592L92.7787 9.93158ZM101.031 3.47674C104.551 1.91679 108.576 1.125 113.126 1.125V-0.875004C108.342 -0.875004 104.034 -0.04179 100.221 1.64826L101.031 3.47674ZM113.126 1.125C117.763 1.125 121.761 1.91808 125.146 3.47139L125.98 1.6536C122.283 -0.043087 117.989 -0.875004 113.126 -0.875004V1.125ZM125.148 3.47232C128.565 5.03073 131.186 7.17963 133.05 9.90801L134.702 8.7795C132.608 5.7162 129.687 3.34427 125.978 1.65268L125.148 3.47232ZM133.05 9.90801C134.909 12.6281 135.879 15.7881 135.939 19.4226L137.938 19.3899C137.873 15.3994 136.801 11.851 134.702 8.77949L133.05 9.90801ZM136.938 18.4062H123.97V20.4062H136.938V18.4062ZM146.915 65H145.915V66H146.915V65ZM146.915 1V0H145.915V1H146.915ZM184.54 3.59375L184.088 4.48601L184.095 4.48926L184.54 3.59375ZM192.384 10.875L191.515 11.3699L191.519 11.3767L192.384 10.875ZM192.352 32.875L193.209 33.3912L193.21 33.3886L192.352 32.875ZM184.384 39.875L183.961 38.9689L183.958 38.9699L184.384 39.875ZM154.915 42.3125H153.915V43.3125H154.915V42.3125ZM154.915 31.4375V30.4375H153.915V31.4375H154.915ZM176.071 30.375L176.454 31.2987L176.071 30.375ZM179.884 27.1875L179.027 26.6711L179.022 26.6805L179.884 27.1875ZM179.884 16.5312L179.015 17.0274L179.021 17.0367L179.884 16.5312ZM176.04 13.2188L175.629 14.1303L175.635 14.1333L175.642 14.1362L176.04 13.2188ZM160.446 12.0625V11.0625H159.446V12.0625H160.446ZM160.446 65V66H161.446V65H160.446ZM181.477 35.875L182.355 35.3957L182.071 34.875H181.477V35.875ZM197.384 65V66H199.069L198.261 64.5207L197.384 65ZM182.446 65L181.564 65.4713L181.847 66H182.446V65ZM166.884 35.875V34.875H165.216L166.002 36.3463L166.884 35.875ZM147.915 65V1H145.915V65H147.915ZM146.915 2H172.165V0H146.915V2ZM172.165 2C176.882 2 180.844 2.84379 184.088 4.48599L184.992 2.70151C181.403 0.885372 177.115 0 172.165 0V2ZM184.095 4.48926C187.366 6.11476 189.828 8.40741 191.515 11.3699L193.253 10.3801C191.357 7.05092 188.589 4.4894 184.985 2.69824L184.095 4.48926ZM191.519 11.3767C193.229 14.325 194.102 17.8229 194.102 21.9062H196.102C196.102 17.5312 195.164 13.675 193.249 10.3733L191.519 11.3767ZM194.102 21.9062C194.102 26.0101 193.219 29.4814 191.494 32.3614L193.21 33.3886C195.153 30.1436 196.102 26.3024 196.102 21.9062H194.102ZM191.496 32.3588C189.774 35.2164 187.275 37.4208 183.961 38.969L184.807 40.781C188.451 39.0792 191.265 36.6169 193.209 33.3912L191.496 32.3588ZM183.958 38.9699C180.666 40.5172 176.632 41.3125 171.821 41.3125V43.3125C176.844 43.3125 181.185 42.4828 184.809 40.7801L183.958 38.9699ZM171.821 41.3125H154.915V43.3125H171.821V41.3125ZM155.915 42.3125V31.4375H153.915V42.3125H155.915ZM154.915 32.4375H169.634V30.4375H154.915V32.4375ZM169.634 32.4375C172.3 32.4375 174.587 32.0732 176.454 31.2987L175.688 29.4513C174.139 30.0935 172.134 30.4375 169.634 30.4375V32.4375ZM176.454 31.2987C178.337 30.5181 179.789 29.3216 180.746 27.6945L179.022 26.6805C178.312 27.8867 177.222 28.8152 175.688 29.4513L176.454 31.2987ZM180.74 27.7038C181.711 26.0943 182.165 24.1436 182.165 21.9062H180.165C180.165 23.8773 179.765 25.4474 179.027 26.6712L180.74 27.7038ZM182.165 21.9062C182.165 19.6487 181.711 17.6722 180.747 16.0258L179.021 17.0367C179.765 18.3069 180.165 19.9138 180.165 21.9062H182.165ZM180.752 16.0351C179.799 14.3666 178.34 13.1263 176.438 12.3013L175.642 14.1362C177.198 14.8112 178.302 15.7793 179.015 17.0274L180.752 16.0351ZM176.451 12.3072C174.574 11.46 172.266 11.0625 169.571 11.0625V13.0625C172.085 13.0625 174.09 13.4358 175.629 14.1303L176.451 12.3072ZM169.571 11.0625H160.446V13.0625H169.571V11.0625ZM159.446 12.0625V65H161.446V12.0625H159.446ZM160.446 64H146.915V66H160.446V64ZM180.6 36.3543L196.506 65.4793L198.261 64.5207L182.355 35.3957L180.6 36.3543ZM197.384 64H182.446V66H197.384V64ZM183.328 64.5287L167.766 35.4037L166.002 36.3463L181.564 65.4713L183.328 64.5287ZM166.884 36.875H181.477V34.875H166.884V36.875ZM244.196 1V0H243.196V1H244.196ZM257.727 1H258.727V0H257.727V1ZM254.384 54.8125L253.54 54.2753L253.538 54.2789L254.384 54.8125ZM245.102 63L245.54 63.8991L245.544 63.8972L245.102 63ZM217.259 63L216.817 63.8972L216.821 63.8991L217.259 63ZM207.977 54.8125L207.132 55.3461L207.977 54.8125ZM204.665 1V0H203.665V1H204.665ZM218.196 1H219.196V0H218.196V1ZM219.79 47.9062L218.918 48.3952L218.922 48.4024L219.79 47.9062ZM224.352 52.375L223.868 53.25L223.868 53.25L224.352 52.375ZM238.04 52.375L237.556 51.5L237.552 51.5022L238.04 52.375ZM242.571 47.9062L241.703 47.4101L241.699 47.4174L242.571 47.9062ZM244.196 2H257.727V0H244.196V2ZM256.727 1V42.5625H258.727V1H256.727ZM256.727 42.5625C256.727 47.0633 255.655 50.9553 253.54 54.2753L255.227 55.3497C257.571 51.6697 258.727 47.3951 258.727 42.5625H256.727ZM253.538 54.2789C251.435 57.6114 248.487 60.2199 244.661 62.1028L245.544 63.8972C249.677 61.8634 252.915 59.0136 255.229 55.3461L253.538 54.2789ZM244.665 62.1009C240.846 63.9603 236.366 64.9062 231.196 64.9062V66.9062C236.61 66.9062 241.401 65.9147 245.54 63.8991L244.665 62.1009ZM231.196 64.9062C226.005 64.9062 221.515 63.96 217.697 62.1009L216.821 63.8991C220.961 65.915 225.762 66.9062 231.196 66.9062V64.9062ZM217.7 62.1028C213.874 60.2199 210.926 57.6114 208.823 54.2789L207.132 55.3461C209.446 59.0136 212.685 61.8634 216.817 63.8972L217.7 62.1028ZM208.823 54.2789C206.728 50.9584 205.665 47.0651 205.665 42.5625H203.665C203.665 47.3932 204.81 51.6666 207.132 55.3461L208.823 54.2789ZM205.665 42.5625V1H203.665V42.5625H205.665ZM204.665 2H218.196V0H204.665V2ZM217.196 1V41.4062H219.196V1H217.196ZM217.196 41.4062C217.196 43.9937 217.762 46.3325 218.918 48.3951L220.662 47.4174C219.693 45.6883 219.196 43.6938 219.196 41.4062H217.196ZM218.922 48.4024C220.098 50.4615 221.754 52.0803 223.868 53.25L224.837 51.5C223.034 50.503 221.648 49.1427 220.658 47.4101L218.922 48.4024ZM223.868 53.25C225.998 54.4279 228.451 55 231.196 55V53C228.734 53 226.624 52.4888 224.837 51.5L223.868 53.25ZM231.196 55C233.961 55 236.416 54.4286 238.528 53.2478L237.552 51.5022C235.789 52.4881 233.682 53 231.196 53V55ZM238.524 53.25C240.64 52.0794 242.287 50.4583 243.444 48.3951L241.699 47.4174C240.73 49.1458 239.357 50.5039 237.556 51.5L238.524 53.25ZM243.439 48.4024C244.619 46.3385 245.196 43.9971 245.196 41.4062H243.196C243.196 43.6904 242.69 45.6824 241.703 47.4101L243.439 48.4024ZM245.196 41.4062V1H243.196V41.4062H245.196ZM268.86 65H267.86V66H268.86V65ZM268.86 1V0H267.86V1H268.86ZM306.517 3.78125L306.04 4.66018L306.044 4.66241L306.517 3.78125ZM314.329 11.4375L313.452 11.9179L313.456 11.9246L314.329 11.4375ZM306.329 41.5312L305.867 40.6444L305.865 40.6455L306.329 41.5312ZM277.673 44.25H276.673V45.25H277.673V44.25ZM277.673 33.4062V32.4062H276.673V33.4062H277.673ZM298.017 32.0625L298.485 32.9458L298.489 32.9437L298.017 32.0625ZM301.829 28.2812L300.944 27.816L300.942 27.8203L301.829 28.2812ZM301.829 17.125L300.942 17.586L300.945 17.5929L300.949 17.5998L301.829 17.125ZM298.017 13.4062L297.552 14.2919L297.561 14.2963L298.017 13.4062ZM282.392 12.0625V11.0625H281.392V12.0625H282.392ZM282.392 65V66H283.392V65H282.392ZM269.86 65V1H267.86V65H269.86ZM268.86 2H294.11V0H268.86V2ZM294.11 2C298.839 2 302.801 2.90286 306.04 4.66017L306.994 2.90233C303.398 0.951305 299.09 0 294.11 0V2ZM306.044 4.66241C309.297 6.40797 311.757 8.82398 313.452 11.9179L315.206 10.9571C313.318 7.50935 310.57 4.82119 306.989 2.90009L306.044 4.66241ZM313.456 11.9246C315.174 15.0056 316.048 18.5835 316.048 22.6875H318.048C318.048 18.2915 317.109 14.3694 315.202 10.9504L313.456 11.9246ZM316.048 22.6875C316.048 26.7896 315.164 30.3659 313.427 33.4462L315.169 34.4288C317.098 31.0091 318.048 27.0854 318.048 22.6875H316.048ZM313.427 33.4462C311.694 36.5186 309.184 38.9165 305.867 40.6444L306.791 42.4181C310.433 40.521 313.235 37.8564 315.169 34.4288L313.427 33.4462ZM305.865 40.6455C302.582 42.366 298.562 43.25 293.767 43.25V45.25C298.804 45.25 303.159 44.3215 306.793 42.417L305.865 40.6455ZM293.767 43.25H277.673V45.25H293.767V43.25ZM278.673 44.25V33.4062H276.673V44.25H278.673ZM277.673 34.4062H291.579V32.4062H277.673V34.4062ZM291.579 34.4062C294.29 34.4062 296.611 33.941 298.485 32.9458L297.548 31.1792C296.047 31.9757 294.076 32.4062 291.579 32.4062V34.4062ZM298.489 32.9437C300.362 31.9391 301.784 30.5381 302.716 28.7422L300.942 27.8203C300.208 29.2327 299.088 30.3526 297.544 31.1813L298.489 32.9437ZM302.714 28.7465C303.654 26.9583 304.11 24.9299 304.11 22.6875H302.11C302.11 24.6534 301.712 26.3542 300.944 27.816L302.714 28.7465ZM304.11 22.6875C304.11 20.4268 303.655 18.4038 302.709 16.6502L300.949 17.5998C301.711 19.0129 302.11 20.6982 302.11 22.6875H304.11ZM302.716 16.664C301.781 14.8638 300.354 13.4797 298.472 12.5162L297.561 14.2963C299.096 15.0828 300.21 16.1779 300.942 17.586L302.716 16.664ZM298.481 12.5206C296.587 11.5275 294.248 11.0625 291.517 11.0625V13.0625C294.035 13.0625 296.029 13.4933 297.552 14.2919L298.481 12.5206ZM291.517 11.0625H282.392V13.0625H291.517V11.0625ZM281.392 12.0625V65H283.392V12.0625H281.392ZM282.392 64H268.86V66H282.392V64ZM323.399 12.1562H322.399V13.1562H323.399V12.1562ZM323.399 1V0H322.399V1H323.399ZM375.962 1H376.962V0H375.962V1ZM375.962 12.1562V13.1562H376.962V12.1562H375.962ZM356.368 12.1562V11.1562H355.368V12.1562H356.368ZM356.368 65V66H357.368V65H356.368ZM342.993 65H341.993V66H342.993V65ZM342.993 12.1562H343.993V11.1562H342.993V12.1562ZM324.399 12.1562V1H322.399V12.1562H324.399ZM323.399 2H375.962V0H323.399V2ZM374.962 1V12.1562H376.962V1H374.962ZM375.962 11.1562H356.368V13.1562H375.962V11.1562ZM355.368 12.1562V65H357.368V12.1562H355.368ZM356.368 64H342.993V66H356.368V64ZM343.993 65V12.1562H341.993V65H343.993ZM342.993 11.1562H323.399V13.1562H342.993V11.1562Z"
        fill="#F7F7F7" mask="url(#path-1-outside-1_451_5199)" />
</svg>
    