<svg width="505" height="354" viewBox="0 0 505 354" fill="none" xmlns="http://www.w3.org/2000/svg">
    <mask id="path-1-outside-1_451_2797" maskUnits="userSpaceOnUse" x="64" y="-1" width="440"
        height="68" fill="black">
        <rect fill="white" x="64" y="-1" width="440" height="68" />
        <path
            d="M79.0938 0.999998V65H65.5625V0.999998H79.0938ZM143.758 0.999998V65H132.07L104.227 24.7187H103.758V65H90.2266V0.999998H102.102L129.727 41.25H130.289V0.999998H143.758ZM208.469 0.999998V65H196.781L168.938 24.7187H168.469V65H154.937V0.999998H166.813L194.438 41.25H195V0.999998H208.469ZM278.461 33C278.461 39.9792 277.138 45.9167 274.492 50.8125C271.867 55.7083 268.284 59.4479 263.742 62.0312C259.221 64.5937 254.138 65.875 248.492 65.875C242.805 65.875 237.701 64.5833 233.18 62C228.659 59.4167 225.086 55.6771 222.461 50.7813C219.836 45.8854 218.523 39.9583 218.523 33C218.523 26.0208 219.836 20.0833 222.461 15.1875C225.086 10.2917 228.659 6.5625 233.18 4C237.701 1.41667 242.805 0.124998 248.492 0.124998C254.138 0.124998 259.221 1.41667 263.742 4C268.284 6.5625 271.867 10.2917 274.492 15.1875C277.138 20.0833 278.461 26.0208 278.461 33ZM264.742 33C264.742 28.4792 264.065 24.6667 262.711 21.5625C261.378 18.4583 259.492 16.1042 257.055 14.5C254.617 12.8958 251.763 12.0938 248.492 12.0938C245.221 12.0938 242.367 12.8958 239.93 14.5C237.492 16.1042 235.596 18.4583 234.242 21.5625C232.909 24.6667 232.242 28.4792 232.242 33C232.242 37.5208 232.909 41.3333 234.242 44.4375C235.596 47.5417 237.492 49.8958 239.93 51.5C242.367 53.1042 245.221 53.9062 248.492 53.9062C251.763 53.9062 254.617 53.1042 257.055 51.5C259.492 49.8958 261.378 47.5417 262.711 44.4375C264.065 41.3333 264.742 37.5208 264.742 33ZM296.438 0.999998L311.906 49.625H312.5L328 0.999998H343L320.938 65H303.5L281.406 0.999998H296.438ZM353.227 65H338.727L360.82 0.999998H378.258L400.32 65H385.82L369.789 15.625H369.289L353.227 65ZM352.32 39.8437H386.57V50.4062H352.32V39.8437ZM397.766 12.1562V0.999998H450.328V12.1562H430.734V65H417.359V12.1562H397.766ZM458.984 65V0.999998H502.109V12.1562H472.516V27.4062H499.891V38.5625H472.516V53.8437H502.234V65H458.984Z" />
    </mask>
    <path
        d="M79.0938 1H80.0938V0H79.0938V1ZM79.0938 65V66H80.0938V65H79.0938ZM65.5625 65H64.5625V66H65.5625V65ZM65.5625 1V0H64.5625V1H65.5625ZM78.0938 1V65H80.0938V1H78.0938ZM79.0938 64H65.5625V66H79.0938V64ZM66.5625 65V1H64.5625V65H66.5625ZM65.5625 2H79.0938V0H65.5625V2ZM143.758 1H144.758V0H143.758V1ZM143.758 65V66H144.758V65H143.758ZM132.07 65L131.248 65.5686L131.546 66H132.07V65ZM104.227 24.7188L105.049 24.1501L104.751 23.7188H104.227V24.7188ZM103.758 24.7188V23.7188H102.758V24.7188H103.758ZM103.758 65V66H104.758V65H103.758ZM90.2266 65H89.2266V66H90.2266V65ZM90.2266 1V0H89.2266V1H90.2266ZM102.102 1L102.926 0.43412L102.628 0H102.102V1ZM129.727 41.25L128.902 41.8159L129.2 42.25H129.727V41.25ZM130.289 41.25V42.25H131.289V41.25H130.289ZM130.289 1V0H129.289V1H130.289ZM142.758 1V65H144.758V1H142.758ZM143.758 64H132.07V66H143.758V64ZM132.893 64.4314L105.049 24.1501L103.404 25.2874L131.248 65.5686L132.893 64.4314ZM104.227 23.7188H103.758V25.7188H104.227V23.7188ZM102.758 24.7188V65H104.758V24.7188H102.758ZM103.758 64H90.2266V66H103.758V64ZM91.2266 65V1H89.2266V65H91.2266ZM90.2266 2H102.102V0H90.2266V2ZM101.277 1.56588L128.902 41.8159L130.551 40.6841L102.926 0.43412L101.277 1.56588ZM129.727 42.25H130.289V40.25H129.727V42.25ZM131.289 41.25V1H129.289V41.25H131.289ZM130.289 2H143.758V0H130.289V2ZM208.469 1H209.469V0H208.469V1ZM208.469 65V66H209.469V65H208.469ZM196.781 65L195.959 65.5686L196.257 66H196.781V65ZM168.938 24.7188L169.76 24.1501L169.462 23.7188H168.938V24.7188ZM168.469 24.7188V23.7188H167.469V24.7188H168.469ZM168.469 65V66H169.469V65H168.469ZM154.938 65H153.938V66H154.938V65ZM154.938 1V0H153.938V1H154.938ZM166.812 1L167.637 0.43412L167.339 0H166.812V1ZM194.438 41.25L193.613 41.8159L193.911 42.25H194.438V41.25ZM195 41.25V42.25H196V41.25H195ZM195 1V0H194V1H195ZM207.469 1V65H209.469V1H207.469ZM208.469 64H196.781V66H208.469V64ZM197.604 64.4314L169.76 24.1501L168.115 25.2874L195.959 65.5686L197.604 64.4314ZM168.938 23.7188H168.469V25.7188H168.938V23.7188ZM167.469 24.7188V65H169.469V24.7188H167.469ZM168.469 64H154.938V66H168.469V64ZM155.938 65V1H153.938V65H155.938ZM154.938 2H166.812V0H154.938V2ZM165.988 1.56588L193.613 41.8159L195.262 40.6841L167.637 0.43412L165.988 1.56588ZM194.438 42.25H195V40.25H194.438V42.25ZM196 41.25V1H194V41.25H196ZM195 2H208.469V0H195V2ZM274.492 50.8125L273.612 50.3371L273.611 50.34L274.492 50.8125ZM263.742 62.0312L264.235 62.9012L264.237 62.9005L263.742 62.0312ZM233.18 62L233.676 61.1318L233.18 62ZM222.461 50.7812L221.58 51.2538L222.461 50.7812ZM222.461 15.1875L223.342 15.66L222.461 15.1875ZM233.18 4L233.673 4.86997L233.676 4.86824L233.18 4ZM263.742 4L263.246 4.86826L263.251 4.87093L263.742 4ZM274.492 15.1875L273.611 15.66L273.612 15.6629L274.492 15.1875ZM262.711 21.5625L261.792 21.9572L261.794 21.9623L262.711 21.5625ZM257.055 14.5L256.505 15.3353L257.055 14.5ZM239.93 14.5L240.479 15.3353L239.93 14.5ZM234.242 21.5625L233.326 21.1626L233.323 21.1678L234.242 21.5625ZM234.242 44.4375L233.323 44.8322L233.326 44.8373L234.242 44.4375ZM239.93 51.5L240.479 50.6647V50.6647L239.93 51.5ZM257.055 51.5L256.505 50.6647V50.6647L257.055 51.5ZM262.711 44.4375L261.794 44.0376L261.792 44.0428L262.711 44.4375ZM277.461 33C277.461 39.8546 276.162 45.6198 273.612 50.3371L275.372 51.2879C278.114 46.2135 279.461 40.1038 279.461 33H277.461ZM273.611 50.34C271.069 55.0807 267.615 58.6778 263.248 61.162L264.237 62.9005C268.953 60.218 272.665 56.3359 275.374 51.285L273.611 50.34ZM263.249 61.1613C258.891 63.6313 253.981 64.875 248.492 64.875V66.875C254.295 66.875 259.551 65.5562 264.235 62.9012L263.249 61.1613ZM248.492 64.875C242.962 64.875 238.032 63.6209 233.676 61.1318L232.684 62.8682C237.369 65.5458 242.647 66.875 248.492 66.875V64.875ZM233.676 61.1318C229.329 58.6479 225.885 55.0507 223.342 50.3087L221.58 51.2538C224.287 56.3035 227.989 60.1855 232.684 62.8682L233.676 61.1318ZM223.342 50.3087C220.812 45.5904 219.523 39.8343 219.523 33H217.523C217.523 40.0823 218.859 46.1804 221.58 51.2538L223.342 50.3087ZM219.523 33C219.523 26.1443 220.813 20.378 223.342 15.66L221.58 14.715C218.859 19.7887 217.523 25.8974 217.523 33H219.523ZM223.342 15.66C225.884 10.9187 229.328 7.33282 233.673 4.86996L232.687 3.13004C227.99 5.79218 224.287 9.66464 221.58 14.715L223.342 15.66ZM233.676 4.86824C238.032 2.37909 242.962 1.125 248.492 1.125V-0.875004C242.647 -0.875004 237.369 0.454239 232.684 3.13176L233.676 4.86824ZM248.492 1.125C253.979 1.125 258.889 2.37845 263.246 4.86824L264.238 3.13176C259.554 0.45488 254.297 -0.875004 248.492 -0.875004V1.125ZM263.251 4.87093C267.616 7.33412 271.069 10.9199 273.611 15.66L275.374 14.715C272.665 9.66346 268.951 5.79088 264.234 3.12907L263.251 4.87093ZM273.612 15.6629C276.162 20.3802 277.461 26.1454 277.461 33H279.461C279.461 25.8962 278.114 19.7865 275.372 14.7121L273.612 15.6629ZM265.742 33C265.742 28.3852 265.052 24.4276 263.628 21.1626L261.794 21.9623C263.078 24.9057 263.742 28.5731 263.742 33H265.742ZM263.63 21.1678C262.232 17.9129 260.23 15.3926 257.604 13.6647L256.505 15.3353C258.754 16.8157 260.524 19.0038 261.792 21.9572L263.63 21.1678ZM257.604 13.6647C254.984 11.9404 251.934 11.0938 248.492 11.0938V13.0938C251.592 13.0938 254.25 13.8513 256.505 15.3353L257.604 13.6647ZM248.492 11.0938C245.05 11.0938 242 11.9404 239.38 13.6647L240.479 15.3353C242.734 13.8513 245.392 13.0938 248.492 13.0938V11.0938ZM239.38 13.6647C236.756 15.3916 234.745 17.91 233.326 21.1626L235.159 21.9623C236.448 19.0066 238.229 16.8167 240.479 15.3353L239.38 13.6647ZM233.323 21.1678C231.922 24.4312 231.242 28.3869 231.242 33H233.242C233.242 28.5715 233.896 24.9021 235.161 21.9572L233.323 21.1678ZM231.242 33C231.242 37.6131 231.922 41.5688 233.323 44.8322L235.161 44.0428C233.896 41.0979 233.242 37.4285 233.242 33H231.242ZM233.326 44.8373C234.745 48.09 236.756 50.6084 239.38 52.3353L240.479 50.6647C238.229 49.1833 236.448 46.9934 235.159 44.0377L233.326 44.8373ZM239.38 52.3353C242 54.0596 245.05 54.9062 248.492 54.9062V52.9062C245.392 52.9062 242.734 52.1487 240.479 50.6647L239.38 52.3353ZM248.492 54.9062C251.934 54.9062 254.984 54.0596 257.604 52.3353L256.505 50.6647C254.25 52.1487 251.592 52.9062 248.492 52.9062V54.9062ZM257.604 52.3353C260.23 50.6074 262.232 48.0871 263.63 44.8322L261.792 44.0428C260.524 46.9962 258.754 49.1843 256.505 50.6647L257.604 52.3353ZM263.628 44.8373C265.052 41.5724 265.742 37.6148 265.742 33H263.742C263.742 37.4269 263.078 41.0943 261.794 44.0377L263.628 44.8373ZM296.438 1L297.39 0.696846L297.169 0H296.438V1ZM311.906 49.625L310.953 49.9282L311.175 50.625H311.906V49.625ZM312.5 49.625V50.625H313.231L313.453 49.9287L312.5 49.625ZM328 1V0H327.269L327.047 0.696289L328 1ZM343 1L343.945 1.3259L344.402 0H343V1ZM320.938 65V66H321.651L321.883 65.3259L320.938 65ZM303.5 65L302.555 65.3263L302.787 66H303.5V65ZM281.406 1V0H280.003L280.461 1.32632L281.406 1ZM295.485 1.30315L310.953 49.9282L312.859 49.3218L297.39 0.696846L295.485 1.30315ZM311.906 50.625H312.5V48.625H311.906V50.625ZM313.453 49.9287L328.953 1.30371L327.047 0.696289L311.547 49.3213L313.453 49.9287ZM328 2H343V0H328V2ZM342.055 0.674091L319.992 64.6741L321.883 65.3259L343.945 1.3259L342.055 0.674091ZM320.938 64H303.5V66H320.938V64ZM304.445 64.6737L282.352 0.673679L280.461 1.32632L302.555 65.3263L304.445 64.6737ZM281.406 2H296.438V0H281.406V2ZM353.227 65V66H353.953L354.178 65.3094L353.227 65ZM338.727 65L337.781 64.6737L337.323 66H338.727V65ZM360.82 1V0H360.108L359.875 0.673679L360.82 1ZM378.258 1L379.203 0.674091L378.971 0H378.258V1ZM400.32 65V66H401.723L401.266 64.6741L400.32 65ZM385.82 65L384.869 65.3088L385.094 66H385.82V65ZM369.789 15.625L370.74 15.3162L370.516 14.625H369.789V15.625ZM369.289 15.625V14.625H368.563L368.338 15.3156L369.289 15.625ZM352.32 39.8438V38.8438H351.32V39.8438H352.32ZM386.57 39.8438H387.57V38.8438H386.57V39.8438ZM386.57 50.4062V51.4062H387.57V50.4062H386.57ZM352.32 50.4062H351.32V51.4062H352.32V50.4062ZM353.227 64H338.727V66H353.227V64ZM339.672 65.3263L361.766 1.32632L359.875 0.673679L337.781 64.6737L339.672 65.3263ZM360.82 2H378.258V0H360.82V2ZM377.312 1.3259L399.375 65.3259L401.266 64.6741L379.203 0.674091L377.312 1.3259ZM400.32 64H385.82V66H400.32V64ZM386.771 64.6912L370.74 15.3162L368.838 15.9338L384.869 65.3088L386.771 64.6912ZM369.789 14.625H369.289V16.625H369.789V14.625ZM368.338 15.3156L352.276 64.6906L354.178 65.3094L370.24 15.9344L368.338 15.3156ZM352.32 40.8438H386.57V38.8438H352.32V40.8438ZM385.57 39.8438V50.4062H387.57V39.8438H385.57ZM386.57 49.4062H352.32V51.4062H386.57V49.4062ZM353.32 50.4062V39.8438H351.32V50.4062H353.32ZM397.766 12.1562H396.766V13.1562H397.766V12.1562ZM397.766 1V0H396.766V1H397.766ZM450.328 1H451.328V0H450.328V1ZM450.328 12.1562V13.1562H451.328V12.1562H450.328ZM430.734 12.1562V11.1562H429.734V12.1562H430.734ZM430.734 65V66H431.734V65H430.734ZM417.359 65H416.359V66H417.359V65ZM417.359 12.1562H418.359V11.1562H417.359V12.1562ZM398.766 12.1562V1H396.766V12.1562H398.766ZM397.766 2H450.328V0H397.766V2ZM449.328 1V12.1562H451.328V1H449.328ZM450.328 11.1562H430.734V13.1562H450.328V11.1562ZM429.734 12.1562V65H431.734V12.1562H429.734ZM430.734 64H417.359V66H430.734V64ZM418.359 65V12.1562H416.359V65H418.359ZM417.359 11.1562H397.766V13.1562H417.359V11.1562ZM458.984 65H457.984V66H458.984V65ZM458.984 1V0H457.984V1H458.984ZM502.109 1H503.109V0H502.109V1ZM502.109 12.1562V13.1562H503.109V12.1562H502.109ZM472.516 12.1562V11.1562H471.516V12.1562H472.516ZM472.516 27.4062H471.516V28.4062H472.516V27.4062ZM499.891 27.4062H500.891V26.4062H499.891V27.4062ZM499.891 38.5625V39.5625H500.891V38.5625H499.891ZM472.516 38.5625V37.5625H471.516V38.5625H472.516ZM472.516 53.8438H471.516V54.8438H472.516V53.8438ZM502.234 53.8438H503.234V52.8438H502.234V53.8438ZM502.234 65V66H503.234V65H502.234ZM459.984 65V1H457.984V65H459.984ZM458.984 2H502.109V0H458.984V2ZM501.109 1V12.1562H503.109V1H501.109ZM502.109 11.1562H472.516V13.1562H502.109V11.1562ZM471.516 12.1562V27.4062H473.516V12.1562H471.516ZM472.516 28.4062H499.891V26.4062H472.516V28.4062ZM498.891 27.4062V38.5625H500.891V27.4062H498.891ZM499.891 37.5625H472.516V39.5625H499.891V37.5625ZM471.516 38.5625V53.8438H473.516V38.5625H471.516ZM472.516 54.8438H502.234V52.8438H472.516V54.8438ZM501.234 53.8438V65H503.234V53.8438H501.234ZM502.234 64H458.984V66H502.234V64Z"
        fill="#F7F7F7" mask="url(#path-1-outside-1_451_2797)" />
    <mask id="path-3-outside-2_451_2797" maskUnits="userSpaceOnUse" x="-1" y="146" width="378"
        height="68" fill="black">
        <rect fill="white" x="-1" y="146" width="378" height="68" />
        <path
            d="M23.25 212H0.5625V148H23.4375C29.875 148 35.4167 149.281 40.0625 151.844C44.7083 154.385 48.2813 158.042 50.7813 162.812C53.3021 167.583 54.5625 173.292 54.5625 179.937C54.5625 186.604 53.3021 192.333 50.7813 197.125C48.2813 201.917 44.6875 205.594 40 208.156C35.3333 210.719 29.75 212 23.25 212ZM14.0938 200.406H22.6875C26.6875 200.406 30.0521 199.698 32.7813 198.281C35.5313 196.844 37.5938 194.625 38.9688 191.625C40.3646 188.604 41.0625 184.708 41.0625 179.937C41.0625 175.208 40.3646 171.344 38.9688 168.344C37.5938 165.344 35.5417 163.135 32.8125 161.719C30.0833 160.302 26.7188 159.594 22.7188 159.594H14.0938V200.406ZM78.1172 148V212H64.5859V148H78.1172ZM123.969 166.406C123.719 163.885 122.646 161.927 120.75 160.531C118.854 159.135 116.281 158.437 113.031 158.437C110.823 158.437 108.958 158.75 107.438 159.375C105.917 159.979 104.75 160.823 103.938 161.906C103.146 162.99 102.75 164.219 102.75 165.594C102.708 166.74 102.948 167.74 103.469 168.594C104.01 169.448 104.75 170.187 105.688 170.812C106.625 171.417 107.708 171.948 108.937 172.406C110.167 172.844 111.479 173.219 112.875 173.531L118.625 174.906C121.417 175.531 123.979 176.365 126.312 177.406C128.646 178.448 130.667 179.729 132.375 181.25C134.083 182.771 135.406 184.562 136.344 186.625C137.302 188.687 137.792 191.052 137.812 193.719C137.792 197.635 136.792 201.031 134.813 203.906C132.854 206.76 130.021 208.979 126.312 210.562C122.625 212.125 118.177 212.906 112.969 212.906C107.802 212.906 103.302 212.115 99.4688 210.531C95.6563 208.948 92.6771 206.604 90.5313 203.5C88.4063 200.375 87.2917 196.51 87.1875 191.906H100.281C100.427 194.052 101.042 195.844 102.125 197.281C103.229 198.698 104.698 199.771 106.531 200.5C108.385 201.208 110.479 201.562 112.812 201.562C115.104 201.562 117.094 201.229 118.781 200.562C120.49 199.896 121.813 198.969 122.75 197.781C123.688 196.594 124.156 195.229 124.156 193.687C124.156 192.25 123.729 191.042 122.875 190.062C122.042 189.083 120.813 188.25 119.188 187.562C117.583 186.875 115.615 186.25 113.281 185.687L106.313 183.937C100.917 182.625 96.6563 180.573 93.5313 177.781C90.4063 174.99 88.8542 171.229 88.875 166.5C88.8542 162.625 89.8854 159.24 91.9688 156.344C94.0729 153.448 96.9583 151.187 100.625 149.562C104.292 147.937 108.458 147.125 113.125 147.125C117.875 147.125 122.021 147.937 125.563 149.562C129.125 151.187 131.896 153.448 133.875 156.344C135.854 159.24 136.875 162.594 136.937 166.406H123.969ZM146.914 212V148H172.164C176.997 148 181.122 148.865 184.539 150.594C187.977 152.302 190.591 154.729 192.383 157.875C194.195 161 195.102 164.677 195.102 168.906C195.102 173.156 194.185 176.812 192.352 179.875C190.518 182.917 187.862 185.25 184.383 186.875C180.924 188.5 176.737 189.312 171.82 189.312H154.914V178.437H169.633C172.216 178.437 174.362 178.083 176.07 177.375C177.779 176.667 179.049 175.604 179.883 174.188C180.737 172.771 181.164 171.01 181.164 168.906C181.164 166.781 180.737 164.99 179.883 163.531C179.049 162.073 177.768 160.969 176.039 160.219C174.331 159.448 172.174 159.062 169.57 159.062H160.445V212H146.914ZM181.477 182.875L197.383 212H182.445L166.883 182.875H181.477ZM244.195 148H257.727V189.562C257.727 194.229 256.612 198.312 254.383 201.812C252.174 205.312 249.081 208.042 245.102 210C241.122 211.938 236.487 212.906 231.195 212.906C225.883 212.906 221.237 211.938 217.258 210C213.279 208.042 210.185 205.312 207.977 201.812C205.768 198.312 204.664 194.229 204.664 189.562V148H218.195V188.406C218.195 190.844 218.727 193.01 219.789 194.906C220.872 196.802 222.393 198.292 224.352 199.375C226.31 200.458 228.591 201 231.195 201C233.82 201 236.102 200.458 238.039 199.375C239.997 198.292 241.508 196.802 242.57 194.906C243.654 193.01 244.195 190.844 244.195 188.406V148ZM268.859 212V148H294.109C298.964 148 303.099 148.927 306.516 150.781C309.932 152.615 312.536 155.167 314.328 158.437C316.141 161.687 317.047 165.437 317.047 169.687C317.047 173.937 316.13 177.687 314.297 180.937C312.464 184.187 309.807 186.719 306.328 188.531C302.87 190.344 298.682 191.25 293.766 191.25H277.672V180.406H291.578C294.182 180.406 296.328 179.958 298.016 179.062C299.724 178.146 300.995 176.885 301.828 175.281C302.682 173.656 303.109 171.792 303.109 169.687C303.109 167.562 302.682 165.708 301.828 164.125C300.995 162.521 299.724 161.281 298.016 160.406C296.307 159.51 294.141 159.062 291.516 159.062H282.391V212H268.859ZM323.398 159.156V148H375.961V159.156H356.367V212H342.992V159.156H323.398Z" />
    </mask>
    <path
        d="M0.5625 212H-0.4375V213H0.5625V212ZM0.5625 148V147H-0.4375V148H0.5625ZM40.0625 151.844L39.5795 152.719L39.5825 152.721L40.0625 151.844ZM50.7813 162.812L49.8955 163.277L49.8971 163.28L50.7813 162.812ZM50.7813 197.125L49.8962 196.659L49.8947 196.662L50.7813 197.125ZM40 208.156L39.5203 207.279L39.5187 207.28L40 208.156ZM14.0938 200.406H13.0938V201.406H14.0938V200.406ZM32.7812 198.281L33.242 199.169L33.2445 199.167L32.7812 198.281ZM38.9688 191.625L38.061 191.206L38.0597 191.208L38.9688 191.625ZM38.9688 168.344L38.0597 168.76L38.0621 168.766L38.9688 168.344ZM32.8125 161.719L33.2732 160.831V160.831L32.8125 161.719ZM14.0938 159.594V158.594H13.0938V159.594H14.0938ZM23.25 211H0.5625V213H23.25V211ZM1.5625 212V148H-0.4375V212H1.5625ZM0.5625 149H23.4375V147H0.5625V149ZM23.4375 149C29.7419 149 35.1101 150.254 39.5795 152.719L40.5455 150.968C35.7233 148.308 30.0081 147 23.4375 147V149ZM39.5825 152.721C44.0522 155.166 47.4854 158.677 49.8955 163.277L51.667 162.348C49.0771 157.406 45.3645 153.605 40.5425 150.966L39.5825 152.721ZM49.8971 163.28C52.3262 167.877 53.5625 173.417 53.5625 179.938H55.5625C55.5625 173.166 54.278 167.29 51.6654 162.345L49.8971 163.28ZM53.5625 179.938C53.5625 186.479 52.326 192.041 49.8963 196.659L51.6663 197.591C54.2781 192.626 55.5625 186.729 55.5625 179.938H53.5625ZM49.8947 196.662C47.4851 201.281 44.032 204.812 39.5203 207.279L40.4797 209.034C45.343 206.375 49.0774 202.553 51.6678 197.588L49.8947 196.662ZM39.5187 207.28C35.0288 209.745 29.6186 211 23.25 211V213C29.8814 213 35.6379 211.692 40.4813 209.033L39.5187 207.28ZM14.0938 201.406H22.6875V199.406H14.0938V201.406ZM22.6875 201.406C26.8012 201.406 30.3341 200.678 33.242 199.169L32.3205 197.394C29.77 198.718 26.5738 199.406 22.6875 199.406V201.406ZM33.2445 199.167C36.204 197.62 38.4167 195.23 39.8778 192.042L38.0597 191.208C36.7708 194.02 34.8585 196.067 32.318 197.395L33.2445 199.167ZM39.8765 192.044C41.3535 188.848 42.0625 184.795 42.0625 179.938H40.0625C40.0625 184.622 39.3756 188.36 38.061 191.206L39.8765 192.044ZM42.0625 179.938C42.0625 175.121 41.3532 171.098 39.8754 167.922L38.0621 168.766C39.3759 171.589 40.0625 175.296 40.0625 179.938H42.0625ZM39.8778 167.927C38.4173 164.74 36.215 162.358 33.2732 160.831L32.3518 162.606C34.8683 163.913 36.7703 165.947 38.0597 168.76L39.8778 167.927ZM33.2732 160.831C30.3654 159.322 26.8325 158.594 22.7188 158.594V160.594C26.605 160.594 29.8013 161.282 32.3518 162.606L33.2732 160.831ZM22.7188 158.594H14.0938V160.594H22.7188V158.594ZM13.0938 159.594V200.406H15.0938V159.594H13.0938ZM78.1172 148H79.1172V147H78.1172V148ZM78.1172 212V213H79.1172V212H78.1172ZM64.5859 212H63.5859V213H64.5859V212ZM64.5859 148V147H63.5859V148H64.5859ZM77.1172 148V212H79.1172V148H77.1172ZM78.1172 211H64.5859V213H78.1172V211ZM65.5859 212V148H63.5859V212H65.5859ZM64.5859 149H78.1172V147H64.5859V149ZM123.969 166.406L122.974 166.505L123.063 167.406H123.969V166.406ZM107.438 159.375L107.807 160.304L107.818 160.3L107.438 159.375ZM103.938 161.906L103.137 161.306L103.13 161.316L103.938 161.906ZM102.75 165.594L103.749 165.63L103.75 165.612V165.594H102.75ZM103.469 168.594L102.615 169.114L102.62 169.122L102.624 169.129L103.469 168.594ZM105.688 170.812L105.133 171.645L105.139 171.649L105.146 171.653L105.688 170.812ZM108.938 172.406L108.588 173.343L108.595 173.346L108.602 173.348L108.938 172.406ZM112.875 173.531L113.108 172.559L113.101 172.557L113.093 172.555L112.875 173.531ZM118.625 174.906L118.392 175.879L118.399 175.881L118.407 175.882L118.625 174.906ZM126.312 177.406L125.905 178.319L126.312 177.406ZM132.375 181.25L133.04 180.503L132.375 181.25ZM136.344 186.625L135.433 187.039L135.437 187.046L136.344 186.625ZM137.812 193.719L138.813 193.724L138.812 193.711L137.812 193.719ZM134.812 203.906L133.989 203.339L133.988 203.34L134.812 203.906ZM126.312 210.562L126.703 211.483L126.705 211.482L126.312 210.562ZM99.4688 210.531L99.0852 211.455L99.087 211.456L99.4688 210.531ZM90.5312 203.5L89.7043 204.062L89.7087 204.069L90.5312 203.5ZM87.1875 191.906V190.906H86.1646L86.1878 191.929L87.1875 191.906ZM100.281 191.906L101.279 191.838L101.216 190.906H100.281V191.906ZM102.125 197.281L101.326 197.883L101.331 197.89L101.336 197.896L102.125 197.281ZM106.531 200.5L106.162 201.429L106.174 201.434L106.531 200.5ZM118.781 200.562L118.418 199.631L118.414 199.632L118.781 200.562ZM122.75 197.781L123.535 198.401L122.75 197.781ZM122.875 190.062L122.113 190.711L122.121 190.72L122.875 190.062ZM119.188 187.562L118.794 188.482L118.798 188.483L119.188 187.562ZM113.281 185.688L113.038 186.657L113.047 186.66L113.281 185.688ZM106.312 183.938L106.556 182.968L106.549 182.966L106.312 183.938ZM93.5312 177.781L92.865 178.527L93.5312 177.781ZM88.875 166.5L89.875 166.504L89.875 166.495L88.875 166.5ZM91.9688 156.344L91.1598 155.756L91.157 155.76L91.9688 156.344ZM100.625 149.562L100.22 148.648L100.625 149.562ZM125.562 149.562L125.145 150.471L125.147 150.472L125.562 149.562ZM133.875 156.344L133.049 156.908L133.875 156.344ZM136.938 166.406V167.406H137.954L137.937 166.39L136.938 166.406ZM124.964 166.308C124.688 163.529 123.486 161.304 121.343 159.726L120.157 161.337C121.806 162.551 122.749 164.242 122.974 166.505L124.964 166.308ZM121.343 159.726C119.221 158.164 116.415 157.437 113.031 157.437V159.437C116.147 159.437 118.488 160.107 120.157 161.337L121.343 159.726ZM113.031 157.437C110.735 157.437 108.732 157.762 107.057 158.45L107.818 160.3C109.184 159.738 110.911 159.437 113.031 159.437V157.437ZM107.068 158.446C105.412 159.104 104.082 160.047 103.138 161.306L104.738 162.506C105.418 161.598 106.421 160.855 107.807 160.304L107.068 158.446ZM103.13 161.316C102.21 162.575 101.75 164.012 101.75 165.594H103.75C103.75 164.425 104.082 163.404 104.745 162.496L103.13 161.316ZM101.751 165.557C101.703 166.87 101.978 168.069 102.615 169.114L104.323 168.073C103.918 167.41 103.714 166.609 103.749 165.63L101.751 165.557ZM102.624 169.129C103.249 170.114 104.092 170.951 105.133 171.645L106.242 169.98C105.408 169.424 104.772 168.782 104.313 168.058L102.624 169.129ZM105.146 171.653C106.153 172.302 107.303 172.864 108.588 173.343L109.287 171.469C108.114 171.032 107.097 170.531 106.229 169.972L105.146 171.653ZM108.602 173.348C109.873 173.801 111.225 174.187 112.657 174.507L113.093 172.555C111.734 172.251 110.46 171.887 109.273 171.464L108.602 173.348ZM112.642 174.504L118.392 175.879L118.858 173.934L113.108 172.559L112.642 174.504ZM118.407 175.882C121.141 176.494 123.639 177.308 125.905 178.319L126.72 176.493C124.319 175.421 121.693 174.568 118.843 173.93L118.407 175.882ZM125.905 178.319C128.155 179.324 130.087 180.552 131.71 181.997L133.04 180.503C131.246 178.906 129.136 177.572 126.72 176.493L125.905 178.319ZM131.71 181.997C133.315 183.426 134.554 185.104 135.433 187.039L137.254 186.211C136.258 184.021 134.851 182.116 133.04 180.503L131.71 181.997ZM135.437 187.046C136.325 188.959 136.793 191.178 136.813 193.727L138.812 193.711C138.791 190.926 138.279 188.416 137.251 186.204L135.437 187.046ZM136.813 193.713C136.793 197.455 135.841 200.649 133.989 203.339L135.636 204.473C137.743 201.413 138.791 197.816 138.812 193.724L136.813 193.713ZM133.988 203.34C132.154 206.014 129.483 208.122 125.92 209.643L126.705 211.482C130.559 209.837 133.555 207.507 135.637 204.472L133.988 203.34ZM125.922 209.642C122.389 211.139 118.081 211.906 112.969 211.906V213.906C118.273 213.906 122.861 213.111 126.703 211.483L125.922 209.642ZM112.969 211.906C107.902 211.906 103.537 211.13 99.8505 209.607L99.087 211.456C103.067 213.099 107.702 213.906 112.969 213.906V211.906ZM99.8523 209.608C96.1999 208.091 93.3802 205.863 91.3538 202.931L89.7087 204.069C91.9739 207.346 95.1126 209.805 99.0852 211.455L99.8523 209.608ZM91.3582 202.938C89.3633 200.004 88.288 196.337 88.1872 191.884L86.1878 191.929C86.2953 196.683 87.4492 200.746 89.7043 204.062L91.3582 202.938ZM87.1875 192.906H100.281V190.906H87.1875V192.906ZM99.2836 191.974C99.4399 194.275 100.105 196.263 101.326 197.883L102.924 196.679C101.978 195.425 101.414 193.829 101.279 191.838L99.2836 191.974ZM101.336 197.896C102.56 199.466 104.18 200.641 106.162 201.429L106.901 199.571C105.216 198.901 103.898 197.929 102.914 196.667L101.336 197.896ZM106.174 201.434C108.161 202.193 110.378 202.562 112.812 202.562V200.562C110.58 200.562 108.61 200.224 106.888 199.566L106.174 201.434ZM112.812 202.562C115.198 202.562 117.318 202.216 119.149 201.493L118.414 199.632C116.87 200.243 115.01 200.562 112.812 200.562V202.562ZM119.145 201.494C120.984 200.776 122.466 199.755 123.535 198.401L121.965 197.162C121.159 198.183 119.995 199.015 118.418 199.631L119.145 201.494ZM123.535 198.401C124.615 197.033 125.156 195.449 125.156 193.688H123.156C123.156 195.009 122.76 196.154 121.965 197.162L123.535 198.401ZM125.156 193.688C125.156 192.036 124.659 190.586 123.629 189.405L122.121 190.72C122.799 191.497 123.156 192.464 123.156 193.688H125.156ZM123.637 189.414C122.672 188.281 121.295 187.368 119.577 186.642L118.798 188.483C120.33 189.132 121.412 189.886 122.113 190.711L123.637 189.414ZM119.581 186.643C117.911 185.927 115.885 185.286 113.516 184.715L113.047 186.66C115.344 187.214 117.256 187.823 118.794 188.482L119.581 186.643ZM113.525 184.718L106.556 182.968L106.069 184.907L113.038 186.657L113.525 184.718ZM106.549 182.966C101.263 181.68 97.1666 179.688 94.1975 177.035L92.865 178.527C96.1459 181.458 100.571 183.57 106.076 184.909L106.549 182.966ZM94.1975 177.035C91.3147 174.46 89.8552 170.988 89.875 166.504L87.875 166.496C87.8531 171.47 89.4978 175.519 92.865 178.527L94.1975 177.035ZM89.875 166.495C89.8552 162.812 90.8314 159.637 92.7805 156.928L91.157 155.76C88.9394 158.842 87.8531 162.438 87.875 166.505L89.875 166.495ZM92.7777 156.932C94.7663 154.195 97.5047 152.039 101.03 150.477L100.22 148.648C96.412 150.336 93.3795 152.701 91.1598 155.756L92.7777 156.932ZM101.03 150.477C104.55 148.917 108.575 148.125 113.125 148.125V146.125C108.341 146.125 104.033 146.958 100.22 148.648L101.03 150.477ZM113.125 148.125C117.762 148.125 121.76 148.918 125.145 150.471L125.98 148.654C122.282 146.957 117.988 146.125 113.125 146.125V148.125ZM125.147 150.472C128.564 152.031 131.185 154.18 133.049 156.908L134.701 155.779C132.607 152.716 129.686 150.344 125.978 148.653L125.147 150.472ZM133.049 156.908C134.908 159.628 135.878 162.788 135.938 166.423L137.937 166.39C137.872 162.399 136.8 158.851 134.701 155.779L133.049 156.908ZM136.938 165.406H123.969V167.406H136.938V165.406ZM146.914 212H145.914V213H146.914V212ZM146.914 148V147H145.914V148H146.914ZM184.539 150.594L184.087 151.486L184.094 151.489L184.539 150.594ZM192.383 157.875L191.514 158.37L191.518 158.377L192.383 157.875ZM192.352 179.875L193.208 180.391L193.21 180.389L192.352 179.875ZM184.383 186.875L183.96 185.969L183.958 185.97L184.383 186.875ZM154.914 189.312H153.914V190.312H154.914V189.312ZM154.914 178.438V177.438H153.914V178.438H154.914ZM176.07 177.375L176.453 178.299L176.07 177.375ZM179.883 174.188L179.026 173.671L179.021 173.68L179.883 174.188ZM179.883 163.531L179.015 164.027L179.02 164.037L179.883 163.531ZM176.039 160.219L175.628 161.13L175.634 161.133L175.641 161.136L176.039 160.219ZM160.445 159.062V158.062H159.445V159.062H160.445ZM160.445 212V213H161.445V212H160.445ZM181.477 182.875L182.354 182.396L182.07 181.875H181.477V182.875ZM197.383 212V213H199.068L198.26 211.521L197.383 212ZM182.445 212L181.563 212.471L181.846 213H182.445V212ZM166.883 182.875V181.875H165.215L166.001 183.346L166.883 182.875ZM147.914 212V148H145.914V212H147.914ZM146.914 149H172.164V147H146.914V149ZM172.164 149C176.881 149 180.843 149.844 184.088 151.486L184.991 149.702C181.402 147.885 177.114 147 172.164 147V149ZM184.094 151.489C187.365 153.115 189.827 155.407 191.514 158.37L193.252 157.38C191.356 154.051 188.588 151.489 184.984 149.698L184.094 151.489ZM191.518 158.377C193.228 161.325 194.102 164.823 194.102 168.906H196.102C196.102 164.531 195.163 160.675 193.248 157.373L191.518 158.377ZM194.102 168.906C194.102 173.01 193.218 176.481 191.494 179.361L193.21 180.389C195.152 177.144 196.102 173.302 196.102 168.906H194.102ZM191.495 179.359C189.773 182.216 187.274 184.421 183.96 185.969L184.806 187.781C188.45 186.079 191.264 183.617 193.208 180.391L191.495 179.359ZM183.958 185.97C180.665 187.517 176.631 188.312 171.82 188.312V190.312C176.843 190.312 181.184 189.483 184.808 187.78L183.958 185.97ZM171.82 188.312H154.914V190.312H171.82V188.312ZM155.914 189.312V178.438H153.914V189.312H155.914ZM154.914 179.438H169.633V177.438H154.914V179.438ZM169.633 179.438C172.299 179.438 174.586 179.073 176.453 178.299L175.687 176.451C174.138 177.094 172.133 177.438 169.633 177.438V179.438ZM176.453 178.299C178.336 177.518 179.788 176.322 180.745 174.695L179.021 173.68C178.311 174.887 177.221 175.815 175.687 176.451L176.453 178.299ZM180.739 174.704C181.71 173.094 182.164 171.144 182.164 168.906H180.164C180.164 170.877 179.764 172.447 179.026 173.671L180.739 174.704ZM182.164 168.906C182.164 166.649 181.71 164.672 180.746 163.026L179.02 164.037C179.764 165.307 180.164 166.914 180.164 168.906H182.164ZM180.751 163.035C179.798 161.367 178.339 160.126 176.437 159.301L175.641 161.136C177.198 161.811 178.301 162.779 179.015 164.027L180.751 163.035ZM176.45 159.307C174.573 158.46 172.265 158.062 169.57 158.062V160.062C172.084 160.062 174.089 160.436 175.628 161.13L176.45 159.307ZM169.57 158.062H160.445V160.062H169.57V158.062ZM159.445 159.062V212H161.445V159.062H159.445ZM160.445 211H146.914V213H160.445V211ZM180.599 183.354L196.505 212.479L198.26 211.521L182.354 182.396L180.599 183.354ZM197.383 211H182.445V213H197.383V211ZM183.327 211.529L167.765 182.404L166.001 183.346L181.563 212.471L183.327 211.529ZM166.883 183.875H181.477V181.875H166.883V183.875ZM244.195 148V147H243.195V148H244.195ZM257.727 148H258.727V147H257.727V148ZM254.383 201.812L253.539 201.275L253.537 201.279L254.383 201.812ZM245.102 210L245.539 210.899L245.543 210.897L245.102 210ZM217.258 210L216.816 210.897L216.82 210.899L217.258 210ZM207.977 201.812L207.131 202.346L207.977 201.812ZM204.664 148V147H203.664V148H204.664ZM218.195 148H219.195V147H218.195V148ZM219.789 194.906L218.917 195.395L218.921 195.402L219.789 194.906ZM224.352 199.375L223.867 200.25L223.868 200.25L224.352 199.375ZM238.039 199.375L237.555 198.5L237.551 198.502L238.039 199.375ZM242.57 194.906L241.702 194.41L241.698 194.417L242.57 194.906ZM244.195 149H257.727V147H244.195V149ZM256.727 148V189.562H258.727V148H256.727ZM256.727 189.562C256.727 194.063 255.654 197.955 253.539 201.275L255.226 202.35C257.57 198.67 258.727 194.395 258.727 189.562H256.727ZM253.537 201.279C251.434 204.611 248.486 207.22 244.66 209.103L245.543 210.897C249.676 208.863 252.915 206.014 255.229 202.346L253.537 201.279ZM244.664 209.101C240.845 210.96 236.365 211.906 231.195 211.906V213.906C236.609 213.906 241.4 212.915 245.539 210.899L244.664 209.101ZM231.195 211.906C226.004 211.906 221.514 210.96 217.696 209.101L216.82 210.899C220.96 212.915 225.761 213.906 231.195 213.906V211.906ZM217.699 209.103C213.874 207.22 210.925 204.611 208.822 201.279L207.131 202.346C209.445 206.014 212.684 208.863 216.816 210.897L217.699 209.103ZM208.822 201.279C206.727 197.958 205.664 194.065 205.664 189.562H203.664C203.664 194.393 204.809 198.667 207.131 202.346L208.822 201.279ZM205.664 189.562V148H203.664V189.562H205.664ZM204.664 149H218.195V147H204.664V149ZM217.195 148V188.406H219.195V148H217.195ZM217.195 188.406C217.195 190.994 217.761 193.332 218.917 195.395L220.661 194.417C219.692 192.688 219.195 190.694 219.195 188.406H217.195ZM218.921 195.402C220.097 197.461 221.753 199.08 223.867 200.25L224.836 198.5C223.033 197.503 221.647 196.143 220.657 194.41L218.921 195.402ZM223.868 200.25C225.997 201.428 228.45 202 231.195 202V200C228.733 200 226.623 199.489 224.836 198.5L223.868 200.25ZM231.195 202C233.96 202 236.415 201.429 238.527 200.248L237.551 198.502C235.788 199.488 233.681 200 231.195 200V202ZM238.523 200.25C240.639 199.079 242.286 197.458 243.443 195.395L241.698 194.417C240.729 196.146 239.356 197.504 237.555 198.5L238.523 200.25ZM243.439 195.402C244.618 193.338 245.195 190.997 245.195 188.406H243.195C243.195 190.69 242.689 192.682 241.702 194.41L243.439 195.402ZM245.195 188.406V148H243.195V188.406H245.195ZM268.859 212H267.859V213H268.859V212ZM268.859 148V147H267.859V148H268.859ZM306.516 150.781L306.039 151.66L306.043 151.662L306.516 150.781ZM314.328 158.437L313.451 158.918L313.455 158.925L314.328 158.437ZM306.328 188.531L305.866 187.644L305.864 187.646L306.328 188.531ZM277.672 191.25H276.672V192.25H277.672V191.25ZM277.672 180.406V179.406H276.672V180.406H277.672ZM298.016 179.062L298.485 179.946L298.488 179.944L298.016 179.062ZM301.828 175.281L300.943 174.816L300.941 174.82L301.828 175.281ZM301.828 164.125L300.941 164.586L300.944 164.593L300.948 164.6L301.828 164.125ZM298.016 160.406L297.551 161.292L297.56 161.296L298.016 160.406ZM282.391 159.062V158.062H281.391V159.062H282.391ZM282.391 212V213H283.391V212H282.391ZM269.859 212V148H267.859V212H269.859ZM268.859 149H294.109V147H268.859V149ZM294.109 149C298.838 149 302.8 149.903 306.039 151.66L306.993 149.902C303.397 147.951 299.089 147 294.109 147V149ZM306.043 151.662C309.296 153.408 311.756 155.824 313.451 158.918L315.205 157.957C313.317 154.509 310.569 151.821 306.988 149.9L306.043 151.662ZM313.455 158.925C315.173 162.006 316.047 165.583 316.047 169.688H318.047C318.047 165.292 317.108 161.369 315.201 157.95L313.455 158.925ZM316.047 169.688C316.047 173.79 315.163 177.366 313.426 180.446L315.168 181.429C317.097 178.009 318.047 174.085 318.047 169.688H316.047ZM313.426 180.446C311.693 183.519 309.183 185.917 305.866 187.644L306.79 189.418C310.432 187.521 313.234 184.856 315.168 181.429L313.426 180.446ZM305.864 187.646C302.581 189.366 298.562 190.25 293.766 190.25V192.25C298.803 192.25 303.158 191.322 306.792 189.417L305.864 187.646ZM293.766 190.25H277.672V192.25H293.766V190.25ZM278.672 191.25V180.406H276.672V191.25H278.672ZM277.672 181.406H291.578V179.406H277.672V181.406ZM291.578 181.406C294.289 181.406 296.61 180.941 298.485 179.946L297.547 178.179C296.046 178.976 294.075 179.406 291.578 179.406V181.406ZM298.488 179.944C300.361 178.939 301.783 177.538 302.716 175.742L300.941 174.82C300.207 176.233 299.087 177.353 297.543 178.181L298.488 179.944ZM302.713 175.747C303.653 173.958 304.109 171.93 304.109 169.688H302.109C302.109 171.653 301.711 173.354 300.943 174.816L302.713 175.747ZM304.109 169.688C304.109 167.427 303.654 165.404 302.708 163.65L300.948 164.6C301.71 166.013 302.109 167.698 302.109 169.688H304.109ZM302.716 163.664C301.78 161.864 300.353 160.48 298.471 159.516L297.56 161.296C299.095 162.083 300.209 163.178 300.941 164.586L302.716 163.664ZM298.48 159.521C296.586 158.528 294.247 158.062 291.516 158.062V160.062C294.034 160.062 296.028 160.493 297.551 161.292L298.48 159.521ZM291.516 158.062H282.391V160.062H291.516V158.062ZM281.391 159.062V212H283.391V159.062H281.391ZM282.391 211H268.859V213H282.391V211ZM323.398 159.156H322.398V160.156H323.398V159.156ZM323.398 148V147H322.398V148H323.398ZM375.961 148H376.961V147H375.961V148ZM375.961 159.156V160.156H376.961V159.156H375.961ZM356.367 159.156V158.156H355.367V159.156H356.367ZM356.367 212V213H357.367V212H356.367ZM342.992 212H341.992V213H342.992V212ZM342.992 159.156H343.992V158.156H342.992V159.156ZM324.398 159.156V148H322.398V159.156H324.398ZM323.398 149H375.961V147H323.398V149ZM374.961 148V159.156H376.961V148H374.961ZM375.961 158.156H356.367V160.156H375.961V158.156ZM355.367 159.156V212H357.367V159.156H355.367ZM356.367 211H342.992V213H356.367V211ZM343.992 212V159.156H341.992V212H343.992ZM342.992 158.156H323.398V160.156H342.992V158.156Z"
        fill="#F7F7F7" mask="url(#path-3-outside-2_451_2797)" />
    <mask id="path-5-outside-3_451_2797" maskUnits="userSpaceOnUse" x="164" y="287" width="342"
        height="68" fill="black">
        <rect fill="white" x="164" y="287" width="342" height="68" />
        <path
            d="M223.031 311.406H209.344C209.094 309.635 208.583 308.062 207.813 306.687C207.042 305.292 206.052 304.104 204.844 303.125C203.635 302.146 202.24 301.396 200.656 300.875C199.094 300.354 197.396 300.094 195.563 300.094C192.25 300.094 189.365 300.917 186.906 302.562C184.448 304.187 182.542 306.562 181.188 309.688C179.833 312.792 179.156 316.562 179.156 321C179.156 325.562 179.833 329.396 181.188 332.5C182.563 335.604 184.479 337.948 186.938 339.531C189.396 341.115 192.24 341.906 195.469 341.906C197.281 341.906 198.958 341.667 200.5 341.188C202.063 340.708 203.448 340.01 204.656 339.094C205.865 338.156 206.865 337.021 207.656 335.688C208.469 334.354 209.031 332.833 209.344 331.125L223.031 331.187C222.677 334.125 221.792 336.958 220.375 339.688C218.979 342.396 217.094 344.823 214.719 346.969C212.365 349.094 209.552 350.781 206.281 352.031C203.031 353.26 199.354 353.875 195.25 353.875C189.542 353.875 184.438 352.583 179.938 350C175.458 347.417 171.917 343.677 169.313 338.781C166.729 333.885 165.438 327.958 165.438 321C165.438 314.021 166.75 308.083 169.375 303.188C172 298.292 175.563 294.562 180.063 292C184.563 289.417 189.625 288.125 195.25 288.125C198.958 288.125 202.396 288.646 205.563 289.687C208.75 290.729 211.573 292.25 214.031 294.25C216.49 296.229 218.49 298.656 220.031 301.531C221.594 304.406 222.594 307.698 223.031 311.406ZM232.734 353V289H257.984C262.818 289 266.943 289.865 270.359 291.594C273.797 293.302 276.412 295.729 278.203 298.875C280.016 302 280.922 305.677 280.922 309.906C280.922 314.156 280.005 317.812 278.172 320.875C276.339 323.917 273.682 326.25 270.203 327.875C266.745 329.5 262.557 330.312 257.641 330.312H240.734V319.437H255.453C258.037 319.437 260.182 319.083 261.891 318.375C263.599 317.667 264.87 316.604 265.703 315.188C266.557 313.771 266.984 312.01 266.984 309.906C266.984 307.781 266.557 305.99 265.703 304.531C264.87 303.073 263.589 301.969 261.859 301.219C260.151 300.448 257.995 300.062 255.391 300.062H246.266V353H232.734ZM267.297 323.875L283.203 353H268.266L252.703 323.875H267.297ZM290.484 353V289H333.609V300.156H304.016V315.406H331.391V326.562H304.016V341.844H333.734V353H290.484ZM355.398 353H340.898L362.992 289H380.43L402.492 353H387.992L371.961 303.625H371.461L355.398 353ZM354.492 327.844H388.742V338.406H354.492V327.844ZM399.938 300.156V289H452.5V300.156H432.906V353H419.531V300.156H399.938ZM461.156 353V289H504.281V300.156H474.688V315.406H502.063V326.562H474.688V341.844H504.406V353H461.156Z" />
    </mask>
    <path
        d="M223.031 311.406V312.406H224.156L224.024 311.289L223.031 311.406ZM209.344 311.406L208.354 311.546L208.475 312.406H209.344V311.406ZM207.813 306.687L206.937 307.171L206.94 307.177L207.813 306.687ZM204.844 303.125L204.214 303.902H204.214L204.844 303.125ZM200.656 300.875L200.34 301.824L200.344 301.825L200.656 300.875ZM186.906 302.562L187.458 303.397L187.463 303.393L186.906 302.562ZM181.188 309.688L182.104 310.087L182.105 310.085L181.188 309.688ZM181.188 332.5L180.271 332.9L180.273 332.905L181.188 332.5ZM186.938 339.531L186.396 340.372L186.938 339.531ZM200.5 341.188L200.207 340.231L200.203 340.233L200.5 341.188ZM204.656 339.094L205.261 339.89L205.269 339.884L204.656 339.094ZM207.656 335.688L206.802 335.167L206.796 335.177L207.656 335.688ZM209.344 331.125L209.348 330.125L208.511 330.121L208.36 330.945L209.344 331.125ZM223.031 331.188L224.024 331.307L224.159 330.193L223.036 330.188L223.031 331.188ZM220.375 339.688L219.488 339.227L219.486 339.229L220.375 339.688ZM214.719 346.969L215.389 347.711L215.389 347.711L214.719 346.969ZM206.281 352.031L206.635 352.967L206.638 352.965L206.281 352.031ZM179.938 350L179.438 350.866L179.44 350.867L179.938 350ZM169.313 338.781L168.428 339.248L168.43 339.251L169.313 338.781ZM169.375 303.188L170.256 303.66L169.375 303.188ZM180.063 292L180.557 292.869L180.56 292.867L180.063 292ZM205.563 289.688L205.25 290.637L205.252 290.638L205.563 289.688ZM214.031 294.25L213.4 295.026L213.404 295.029L214.031 294.25ZM220.031 301.531L219.15 302.004L219.153 302.009L220.031 301.531ZM223.031 310.406H209.344V312.406H223.031V310.406ZM210.334 311.266C210.069 309.389 209.524 307.695 208.685 306.198L206.94 307.177C207.643 308.43 208.119 309.882 208.354 311.546L210.334 311.266ZM208.688 306.204C207.856 304.698 206.784 303.41 205.473 302.348L204.214 303.902C205.32 304.798 206.227 305.885 206.937 307.171L208.688 306.204ZM205.473 302.348C204.164 301.287 202.659 300.481 200.969 299.925L200.344 301.825C201.82 302.311 203.107 303.005 204.214 303.902L205.473 302.348ZM200.973 299.926C199.297 299.368 197.491 299.094 195.563 299.094V301.094C197.3 301.094 198.89 301.34 200.34 301.824L200.973 299.926ZM195.563 299.094C192.077 299.094 188.992 299.963 186.35 301.732L187.463 303.393C189.737 301.871 192.424 301.094 195.563 301.094V299.094ZM186.355 301.728C183.711 303.476 181.689 306.015 180.27 309.29L182.105 310.085C183.394 307.11 185.185 304.899 187.458 303.397L186.355 301.728ZM180.271 309.288C178.848 312.551 178.156 316.466 178.156 321H180.156C180.156 316.659 180.819 313.033 182.104 310.087L180.271 309.288ZM178.156 321C178.156 325.655 178.846 329.634 180.271 332.9L182.104 332.1C180.821 329.158 180.156 325.47 180.156 321H178.156ZM180.273 332.905C181.714 336.158 183.748 338.667 186.396 340.372L187.479 338.691C185.21 337.229 183.411 335.05 182.102 332.095L180.273 332.905ZM186.396 340.372C189.032 342.07 192.068 342.906 195.469 342.906V340.906C192.411 340.906 189.759 340.159 187.479 338.691L186.396 340.372ZM195.469 342.906C197.37 342.906 199.148 342.655 200.797 342.142L200.203 340.233C198.769 340.678 197.193 340.906 195.469 340.906V342.906ZM200.793 342.144C202.459 341.633 203.952 340.883 205.261 339.89L204.052 338.297C202.944 339.137 201.666 339.784 200.207 340.231L200.793 342.144ZM205.269 339.884C206.578 338.868 207.661 337.638 208.516 336.198L206.796 335.177C206.068 336.404 205.151 337.444 204.043 338.304L205.269 339.884ZM208.51 336.208C209.393 334.759 209.995 333.12 210.327 331.305L208.36 330.945C208.067 332.546 207.544 333.949 206.802 335.167L208.51 336.208ZM209.339 332.125L223.027 332.187L223.036 330.188L209.348 330.125L209.339 332.125ZM222.039 331.068C221.699 333.882 220.851 336.6 219.488 339.227L221.263 340.148C222.732 337.317 223.655 334.368 224.024 331.307L222.039 331.068ZM219.486 339.229C218.148 341.825 216.339 344.157 214.048 346.227L215.389 347.711C217.849 345.488 219.81 342.966 221.264 340.146L219.486 339.229ZM214.049 346.226C211.795 348.261 209.092 349.887 205.924 351.097L206.638 352.965C210.012 351.676 212.934 349.927 215.389 347.711L214.049 346.226ZM205.928 351.096C202.809 352.275 199.255 352.875 195.25 352.875V354.875C199.454 354.875 203.254 354.245 206.635 352.967L205.928 351.096ZM195.25 352.875C189.698 352.875 184.769 351.621 180.435 349.133L179.44 350.867C184.106 353.546 189.385 354.875 195.25 354.875V352.875ZM180.437 349.134C176.132 346.651 172.718 343.054 170.195 338.312L168.43 339.251C171.115 344.3 174.785 348.182 179.438 350.866L180.437 349.134ZM170.197 338.315C167.707 333.595 166.438 327.837 166.438 321H164.438C164.438 328.08 165.752 334.176 168.428 339.248L170.197 338.315ZM166.438 321C166.438 314.144 167.727 308.378 170.256 303.66L168.494 302.715C165.773 307.789 164.438 313.897 164.438 321H166.438ZM170.256 303.66C172.799 298.918 176.233 295.332 180.557 292.869L179.568 291.131C174.892 293.793 171.201 297.666 168.494 302.715L170.256 303.66ZM180.56 292.867C184.896 290.378 189.785 289.125 195.25 289.125V287.125C189.465 287.125 184.229 288.455 179.565 291.133L180.56 292.867ZM195.25 289.125C198.864 289.125 202.195 289.632 205.25 290.637L205.875 288.738C202.597 287.659 199.053 287.125 195.25 287.125V289.125ZM205.252 290.638C208.33 291.644 211.043 293.108 213.4 295.026L214.662 293.474C212.103 291.392 209.17 289.815 205.873 288.737L205.252 290.638ZM213.404 295.029C215.755 296.921 217.67 299.243 219.15 302.004L220.913 301.059C219.31 298.07 217.225 295.537 214.658 293.471L213.404 295.029ZM219.153 302.009C220.646 304.757 221.614 307.924 222.038 311.523L224.024 311.289C223.574 307.472 222.541 304.055 220.91 301.054L219.153 302.009ZM232.734 353H231.734V354H232.734V353ZM232.734 289V288H231.734V289H232.734ZM270.359 291.594L269.908 292.486L269.914 292.489L270.359 291.594ZM278.203 298.875L277.334 299.37L277.338 299.377L278.203 298.875ZM278.172 320.875L279.028 321.391L279.03 321.389L278.172 320.875ZM270.203 327.875L269.78 326.969L269.778 326.97L270.203 327.875ZM240.734 330.312H239.734V331.312H240.734V330.312ZM240.734 319.438V318.438H239.734V319.438H240.734ZM261.891 318.375L262.274 319.299H262.274L261.891 318.375ZM265.703 315.188L264.847 314.671L264.841 314.68L265.703 315.188ZM265.703 304.531L264.835 305.027L264.84 305.037L265.703 304.531ZM261.859 301.219L261.448 302.13L261.455 302.133L261.462 302.136L261.859 301.219ZM246.266 300.062V299.062H245.266V300.062H246.266ZM246.266 353V354H247.266V353H246.266ZM267.297 323.875L268.175 323.396L267.89 322.875H267.297V323.875ZM283.203 353V354H284.889L284.081 352.521L283.203 353ZM268.266 353L267.384 353.471L267.666 354H268.266V353ZM252.703 323.875V322.875H251.035L251.821 324.346L252.703 323.875ZM233.734 353V289H231.734V353H233.734ZM232.734 290H257.984V288H232.734V290ZM257.984 290C262.701 290 266.663 290.844 269.908 292.486L270.811 290.702C267.222 288.885 262.935 288 257.984 288V290ZM269.914 292.489C273.185 294.115 275.647 296.407 277.334 299.37L279.072 298.38C277.176 295.051 274.409 292.489 270.804 290.698L269.914 292.489ZM277.338 299.377C279.048 302.325 279.922 305.823 279.922 309.906H281.922C281.922 305.531 280.983 301.675 279.068 298.373L277.338 299.377ZM279.922 309.906C279.922 314.01 279.038 317.481 277.314 320.361L279.03 321.389C280.973 318.144 281.922 314.302 281.922 309.906H279.922ZM277.315 320.359C275.593 323.216 273.095 325.421 269.78 326.969L270.626 328.781C274.27 327.079 277.084 324.617 279.028 321.391L277.315 320.359ZM269.778 326.97C266.485 328.517 262.451 329.312 257.641 329.312V331.312C262.664 331.312 267.005 330.483 270.628 328.78L269.778 326.97ZM257.641 329.312H240.734V331.312H257.641V329.312ZM241.734 330.312V319.438H239.734V330.312H241.734ZM240.734 320.438H255.453V318.438H240.734V320.438ZM255.453 320.438C258.119 320.438 260.406 320.073 262.274 319.299L261.508 317.451C259.959 318.094 257.954 318.438 255.453 318.438V320.438ZM262.274 319.299C264.156 318.518 265.608 317.322 266.565 315.695L264.841 314.68C264.132 315.887 263.042 316.815 261.508 317.451L262.274 319.299ZM266.56 315.704C267.53 314.094 267.984 312.144 267.984 309.906H265.984C265.984 311.877 265.585 313.447 264.847 314.671L266.56 315.704ZM267.984 309.906C267.984 307.649 267.53 305.672 266.566 304.026L264.84 305.037C265.584 306.307 265.984 307.914 265.984 309.906H267.984ZM266.571 304.035C265.618 302.367 264.159 301.126 262.257 300.301L261.462 302.136C263.018 302.811 264.122 303.779 264.835 305.027L266.571 304.035ZM262.271 300.307C260.393 299.46 258.085 299.062 255.391 299.062V301.062C257.905 301.062 259.909 301.436 261.448 302.13L262.271 300.307ZM255.391 299.062H246.266V301.062H255.391V299.062ZM245.266 300.062V353H247.266V300.062H245.266ZM246.266 352H232.734V354H246.266V352ZM266.419 324.354L282.326 353.479L284.081 352.521L268.175 323.396L266.419 324.354ZM283.203 352H268.266V354H283.203V352ZM269.148 352.529L253.585 323.404L251.821 324.346L267.384 353.471L269.148 352.529ZM252.703 324.875H267.297V322.875H252.703V324.875ZM290.484 353H289.484V354H290.484V353ZM290.484 289V288H289.484V289H290.484ZM333.609 289H334.609V288H333.609V289ZM333.609 300.156V301.156H334.609V300.156H333.609ZM304.016 300.156V299.156H303.016V300.156H304.016ZM304.016 315.406H303.016V316.406H304.016V315.406ZM331.391 315.406H332.391V314.406H331.391V315.406ZM331.391 326.562V327.562H332.391V326.562H331.391ZM304.016 326.562V325.562H303.016V326.562H304.016ZM304.016 341.844H303.016V342.844H304.016V341.844ZM333.734 341.844H334.734V340.844H333.734V341.844ZM333.734 353V354H334.734V353H333.734ZM291.484 353V289H289.484V353H291.484ZM290.484 290H333.609V288H290.484V290ZM332.609 289V300.156H334.609V289H332.609ZM333.609 299.156H304.016V301.156H333.609V299.156ZM303.016 300.156V315.406H305.016V300.156H303.016ZM304.016 316.406H331.391V314.406H304.016V316.406ZM330.391 315.406V326.562H332.391V315.406H330.391ZM331.391 325.562H304.016V327.562H331.391V325.562ZM303.016 326.562V341.844H305.016V326.562H303.016ZM304.016 342.844H333.734V340.844H304.016V342.844ZM332.734 341.844V353H334.734V341.844H332.734ZM333.734 352H290.484V354H333.734V352ZM355.398 353V354H356.125L356.349 353.309L355.398 353ZM340.898 353L339.953 352.674L339.495 354H340.898V353ZM362.992 289V288H362.28L362.047 288.674L362.992 289ZM380.43 289L381.375 288.674L381.143 288H380.43V289ZM402.492 353V354H403.895L403.438 352.674L402.492 353ZM387.992 353L387.041 353.309L387.266 354H387.992V353ZM371.961 303.625L372.912 303.316L372.688 302.625H371.961V303.625ZM371.461 303.625V302.625H370.735L370.51 303.316L371.461 303.625ZM354.492 327.844V326.844H353.492V327.844H354.492ZM388.742 327.844H389.742V326.844H388.742V327.844ZM388.742 338.406V339.406H389.742V338.406H388.742ZM354.492 338.406H353.492V339.406H354.492V338.406ZM355.398 352H340.898V354H355.398V352ZM341.844 353.326L363.938 289.326L362.047 288.674L339.953 352.674L341.844 353.326ZM362.992 290H380.43V288H362.992V290ZM379.484 289.326L401.547 353.326L403.438 352.674L381.375 288.674L379.484 289.326ZM402.492 352H387.992V354H402.492V352ZM388.943 352.691L372.912 303.316L371.01 303.934L387.041 353.309L388.943 352.691ZM371.961 302.625H371.461V304.625H371.961V302.625ZM370.51 303.316L354.448 352.691L356.349 353.309L372.412 303.934L370.51 303.316ZM354.492 328.844H388.742V326.844H354.492V328.844ZM387.742 327.844V338.406H389.742V327.844H387.742ZM388.742 337.406H354.492V339.406H388.742V337.406ZM355.492 338.406V327.844H353.492V338.406H355.492ZM399.938 300.156H398.938V301.156H399.938V300.156ZM399.938 289V288H398.938V289H399.938ZM452.5 289H453.5V288H452.5V289ZM452.5 300.156V301.156H453.5V300.156H452.5ZM432.906 300.156V299.156H431.906V300.156H432.906ZM432.906 353V354H433.906V353H432.906ZM419.531 353H418.531V354H419.531V353ZM419.531 300.156H420.531V299.156H419.531V300.156ZM400.938 300.156V289H398.938V300.156H400.938ZM399.938 290H452.5V288H399.938V290ZM451.5 289V300.156H453.5V289H451.5ZM452.5 299.156H432.906V301.156H452.5V299.156ZM431.906 300.156V353H433.906V300.156H431.906ZM432.906 352H419.531V354H432.906V352ZM420.531 353V300.156H418.531V353H420.531ZM419.531 299.156H399.938V301.156H419.531V299.156ZM461.156 353H460.156V354H461.156V353ZM461.156 289V288H460.156V289H461.156ZM504.281 289H505.281V288H504.281V289ZM504.281 300.156V301.156H505.281V300.156H504.281ZM474.688 300.156V299.156H473.688V300.156H474.688ZM474.688 315.406H473.688V316.406H474.688V315.406ZM502.063 315.406H503.063V314.406H502.063V315.406ZM502.063 326.562V327.562H503.063V326.562H502.063ZM474.688 326.562V325.562H473.688V326.562H474.688ZM474.688 341.844H473.688V342.844H474.688V341.844ZM504.406 341.844H505.406V340.844H504.406V341.844ZM504.406 353V354H505.406V353H504.406ZM462.156 353V289H460.156V353H462.156ZM461.156 290H504.281V288H461.156V290ZM503.281 289V300.156H505.281V289H503.281ZM504.281 299.156H474.688V301.156H504.281V299.156ZM473.688 300.156V315.406H475.688V300.156H473.688ZM474.688 316.406H502.063V314.406H474.688V316.406ZM501.063 315.406V326.562H503.063V315.406H501.063ZM502.063 325.562H474.688V327.562H502.063V325.562ZM473.688 326.562V341.844H475.688V326.562H473.688ZM474.688 342.844H504.406V340.844H474.688V342.844ZM503.406 341.844V353H505.406V341.844H503.406ZM504.406 352H461.156V354H504.406V352Z"
        fill="#F7F7F7" mask="url(#path-5-outside-3_451_2797)" />
</svg>
    