<svg width="438" height="66" viewBox="0 0 438 66" fill="none" xmlns="http://www.w3.org/2000/svg">
<mask id="path-1-outside-1_451_5198" maskUnits="userSpaceOnUse" x="-0.999756" y="-1" width="440" height="68" fill="black">
<rect fill="white" x="-0.999756" y="-1" width="440" height="68"/>
<path d="M14.094 0.999998V65H0.562744V0.999998H14.094ZM78.7581 0.999998V65H67.0706L39.2268 24.7187H38.7581V65H25.2268V0.999998H37.1018L64.7268 41.25H65.2893V0.999998H78.7581ZM143.469 0.999998V65H131.781L103.938 24.7187H103.469V65H89.9377V0.999998H101.813L129.438 41.25H130V0.999998H143.469ZM213.461 33C213.461 39.9792 212.138 45.9167 209.492 50.8125C206.867 55.7083 203.284 59.4479 198.742 62.0312C194.222 64.5937 189.138 65.875 183.492 65.875C177.805 65.875 172.701 64.5833 168.18 62C163.659 59.4167 160.086 55.6771 157.461 50.7813C154.836 45.8854 153.524 39.9583 153.524 33C153.524 26.0208 154.836 20.0833 157.461 15.1875C160.086 10.2917 163.659 6.5625 168.18 4C172.701 1.41667 177.805 0.124998 183.492 0.124998C189.138 0.124998 194.222 1.41667 198.742 4C203.284 6.5625 206.867 10.2917 209.492 15.1875C212.138 20.0833 213.461 26.0208 213.461 33ZM199.742 33C199.742 28.4792 199.065 24.6667 197.711 21.5625C196.378 18.4583 194.492 16.1042 192.055 14.5C189.617 12.8958 186.763 12.0938 183.492 12.0938C180.222 12.0938 177.367 12.8958 174.93 14.5C172.492 16.1042 170.597 18.4583 169.242 21.5625C167.909 24.6667 167.242 28.4792 167.242 33C167.242 37.5208 167.909 41.3333 169.242 44.4375C170.597 47.5417 172.492 49.8958 174.93 51.5C177.367 53.1042 180.222 53.9062 183.492 53.9062C186.763 53.9062 189.617 53.1042 192.055 51.5C194.492 49.8958 196.378 47.5417 197.711 44.4375C199.065 41.3333 199.742 37.5208 199.742 33ZM231.438 0.999998L246.906 49.625H247.5L263 0.999998H278L255.938 65H238.5L216.406 0.999998H231.438ZM288.227 65H273.727L295.821 0.999998H313.258L335.321 65H320.821L304.789 15.625H304.289L288.227 65ZM287.321 39.8437H321.571V50.4062H287.321V39.8437ZM332.766 12.1562V0.999998H385.328V12.1562H365.735V65H352.36V12.1562H332.766ZM393.985 65V0.999998H437.11V12.1562H407.516V27.4062H434.891V38.5625H407.516V53.8437H437.235V65H393.985Z"/>
</mask>
<path d="M14.094 1H15.094V0H14.094V1ZM14.094 65V66H15.094V65H14.094ZM0.562744 65H-0.437256V66H0.562744V65ZM0.562744 1V0H-0.437256V1H0.562744ZM13.094 1V65H15.094V1H13.094ZM14.094 64H0.562744V66H14.094V64ZM1.56274 65V1H-0.437256V65H1.56274ZM0.562744 2H14.094V0H0.562744V2ZM78.7581 1H79.7581V0H78.7581V1ZM78.7581 65V66H79.7581V65H78.7581ZM67.0706 65L66.2479 65.5686L66.5461 66H67.0706V65ZM39.2268 24.7188L40.0494 24.1501L39.7512 23.7188H39.2268V24.7188ZM38.7581 24.7188V23.7188H37.7581V24.7188H38.7581ZM38.7581 65V66H39.7581V65H38.7581ZM25.2268 65H24.2268V66H25.2268V65ZM25.2268 1V0H24.2268V1H25.2268ZM37.1018 1L37.9263 0.43412L37.6283 0H37.1018V1ZM64.7268 41.25L63.9023 41.8159L64.2003 42.25H64.7268V41.25ZM65.2893 41.25V42.25H66.2893V41.25H65.2893ZM65.2893 1V0H64.2893V1H65.2893ZM77.7581 1V65H79.7581V1H77.7581ZM78.7581 64H67.0706V66H78.7581V64ZM67.8932 64.4314L40.0494 24.1501L38.4042 25.2874L66.2479 65.5686L67.8932 64.4314ZM39.2268 23.7188H38.7581V25.7188H39.2268V23.7188ZM37.7581 24.7188V65H39.7581V24.7188H37.7581ZM38.7581 64H25.2268V66H38.7581V64ZM26.2268 65V1H24.2268V65H26.2268ZM25.2268 2H37.1018V0H25.2268V2ZM36.2773 1.56587L63.9023 41.8159L65.5513 40.6841L37.9263 0.43412L36.2773 1.56587ZM64.7268 42.25H65.2893V40.25H64.7268V42.25ZM66.2893 41.25V1H64.2893V41.25H66.2893ZM65.2893 2H78.7581V0H65.2893V2ZM143.469 1H144.469V0H143.469V1ZM143.469 65V66H144.469V65H143.469ZM131.781 65L130.959 65.5686L131.257 66H131.781V65ZM103.938 24.7188L104.76 24.1501L104.462 23.7188H103.938V24.7188ZM103.469 24.7188V23.7188H102.469V24.7188H103.469ZM103.469 65V66H104.469V65H103.469ZM89.9377 65H88.9377V66H89.9377V65ZM89.9377 1V0H88.9377V1H89.9377ZM101.813 1L102.637 0.43412L102.339 0H101.813V1ZM129.438 41.25L128.613 41.8159L128.911 42.25H129.438V41.25ZM130 41.25V42.25H131V41.25H130ZM130 1V0H129V1H130ZM142.469 1V65H144.469V1H142.469ZM143.469 64H131.781V66H143.469V64ZM132.604 64.4314L104.76 24.1501L103.115 25.2874L130.959 65.5686L132.604 64.4314ZM103.938 23.7188H103.469V25.7188H103.938V23.7188ZM102.469 24.7188V65H104.469V24.7188H102.469ZM103.469 64H89.9377V66H103.469V64ZM90.9377 65V1H88.9377V65H90.9377ZM89.9377 2H101.813V0H89.9377V2ZM100.988 1.56587L128.613 41.8159L130.262 40.6841L102.637 0.43412L100.988 1.56587ZM129.438 42.25H130V40.25H129.438V42.25ZM131 41.25V1H129V41.25H131ZM130 2H143.469V0H130V2ZM209.492 50.8125L208.613 50.3371L208.611 50.34L209.492 50.8125ZM198.742 62.0312L199.236 62.9012L199.237 62.9005L198.742 62.0312ZM168.18 62L168.676 61.1318L168.18 62ZM157.461 50.7812L156.58 51.2538L157.461 50.7812ZM157.461 15.1875L158.342 15.66L157.461 15.1875ZM168.18 4L168.673 4.86997L168.676 4.86824L168.18 4ZM198.742 4L198.246 4.86826L198.251 4.87093L198.742 4ZM209.492 15.1875L208.611 15.66L208.613 15.6629L209.492 15.1875ZM197.711 21.5625L196.792 21.9572L196.795 21.9623L197.711 21.5625ZM192.055 14.5L191.505 15.3353L192.055 14.5ZM174.93 14.5L175.48 15.3353L174.93 14.5ZM169.242 21.5625L168.326 21.1626L168.324 21.1678L169.242 21.5625ZM169.242 44.4375L168.324 44.8322L168.326 44.8374L169.242 44.4375ZM174.93 51.5L175.48 50.6647L174.93 51.5ZM192.055 51.5L191.505 50.6647L192.055 51.5ZM197.711 44.4375L196.795 44.0376L196.792 44.0428L197.711 44.4375ZM212.461 33C212.461 39.8546 211.162 45.6198 208.613 50.3371L210.372 51.2879C213.115 46.2135 214.461 40.1038 214.461 33H212.461ZM208.611 50.34C206.069 55.0807 202.615 58.6778 198.248 61.162L199.237 62.9005C203.953 60.218 207.666 56.3359 210.374 51.285L208.611 50.34ZM198.249 61.1613C193.892 63.6313 188.981 64.875 183.492 64.875V66.875C189.296 66.875 194.552 65.5562 199.236 62.9012L198.249 61.1613ZM183.492 64.875C177.962 64.875 173.032 63.6209 168.676 61.1318L167.684 62.8682C172.369 65.5458 177.647 66.875 183.492 66.875V64.875ZM168.676 61.1318C164.329 58.6479 160.885 55.0507 158.342 50.3087L156.58 51.2538C159.287 56.3035 162.989 60.1855 167.684 62.8682L168.676 61.1318ZM158.342 50.3087C155.813 45.5904 154.524 39.8343 154.524 33H152.524C152.524 40.0824 153.86 46.1804 156.58 51.2538L158.342 50.3087ZM154.524 33C154.524 26.1443 155.813 20.378 158.342 15.66L156.58 14.715C153.859 19.7887 152.524 25.8974 152.524 33H154.524ZM158.342 15.66C160.885 10.9187 164.328 7.33282 168.673 4.86996L167.687 3.13004C162.99 5.79218 159.288 9.66464 156.58 14.715L158.342 15.66ZM168.676 4.86824C173.032 2.37909 177.962 1.125 183.492 1.125V-0.875C177.647 -0.875 172.369 0.454239 167.684 3.13176L168.676 4.86824ZM183.492 1.125C188.979 1.125 193.889 2.37846 198.246 4.86824L199.239 3.13176C194.554 0.45488 189.297 -0.875 183.492 -0.875V1.125ZM198.251 4.87093C202.617 7.33411 206.07 10.9199 208.611 15.66L210.374 14.715C207.665 9.66346 203.952 5.79088 199.234 3.12907L198.251 4.87093ZM208.613 15.6629C211.162 20.3802 212.461 26.1454 212.461 33H214.461C214.461 25.8962 213.115 19.7865 210.372 14.7121L208.613 15.6629ZM200.742 33C200.742 28.3852 200.052 24.4276 198.628 21.1627L196.795 21.9623C198.079 24.9057 198.742 28.5731 198.742 33H200.742ZM198.63 21.1678C197.232 17.9129 195.23 15.3926 192.605 13.6647L191.505 15.3353C193.755 16.8157 195.524 19.0038 196.792 21.9572L198.63 21.1678ZM192.605 13.6647C189.985 11.9404 186.934 11.0938 183.492 11.0938V13.0938C186.592 13.0938 189.25 13.8513 191.505 15.3353L192.605 13.6647ZM183.492 11.0938C180.051 11.0938 177 11.9404 174.38 13.6647L175.48 15.3353C177.735 13.8513 180.393 13.0938 183.492 13.0938V11.0938ZM174.38 13.6647C171.756 15.3916 169.745 17.91 168.326 21.1627L170.159 21.9623C171.448 19.0066 173.229 16.8167 175.48 15.3353L174.38 13.6647ZM168.324 21.1678C166.922 24.4312 166.242 28.3869 166.242 33H168.242C168.242 28.5715 168.896 24.9021 170.161 21.9572L168.324 21.1678ZM166.242 33C166.242 37.6131 166.922 41.5688 168.324 44.8322L170.161 44.0428C168.896 41.0979 168.242 37.4285 168.242 33H166.242ZM168.326 44.8374C169.745 48.09 171.756 50.6084 174.38 52.3353L175.48 50.6647C173.229 49.1833 171.448 46.9934 170.159 44.0376L168.326 44.8374ZM174.38 52.3353C177 54.0596 180.051 54.9062 183.492 54.9062V52.9062C180.393 52.9062 177.735 52.1487 175.48 50.6647L174.38 52.3353ZM183.492 54.9062C186.934 54.9062 189.985 54.0596 192.605 52.3353L191.505 50.6647C189.25 52.1487 186.592 52.9062 183.492 52.9062V54.9062ZM192.605 52.3353C195.23 50.6074 197.232 48.0871 198.63 44.8322L196.792 44.0428C195.524 46.9962 193.755 49.1843 191.505 50.6647L192.605 52.3353ZM198.628 44.8374C200.052 41.5724 200.742 37.6148 200.742 33H198.742C198.742 37.4269 198.079 41.0943 196.795 44.0376L198.628 44.8374ZM231.438 1L232.391 0.696846L232.169 0H231.438V1ZM246.906 49.625L245.954 49.9281L246.175 50.625H246.906V49.625ZM247.5 49.625V50.625H248.231L248.453 49.9287L247.5 49.625ZM263 1V0H262.269L262.047 0.696289L263 1ZM278 1L278.946 1.3259L279.403 0H278V1ZM255.938 65V66H256.651L256.883 65.3259L255.938 65ZM238.5 65L237.555 65.3263L237.788 66H238.5V65ZM216.406 1V0H215.003L215.461 1.32632L216.406 1ZM230.485 1.30315L245.954 49.9281L247.859 49.3218L232.391 0.696846L230.485 1.30315ZM246.906 50.625H247.5V48.625H246.906V50.625ZM248.453 49.9287L263.953 1.30371L262.047 0.696289L246.547 49.3213L248.453 49.9287ZM263 2H278V0H263V2ZM277.055 0.674095L254.992 64.6741L256.883 65.3259L278.946 1.3259L277.055 0.674095ZM255.938 64H238.5V66H255.938V64ZM239.446 64.6737L217.352 0.673683L215.461 1.32632L237.555 65.3263L239.446 64.6737ZM216.406 2H231.438V0H216.406V2ZM288.227 65V66H288.953L289.178 65.3094L288.227 65ZM273.727 65L272.782 64.6737L272.324 66H273.727V65ZM295.821 1V0H295.108L294.875 0.673683L295.821 1ZM313.258 1L314.203 0.674095L313.971 0H313.258V1ZM335.321 65V66H336.723L336.266 64.6741L335.321 65ZM320.821 65L319.869 65.3088L320.094 66H320.821V65ZM304.789 15.625L305.74 15.3162L305.516 14.625H304.789V15.625ZM304.289 15.625V14.625H303.563L303.338 15.3156L304.289 15.625ZM287.321 39.8438V38.8438H286.321V39.8438H287.321ZM321.571 39.8438H322.571V38.8438H321.571V39.8438ZM321.571 50.4062V51.4062H322.571V50.4062H321.571ZM287.321 50.4062H286.321V51.4062H287.321V50.4062ZM288.227 64H273.727V66H288.227V64ZM274.672 65.3263L296.766 1.32632L294.875 0.673683L272.782 64.6737L274.672 65.3263ZM295.821 2H313.258V0H295.821V2ZM312.313 1.3259L334.375 65.3259L336.266 64.6741L314.203 0.674095L312.313 1.3259ZM335.321 64H320.821V66H335.321V64ZM321.772 64.6912L305.74 15.3162L303.838 15.9338L319.869 65.3088L321.772 64.6912ZM304.789 14.625H304.289V16.625H304.789V14.625ZM303.338 15.3156L287.276 64.6906L289.178 65.3094L305.24 15.9344L303.338 15.3156ZM287.321 40.8438H321.571V38.8438H287.321V40.8438ZM320.571 39.8438V50.4062H322.571V39.8438H320.571ZM321.571 49.4062H287.321V51.4062H321.571V49.4062ZM288.321 50.4062V39.8438H286.321V50.4062H288.321ZM332.766 12.1562H331.766V13.1562H332.766V12.1562ZM332.766 1V0H331.766V1H332.766ZM385.328 1H386.328V0H385.328V1ZM385.328 12.1562V13.1562H386.328V12.1562H385.328ZM365.735 12.1562V11.1562H364.735V12.1562H365.735ZM365.735 65V66H366.735V65H365.735ZM352.36 65H351.36V66H352.36V65ZM352.36 12.1562H353.36V11.1562H352.36V12.1562ZM333.766 12.1562V1H331.766V12.1562H333.766ZM332.766 2H385.328V0H332.766V2ZM384.328 1V12.1562H386.328V1H384.328ZM385.328 11.1562H365.735V13.1562H385.328V11.1562ZM364.735 12.1562V65H366.735V12.1562H364.735ZM365.735 64H352.36V66H365.735V64ZM353.36 65V12.1562H351.36V65H353.36ZM352.36 11.1562H332.766V13.1562H352.36V11.1562ZM393.985 65H392.985V66H393.985V65ZM393.985 1V0H392.985V1H393.985ZM437.11 1H438.11V0H437.11V1ZM437.11 12.1562V13.1562H438.11V12.1562H437.11ZM407.516 12.1562V11.1562H406.516V12.1562H407.516ZM407.516 27.4062H406.516V28.4062H407.516V27.4062ZM434.891 27.4062H435.891V26.4062H434.891V27.4062ZM434.891 38.5625V39.5625H435.891V38.5625H434.891ZM407.516 38.5625V37.5625H406.516V38.5625H407.516ZM407.516 53.8438H406.516V54.8438H407.516V53.8438ZM437.235 53.8438H438.235V52.8438H437.235V53.8438ZM437.235 65V66H438.235V65H437.235ZM394.985 65V1H392.985V65H394.985ZM393.985 2H437.11V0H393.985V2ZM436.11 1V12.1562H438.11V1H436.11ZM437.11 11.1562H407.516V13.1562H437.11V11.1562ZM406.516 12.1562V27.4062H408.516V12.1562H406.516ZM407.516 28.4062H434.891V26.4062H407.516V28.4062ZM433.891 27.4062V38.5625H435.891V27.4062H433.891ZM434.891 37.5625H407.516V39.5625H434.891V37.5625ZM406.516 38.5625V53.8438H408.516V38.5625H406.516ZM407.516 54.8438H437.235V52.8438H407.516V54.8438ZM436.235 53.8438V65H438.235V53.8438H436.235ZM437.235 64H393.985V66H437.235V64Z" fill="#F7F7F7" mask="url(#path-1-outside-1_451_5198)"/>
</svg>
