<svg width="265" height="48" viewBox="0 0 265 48" fill="none" xmlns="http://www.w3.org/2000/svg">
    <g clip-path="url(#clip0_451_5195)">
        <path
            d="M98.4686 6.39122H107.968V30.7733C107.968 35.5917 110.247 38.3779 114.746 38.3779C119.245 38.3779 121.634 35.5917 121.634 30.7733V6.39122H131.133V30.7151C131.133 41.9778 123.578 47.5509 114.579 47.5509C105.525 47.5509 98.4679 41.9778 98.4679 30.7151L98.4686 6.39122ZM170.518 30.8883C170.518 41.108 164.461 47.6077 156.853 47.6077C152.296 47.6077 149.016 45.4606 147.297 42.6176V47.1455H137.797V4.18293H147.297V19.3345C149.016 16.4326 152.408 14.2854 156.853 14.2854C164.517 14.2862 170.518 20.6737 170.518 30.8883ZM160.85 30.8883C160.85 25.7228 157.631 22.9381 154.02 22.9381C150.465 22.9381 147.241 25.781 147.241 30.9473C147.241 36.1136 150.465 38.9565 154.02 38.9565C157.631 38.9558 160.85 36.0546 160.85 30.8883ZM206.341 14.7484V47.1455H196.847V42.5594C195.123 45.4023 191.847 47.6084 187.235 47.6084C179.678 47.6084 173.626 41.1088 173.626 30.8891C173.626 20.6745 179.678 14.2862 187.291 14.2862C191.904 14.2862 195.179 16.4915 196.847 19.3352V14.7491L206.341 14.7484ZM196.847 30.9473C196.847 25.7818 193.678 22.9381 190.068 22.9381C186.513 22.9381 183.289 25.7228 183.289 30.8883C183.289 36.0539 186.513 38.9558 190.068 38.9558C193.678 38.9558 196.847 36.1128 196.847 30.9473ZM214.729 35.8814C214.729 44.2989 219.228 47.1441 225.672 47.1441H230.505V38.7258H227.117C225.005 38.7258 224.228 37.9135 224.228 35.9971V22.9941H230.449V14.7505H224.228V6.85486H214.729V14.7505H210.951V22.9934H214.729V35.8814ZM264.832 33.3281H243.335C243.67 37.5634 246.167 39.541 249.224 39.541C251.888 39.541 253.389 38.1486 254.167 36.4054H264.277C262.777 42.7297 257.279 47.6084 249.554 47.6084C240.446 47.6084 233.89 41.2201 233.89 30.9473C233.89 20.6745 240.333 14.2862 249.554 14.2862C258.611 14.2862 264.999 20.5573 264.999 30.4262C265 31.3513 264.944 32.3397 264.832 33.3281ZM255.281 27.8117C255.281 24.2722 252.611 22.2364 249.448 22.2364C246.335 22.2364 243.945 24.2133 243.391 27.8117H255.281ZM5.66604 10.7394C8.9988 10.7394 11.2778 8.35931 11.2778 5.39916C11.2771 2.38079 8.9981 0 5.66604 0C2.27756 0 0 2.38079 0 5.39916C0 8.35931 2.27756 10.7394 5.66604 10.7394ZM0.888039 46.5006H10.3876V14.1071H0.888039V46.5006ZM38.6621 46.5006H48.106V27.5752C48.106 18.8672 43.3287 13.7592 36.1617 13.7592C31.9952 13.7592 28.6624 15.6749 26.7735 18.4036V14.1078H17.2746V46.5006H26.7742V28.9108C26.7742 24.4986 29.1075 22.0603 32.7182 22.0603C36.3288 22.0603 38.6621 24.4986 38.6621 28.9108V46.5006ZM93.5757 25.3247C93.5757 13.6486 84.4271 4.13271 73.2545 4.18512C62.1258 4.23752 53.1194 13.6821 53.1194 25.3247C53.1194 36.995 62.2115 46.481 73.3792 46.4635C76.4863 46.4584 79.4304 45.7211 82.0604 44.4074L75.1964 37.2344C74.5946 37.3371 73.9761 37.3887 73.3472 37.3887C66.9707 37.3887 61.8027 31.9867 61.8027 25.3247C61.8027 18.6001 67.0661 13.1602 73.5227 13.2606C79.716 13.3567 84.7754 18.6227 84.891 25.0947C84.9175 26.5635 84.6918 27.974 84.2572 29.282C83.9514 30.2027 83.1142 30.8083 82.183 30.769C82.0869 30.7646 81.988 30.7581 81.887 30.7486C80.0127 30.5746 77.8932 29.2703 76.3637 28.1305C76.122 27.95 75.8351 28.2826 76.0329 28.5148C77.3604 30.0753 79.2702 32.2465 81.1961 34.1717C83.787 36.7621 86.4059 38.9092 87.6673 38.5307C90.2422 37.7563 91.3754 35.1033 91.6276 34.4206C91.6603 34.3318 91.645 34.2343 91.5892 34.1622L91.684 34.2597C92.8973 31.5463 93.5757 28.5177 93.5757 25.3247ZM93.2483 37.4601C93.1738 37.3946 93.0644 37.4579 93.0728 37.5583C93.1633 38.5053 91.9479 40.5607 90.0507 42.555C89.988 42.6212 89.9218 42.6875 89.8591 42.7508C88.0169 44.6366 86.1531 45.8361 85.2796 45.7473C85.1919 45.7393 85.1424 45.8485 85.2002 45.9198C86.3411 47.3049 88.0789 48.1368 89.9894 47.9818C91.2932 47.877 92.4808 47.3049 93.3981 46.4271C94.4602 45.4081 95.1588 43.9823 95.2529 42.4007C95.374 40.4202 94.5696 38.6297 93.2483 37.4601ZM76.1478 15.3212C74.8662 15.3212 73.8347 16.4399 73.9002 17.7951C73.9573 18.983 74.8865 19.9575 76.0231 20.0216C77.3228 20.0951 78.3989 19.015 78.3989 17.6736C78.3982 16.3729 77.3904 15.3212 76.1478 15.3212ZM76.62 23.2845C76.301 22.7998 75.9368 22.3383 75.523 21.9074C73.3326 19.6169 70.3174 18.7115 67.475 19.1904C67.0181 22.1607 67.8845 25.3101 70.075 27.6007C70.4873 28.0315 70.9296 28.4137 71.3942 28.7456C71.413 30.0149 71.7445 31.3876 72.3679 32.7363C72.4877 31.7115 72.7649 30.7027 73.1981 29.7522C73.6411 28.782 74.2471 27.8736 75.0153 27.0708C75.7849 26.2665 76.6542 25.6347 77.5826 25.1718C77.334 24.5146 77.0129 23.8828 76.62 23.2845ZM76.62 23.2845C76.301 22.7998 75.9368 22.3383 75.523 21.9074C73.3326 19.6169 70.3174 18.7115 67.475 19.1904C67.0181 22.1607 67.8845 25.3101 70.075 27.6007C70.4873 28.0315 70.9296 28.4137 71.3942 28.7456C71.9653 29.1561 72.5699 29.4916 73.1981 29.7522C73.6411 28.782 74.2471 27.8736 75.0153 27.0708C75.7849 26.2665 76.6542 25.6347 77.5826 25.1718C78.4915 24.7191 79.4576 24.4294 80.4376 24.3028C79.1469 23.6506 77.834 23.3035 76.62 23.2845ZM76.62 23.2845C75.1212 23.2605 73.7727 23.7358 72.799 24.7541C71.826 25.7709 71.3712 27.18 71.3942 28.7456C71.413 30.0149 71.7445 31.3876 72.3679 32.7363C72.4877 31.7115 72.7649 30.7027 73.1981 29.7522C73.6411 28.782 74.2471 27.8736 75.0153 27.0708C75.7849 26.2665 76.6542 25.6347 77.5826 25.1718C78.4915 24.7191 79.4576 24.4294 80.4376 24.3028C79.1469 23.6506 77.834 23.3035 76.62 23.2845Z"
            fill="url(#paint0_linear_451_5195)" />
    </g>
    <defs>
        <linearGradient id="paint0_linear_451_5195" x1="52.1703" y1="101.994" x2="206.178"
            y2="-40.324" gradientUnits="userSpaceOnUse">
            <stop offset="0.2235" stop-color="#D32232" />
            <stop offset="0.4083" stop-color="#AD4155" />
            <stop offset="0.8197" stop-color="#4D8EAD" />
            <stop offset="0.8771" stop-color="#3F99BA" />
        </linearGradient>
        <clipPath id="clip0_451_5195">
            <rect width="265" height="48" fill="white" />
        </clipPath>
    </defs>
</svg>
    