<svg width="1438" height="2167" viewBox="0 0 1438 2167" fill="none"
    xmlns="http://www.w3.org/2000/svg">
    <path
        d="M1364.5 -1.46132C1365.36 200.972 1332.07 408.378 1357.86 609.602C1379.39 777.569 1391.43 924.641 1373.22 1095.06C1364.82 1173.6 1362.91 1247.61 1362.02 1326.85C1361.11 1407.81 1347.59 1484.94 1338.92 1564.49C1316.47 1770.39 1366.44 1961.33 1364.64 2165.34M1292.64 -1.46132C1286 214.981 1203.12 466.998 1276.46 672.086C1305.08 752.172 1349.18 831.05 1357.17 923.196C1363.72 998.311 1344.03 1059.35 1320.61 1123.68C1295.28 1193.25 1290.21 1246.43 1281.75 1323.43C1273.17 1401.7 1239.66 1458.64 1215.11 1527.24C1139.1 1739.35 1278.24 1953.87 1292.64 2165.31M1220.8 -1.46132C1211.44 145.879 1179.34 286.535 1157.15 430.415C1137.35 558.876 1133.91 635.906 1194.82 737.291C1238.73 810.39 1313.13 885.908 1330.27 985.344C1343.55 1062.61 1305.48 1109.64 1268.84 1153.55C1254.49 1170.78 1238.45 1186.67 1226.76 1208.27C1207.07 1245.22 1210.39 1278.35 1201.04 1319.63C1182.54 1399.62 1129.14 1433.51 1089.25 1488.34C1028.46 1572.05 1045.18 1654.56 1081.65 1756.72C1129.96 1891.89 1199.19 2013.84 1220.8 2165.18M1148.99 -1.46131C1138.14 157.435 1097.32 307.262 1069.78 461.119C1045.09 599.222 1040.6 675.378 1115.74 774.142C1167.46 842.102 1264.4 914.731 1285.02 1020.28C1301.39 1104.63 1251.47 1139.94 1208.29 1170.38C1190.7 1182.77 1170.2 1192.82 1155.4 1212.2C1129.21 1246.47 1136.88 1276.03 1125.26 1318.46C1102.39 1401.73 1033.6 1422.02 985.557 1465.43C907.487 1535.97 933.627 1631.01 975.807 1731.79C1035.1 1873.45 1123.69 2000.37 1148.97 2165.14M1077.22 -1.46131C1067.09 157.603 1024.75 307.06 996.762 460.716C985.96 520.042 966.367 599.826 980.395 661.571C990.636 706.385 1019.68 742.497 1043.41 771.825C1096.72 837.735 1197.51 906.198 1218.28 1012.99C1236.56 1107.05 1177.97 1133.93 1129.66 1158.72C1109.25 1169.2 1084.35 1176.36 1066.7 1195.97C1038.01 1227.92 1044.81 1255.9 1034.13 1300.45C1015.21 1379.19 963.748 1427.5 926.993 1487.53C911.631 1512.63 893.207 1542.59 886.123 1575.38C872.234 1639.57 901.157 1706.16 922.737 1760.14C976.397 1894.15 1052.95 2011.35 1077.05 2165.24M1005.39 -1.4613C995.126 156.024 952.245 303.432 923.86 455.409C913.011 513.391 892.6 593.813 907.61 654.147C918.623 698.322 949.416 732.487 973.896 759.731C1027.67 819.695 1136.26 883.455 1157.41 988.468C1178.57 1093.48 1084 1108.53 1035.83 1121.2C969.477 1138.63 918.553 1146.86 910.042 1253.96C902.303 1351.18 897.159 1449.2 890.308 1546.62C882.99 1650.76 875.087 1742.17 907.026 1840.8C942.472 1950.01 993.209 2043.07 1005.37 2165.31M933.585 -1.4613C923.063 154.177 879.621 299.267 850.792 448.992C839.943 505.362 818.55 586.49 834.729 645.077C846.724 688.479 879.574 720.326 904.873 745.219C954.137 793.828 1083.08 860.444 1098.19 959.847C1115.7 1074.97 987.198 1071.34 938.589 1077.42C880.72 1084.65 766.667 1079.47 778.591 1200.78C792.409 1341.13 830.848 1477.89 858.087 1613.37C869.521 1670.15 881.842 1728.83 888.483 1787.29C894.047 1836.13 891.709 1884.34 899.378 1932.85C912.074 2013.1 933.468 2081.19 933.632 2165.41M861.752 -1.4613C851.183 153.068 807.25 296.344 778.117 444.625C767.222 500.054 745.384 581.72 761.984 639.467C774.493 682.567 808.747 712.767 834.583 735.98C883.683 780.256 1019.86 842.236 1034.89 940.564C1053.59 1062.07 896.075 1045.68 849.57 1048.23C794.554 1051.22 646.738 1033.89 664.859 1163.15C689.175 1336.63 764.977 1501.98 815.13 1661.18C850.435 1773.21 880.457 1872.81 872.273 1997.11C868.579 2053.24 864.347 2109.11 861.822 2165.45M789.948 -1.46129C779.544 153.706 734.886 297.755 705.449 446.641C694.319 502.943 672.481 584.105 689.83 642.49C702.386 684.717 734.839 713.91 760.441 736.551C808.817 779.383 938.559 835.417 953.593 931.897C971.948 1049.68 820.648 1041.88 773.558 1047.09C718.051 1053.24 577.951 1043.73 592.027 1169.2C611.223 1339.89 701.685 1503.02 755.414 1652.95C792.637 1757.08 831.801 1866.6 813.493 1986.66C804.001 2048.88 790.112 2099.77 789.878 2165.28M718.147 -1.46129C707.111 157.335 661.073 304.944 630.654 457.323C606.665 577.554 591.093 667.316 672.343 738.601C717.889 778.577 819.644 816.974 834.749 905.56C853.056 1012.42 738.886 1038.82 690.44 1057.54C636.453 1078.4 529.835 1102.58 545.617 1214.45C565.631 1356.32 661.05 1481.05 716.019 1595.47C764.535 1696.45 795.094 1785.47 769.422 1908.59C750.997 1996.91 721.677 2071.12 718.123 2165.38M646.326 -1.46128C634.331 161.97 586.727 314.014 555.139 470.828C534.54 572.885 508.517 674.135 578.52 740.415C619.788 779.484 687.547 792.182 702.441 871.799C720.047 965.86 648.079 1028.07 603.865 1071.01C558.81 1114.68 487.076 1176.42 506.904 1271.06C529.7 1380.03 631.315 1453.03 686.097 1523.24C708.66 1552.2 740.505 1592.44 751.003 1635.58C764.447 1690.94 746.117 1757.62 732.789 1809.19C701.95 1928.58 657.198 2036.92 646.279 2165.28M574.49 -1.46128C561.888 165.632 512.928 321.203 480.288 481.511C463.617 563.411 428.989 684.683 490.435 742.43C527.073 776.864 571.053 775.15 583.609 845.428C598.854 930.822 552.348 1017.86 520.737 1081.42C491.651 1139.87 436.775 1238.07 460.46 1316.27C487.536 1405.66 592.751 1428.54 646.692 1465.59C669.488 1481.28 702.292 1504.46 714.193 1539.84C732.524 1594.29 702.362 1681.53 688.708 1730.98C648.96 1875.27 590.951 2009.81 574.561 2165.14M502.718 -1.46128C491.167 165.397 439.869 319.087 406.364 478.353C388.641 562.571 358.175 674.673 414.898 739.474C447.304 776.427 487.543 785.195 498.766 850.131C512.795 930.755 469.844 1024.82 443.727 1090.12C419.972 1149.62 368.252 1258.96 389.67 1331.39C415.997 1420.34 526.356 1427.94 579.922 1456.73C603.935 1469.63 635.546 1488 648.055 1523.64C667.064 1577.7 635.616 1670.58 621.962 1719.06C580.25 1866.87 516.746 2004.37 502.718 2165.11M430.891 -1.46127C418.569 154.614 361.73 291.574 324.577 437.201C297.198 544.431 288.336 625.693 328.061 724.962C354.739 791.611 397.316 852.885 405.219 932.199C413.916 1018.64 377.979 1085.52 345.176 1151.46C318.848 1204.34 265.095 1296.65 285.133 1368.48C310.712 1459.85 432.06 1479.03 486.047 1511.79C509.896 1526.23 544.126 1546.72 556.799 1583C574.475 1633.7 548.756 1722.15 535.592 1768.2C497.481 1901.8 437.391 2016.96 430.798 2165.01M359.064 -1.46127C343.913 139.463 280.643 252.303 238.417 378.144C198.879 496.057 207.554 587.162 233.507 708.098C257.473 819.661 294.158 933.173 301.499 1050.75C307.017 1139.24 275.149 1185.56 233.694 1242.67C202.737 1285.4 147.815 1353.9 166.333 1426.42C175.685 1462.97 210.757 1488.77 232.151 1504.93C282.42 1543.06 336.524 1568.36 387.262 1604.3C412.116 1621.87 451.466 1647.97 464.887 1687.28C480.833 1733.94 463.484 1808.21 449.713 1850.81C414.337 1960.39 359.438 2037.66 358.9 2165.04M287.237 -1.46126C270.075 128.176 200.937 217.903 154.081 326.612C102.877 445.465 124.2 562.236 142.157 692.309C163.2 844.286 195.606 999.05 201.966 1154.52C205.684 1245.22 176.925 1276.97 127.684 1321.82C91.7004 1354.6 35.6557 1403.01 55.3427 1479.23C66.0746 1520.86 108.511 1556.03 132.01 1576.65C188.896 1626.81 250.646 1664.77 308.327 1712.91C373.163 1767.1 437.111 1841.27 382.936 1953.87C344.007 2034.8 289.178 2053.28 287.074 2165.18M215.41 -1.46126C198.248 125.858 127.707 204.567 79.0038 307.598C23.871 424.368 50.2449 552.258 65.3726 682.769C84.7322 849.828 113.748 1019.17 121.254 1188.68C125.228 1278.85 96.5396 1307.17 45.6856 1345.73C5.07243 1376.54 -49.2187 1418.56 -24.2943 1499.73C-8.90948 1549.81 40.191 1596.17 68.9498 1625.2C133.833 1690.74 203.976 1744.66 269.677 1808.35C317.632 1854.81 445.785 1977.26 350.296 2054.25C307.368 2088.85 219.759 2066.24 215.433 2165.41M143.579 -1.46126C128.592 118.131 73.319 203.458 34.0386 307.06C-9.91805 423.058 9.58177 539.862 22.3479 664.796C37.9198 815.731 60.8802 968.01 67.0529 1120.66C70.4198 1204.1 47.0151 1243.31 6.09803 1295.58C-29.4881 1341.03 -71.3638 1394.81 -46.9538 1470.26C-30.4 1521.43 9.65205 1569.3 38.3641 1604.64C93.5905 1672.4 154.031 1730.78 210.076 1797.09C259.574 1855.61 369.068 1974.7 278.232 2050.49C233.948 2087.44 160.274 2079.04 143.766 2165.75M71.8262 -1.46125C65.6068 109.397 30.6052 202.484 7.0603 306.187C-17.1392 412.678 -7.41275 519.001 0.887577 628.213C15.6879 822.383 54.6644 1024.61 -8.23095 1206.39C-30.1859 1269.95 -54.1282 1338.38 -39.702 1411.31C-15.9233 1531.77 67.1266 1624.29 119.875 1717.65C165.468 1798.27 207.835 1885.18 159.295 1982.26C126.562 2047.94 86.8136 2082.13 71.9666 2165.38M0.067627 -1.46125C0.815829 102.678 -13.4934 202.551 -21.6534 305.347C-29.2056 400.517 -26.0958 497.904 -22.7056 593.41C-16.4628 770.716 -7.06357 944.562 -25.0437 1120.83C-32.9232 1197.92 -39.8439 1275.36 -36.7342 1353.49C-32.8997 1449.84 -1.66252 1537.25 19.1467 1627.41C62.0045 1813.19 5.1181 1979.41 0.0210088 2165.21M-71.8539 2062.04C11.1961 2063.75 90.6922 2097.68 172.971 2106.41C233.388 2112.8 286.416 2078.33 344.448 2060.39C460.77 2024.38 579.406 2021.56 694.956 2062.14C749.597 2081.32 800.358 2093.38 856.94 2090.39C909.525 2087.6 955.796 2065.83 1006.86 2050.08C1146.31 2007.31 1295.48 2063.52 1436.35 2062.1M-71.8082 1958.93C31.2561 1975.19 123.144 2047.05 224.034 2076C269.931 2089.17 283.913 2084.07 316.787 2044.63C339.14 2017.75 357.704 1992.96 383.026 1971.06C441.97 1920.06 512.628 1879.75 582.047 1873.3C642.323 1867.66 679.008 1906.89 722.801 1958.93C762.783 2006.47 805.244 2058.6 861.686 2043.79C911.137 2030.79 925.727 1973.24 958.858 1927.79C1008.59 1859.73 1078.85 1885.26 1140.76 1898.56C1239.25 1919.76 1336.56 1952.11 1436.28 1959.03M-71.7356 1855.87C51.9743 1890.2 156.932 1996.52 276.644 2047.95C327.662 2069.86 345.782 2073.65 364.604 2004.52C376.996 1958.96 400.003 1917.17 423.735 1883.04C476.623 1806.58 556.096 1727.2 632.833 1711.38C699.002 1697.71 726.358 1783.77 751.843 1855.83C770.268 1907.9 809.314 2033.04 866.411 1999.51C914.951 1971.06 898.911 1861.11 908.871 1804.94C930.476 1683.16 1017.5 1733.75 1083.72 1753.68C1201.09 1789.08 1316.62 1839.47 1436.19 1855.73M-71.7635 1752.66C66.3725 1795.79 180.917 1926.98 312.81 1995.61C374.396 2027.69 379.938 2015.36 389.29 1935.14C395.65 1879.78 417.628 1825.49 441.407 1782.02C491.466 1690.95 577.368 1589.23 661.19 1572.6C735.262 1557.89 751.675 1672.54 768.159 1752.59C777.745 1799.15 807.72 1978.58 870.475 1931.31C919.201 1894.59 880.131 1743.52 879.079 1688.09C876.32 1539.71 981.489 1602.26 1049.76 1625.51C1178.1 1669.18 1304.62 1733.38 1436.18 1752.56M-71.6443 1649.45C55.6195 1685.29 153.353 1813.45 272.176 1879.76C325.088 1909.36 339 1906.84 353.543 1833.44C363.854 1781.37 388.614 1732.66 413.328 1692.95C466.895 1607.19 553.99 1504.32 637.32 1486.96C704.284 1472.98 726.169 1567.58 744.874 1641.05C757.944 1691.77 789.625 1829.91 847.447 1793.02C894.092 1763.23 879.269 1642.96 888.247 1588.1C909.29 1459.04 994.257 1511.38 1064.94 1534.09C1188.39 1573.73 1309.97 1630.43 1436.14 1649.21M-71.7635 1546.24C24.8475 1573.11 83.3238 1681.58 165.976 1747.53C206.706 1780.05 213.113 1768.93 238.645 1724.28C261.469 1683.67 287.407 1646.89 315.967 1614.63C382.65 1539.65 471.054 1455.47 557.611 1438.94C609.401 1429.03 639.235 1461.21 671.524 1512.31C753.966 1642.72 824.601 1559.54 910.854 1486.67C976.041 1431.58 1038.75 1448.55 1111.28 1467.02C1219.51 1494.54 1326.38 1535.15 1436.28 1546.2M-71.9265 1443.05C0.321366 1463.67 0.555196 1550.21 46.1251 1613.23C85.5926 1667.65 161.02 1567.07 201.704 1537.48C282.602 1478.66 373.088 1411.84 464.976 1399.01C505.752 1393.33 545.968 1388.63 586.558 1379.45C702.949 1353.05 818.71 1373.68 935.92 1384.06C1011.93 1390.78 1088.65 1393.7 1164.33 1405.02C1255.05 1418.46 1345.02 1441.1 1436.42 1443.08M-71.9265 1339.87C-5.54732 1330.5 -50.8834 1442.23 -40.8061 1483.82C-22.9195 1557.15 92.6303 1475.22 128.17 1457.45C216.901 1413.04 308.789 1351.86 403.483 1339.53C459.762 1332.21 489.245 1310.44 529.391 1256.36C567.666 1204.55 600.82 1168.37 656.701 1177.98C757.568 1195.38 857.055 1247.62 954.928 1284.07C1110.62 1342.02 1275.86 1342.05 1436.32 1339.94M-71.8809 1236.67C-4.47289 1221.35 -54.9061 1343.76 -47.8684 1382.9C-32.4368 1468.87 94.2191 1389.35 131.255 1370.44C220.431 1324.92 308.952 1259.75 403.599 1241.2C460.906 1229.95 492.003 1209.39 537.059 1158.63C579.028 1111.36 615.549 1071.76 671.875 1079.79C773.115 1094.27 873.093 1155.34 970.078 1195.15C1125.77 1258.97 1276.7 1231.49 1436.23 1236.63M-71.8539 1133.47C-1.26607 1126.49 -31.8955 1264.99 -15.2013 1319.51C15.5917 1419.92 121.953 1335.2 169.51 1303.25C254.337 1246.38 339.982 1160.41 433.951 1138.04C492.077 1124.17 546.555 1114.76 603.745 1092.05C658.528 1070.32 716.326 1042.54 773.937 1050.33C861.383 1062.19 946.841 1115.13 1030.43 1149.9C1104.2 1180.6 1172.26 1198.64 1248.74 1178.62C1312.03 1162.09 1371.12 1135.69 1436.19 1133.47M-71.7803 1030.4C8.08987 1061.27 -6.59355 1179.01 26.2804 1266.93C70.4708 1385.04 162.452 1296.02 219.199 1245.96C297.689 1176.69 380.833 1063.32 473.726 1035.67C540.292 1015.85 622.43 1035.3 690.516 1036.51C761.619 1037.75 835.036 1033.15 905.904 1042.69C976.258 1052.13 1043.01 1093.85 1110.12 1122.51C1170.25 1148.17 1233.22 1170.18 1292.18 1126.98C1343.18 1089.59 1376.12 1040.74 1436.33 1030.4M-71.7635 927.219C14.4897 964.81 17.6929 1105.5 58.9607 1203.56C113.112 1332.29 195.109 1245.38 257.514 1178.77C331.515 1099.86 411.175 965.617 504.138 932.426C577.509 906.291 683.566 953.96 757.263 969.849C840.968 987.889 924.158 999.579 1008.03 1013.15C1065.1 1022.39 1115.86 1054 1170.53 1077.18C1220.82 1098.55 1283.69 1123.17 1326.34 1064.21C1367.14 1007.81 1372.63 944.016 1436.23 927.119M-71.7803 824.094C13.6546 863.7 21.6276 1003.31 64.9763 1100.97C121.302 1227.99 199.558 1144.21 263.716 1076.62C337.905 998.443 415.46 872.199 507.161 835.986C581.677 806.558 691.662 859.501 766.084 878.112C852.127 899.679 936.65 914.023 1023.11 927.83C1076.61 936.396 1124.19 964.783 1175.49 986.047C1224.59 1006.4 1288.37 1031.73 1328.52 971.434C1368.66 911.134 1369.83 839.513 1436.38 823.993M-71.7803 720.792C5.37765 750.186 7.71567 850.865 50.1759 931.59C101.615 1029.01 179.942 968.039 242.673 927.593C319.036 878.311 396.218 806.656 479.501 783.544C553.55 762.985 645.11 796.679 719.299 809.579C798.795 823.386 877.847 831.381 957.413 841.593C1012.24 848.614 1063.38 872.331 1116.8 889.733C1174.86 908.679 1232.24 924.3 1283.79 870.652C1337.57 814.685 1365.27 736.48 1436.35 720.691M-71.8353 617.574C-7.63058 626.98 -11.6755 681.401 28.9844 733.639C71.4914 788.228 157.791 763.503 211.007 761.085C357.584 754.366 503.015 752.518 649.638 758.296C778.796 763.403 901.337 769.785 1029.02 797.567C1096.64 812.281 1156.82 819.033 1219.62 771.163C1292.69 715.431 1351.38 634.471 1436.25 617.641M-71.8539 514.285C-30.5861 507.735 -21.8181 530.141 10.4713 547.509C34.9047 560.678 63.2894 551.272 88.8217 558.763C120.971 568.136 153.143 585.436 183.796 601.763C255.366 639.891 327.427 693.472 403.205 712.621C462.243 727.603 530.001 707.481 589.483 699.754C713.824 683.562 829.257 686.653 953.341 703.55C1028.16 713.628 1092.67 714.233 1163.54 671.032C1254.49 615.603 1336.33 532.795 1436.19 514.386M-71.8353 411.255C16.1715 411.02 96.6963 413.573 176.379 475.956C244.629 529.403 313.533 611.942 392.094 631.795C449.004 646.207 514.238 622.792 570.68 609.926C692.683 582.111 807.04 589.4 929.745 601.763C1006.48 609.489 1070.34 608.481 1143.78 567.464C1240.88 513.009 1331.76 432.284 1436.25 411.288M-71.8809 308.069C24.3795 308.506 116.759 303.198 206.355 361.348C273.459 405.019 340.47 469.351 414.448 486.046C471.498 498.913 534.838 479.16 591.701 469.015C712.394 447.448 827.687 452.554 948.801 462.296C1022.92 468.242 1087.38 467.805 1159.23 433.641C1251.54 389.701 1338.85 326.344 1436.14 308.136M-71.808 204.904C37.5692 204.904 153.446 190.862 259.246 234.97C323.848 261.845 387.586 300.779 455.181 309.312C512.558 316.535 572.344 304.978 629.604 298.629C748.053 285.561 864.609 289.055 983.221 294.833C1051.8 298.193 1117.83 300.376 1185.4 279.078C1269.24 252.707 1350.03 212.529 1436.28 204.904M-71.7354 101.705C54.3126 101.705 184.546 89.4433 309.892 109.734C428.042 129.101 547.008 136.241 665.871 131.099C782.777 126.161 899.332 127.975 1016.17 130.024C1157.16 132.544 1296.11 99.79 1436.44 101.638M-71.8115 -1.46232C-71.0633 720.795 -72.4895 1443.05 -71.8114 2165.31C430.884 2164.57 933.58 2166.02 1436.28 2165.31C1437.24 1443.05 1437.24 720.795 1436.28 -1.46241C933.58 -2.33581 430.884 -2.33578 -71.8115 -1.46232Z"
        stroke="url(#paint0_linear_451_2800)" stroke-opacity="0.3" stroke-miterlimit="10" />
    <defs>
        <linearGradient id="paint0_linear_451_2800" x1="657.202" y1="865.363" x2="706.185"
            y2="2164.86" gradientUnits="userSpaceOnUse">
            <stop stop-color="white" stop-opacity="0.4" />
            <stop offset="1" stop-color="#999999" stop-opacity="0" />
        </linearGradient>
    </defs>
</svg>
    