<svg width="455" height="19" viewBox="0 0 455 19" fill="none" xmlns="http://www.w3.org/2000/svg">
<path d="M0.159091 2.42058V0.545576H13.25V2.42058H7.76136V18.0001H5.64773V2.42058H0.159091ZM21.3121 18.0001V0.545576H23.4257V8.3183H32.7325V0.545576H34.8462V18.0001H32.7325V10.1933H23.4257V18.0001H21.3121ZM44.5936 18.0001H42.3777L48.7868 0.545576H50.9686L57.3777 18.0001H55.1618L49.9459 3.30694H49.8095L44.5936 18.0001ZM45.4118 11.1819H54.3436V13.0569H45.4118V11.1819ZM78.7374 0.545576V18.0001H76.6919L67.1805 4.29558H67.0101V18.0001H64.8965V0.545576H66.9419L76.4874 14.2842H76.6578V0.545576H78.7374ZM87.7668 18.0001V0.545576H89.8804V9.20467H90.0849L97.9258 0.545576H100.687L93.3577 8.42058L100.687 18.0001H98.1304L92.0622 9.88649L89.8804 12.341V18.0001H87.7668ZM117.768 4.90921C117.666 4.04558 117.251 3.37512 116.524 2.89785C115.797 2.42058 114.905 2.18194 113.848 2.18194C113.075 2.18194 112.399 2.30694 111.82 2.55694C111.246 2.80694 110.797 3.15069 110.473 3.58819C110.155 4.02569 109.996 4.52285 109.996 5.07967C109.996 5.54558 110.107 5.94614 110.328 6.28137C110.555 6.61092 110.845 6.88649 111.197 7.10808C111.55 7.32399 111.919 7.50296 112.305 7.64501C112.692 7.78137 113.047 7.89217 113.371 7.97739L115.143 8.45467C115.598 8.57399 116.104 8.73876 116.661 8.94899C117.223 9.15921 117.76 9.44614 118.271 9.80978C118.788 10.1677 119.214 10.628 119.55 11.1905C119.885 11.753 120.053 12.4433 120.053 13.2615C120.053 14.2047 119.805 15.0569 119.311 15.8183C118.822 16.5797 118.107 17.1848 117.163 17.6336C116.226 18.0825 115.087 18.3069 113.746 18.3069C112.496 18.3069 111.413 18.1052 110.499 17.7018C109.589 17.2984 108.874 16.7359 108.351 16.0143C107.834 15.2927 107.541 14.4547 107.473 13.5001H109.655C109.712 14.1592 109.933 14.7047 110.32 15.1365C110.712 15.5626 111.206 15.8808 111.803 16.091C112.405 16.2956 113.053 16.3978 113.746 16.3978C114.553 16.3978 115.277 16.2672 115.919 16.0058C116.561 15.7388 117.07 15.3694 117.445 14.8978C117.82 14.4206 118.007 13.8638 118.007 13.2274C118.007 12.6478 117.845 12.1763 117.521 11.8126C117.197 11.449 116.771 11.1535 116.243 10.9263C115.714 10.699 115.143 10.5001 114.53 10.3297L112.382 9.71603C111.018 9.32399 109.939 8.76433 109.143 8.03705C108.348 7.30978 107.95 6.35808 107.95 5.18194C107.95 4.20467 108.214 3.35239 108.743 2.62512C109.277 1.89217 109.993 1.32399 110.891 0.920576C111.794 0.511485 112.803 0.30694 113.916 0.30694C115.041 0.30694 116.041 0.508644 116.916 0.912053C117.791 1.30978 118.484 1.85523 118.996 2.54842C119.513 3.2416 119.786 4.02853 119.814 4.90921H117.768ZM139.878 18.0001V0.545576H150.344V2.42058H141.991V8.3183H149.56V10.1933H141.991V18.0001H139.878ZM173.491 9.27285C173.491 11.1138 173.159 12.7047 172.494 14.0456C171.829 15.3865 170.917 16.4206 169.758 17.1478C168.599 17.8751 167.275 18.2388 165.786 18.2388C164.298 18.2388 162.974 17.8751 161.815 17.1478C160.656 16.4206 159.744 15.3865 159.079 14.0456C158.414 12.7047 158.082 11.1138 158.082 9.27285C158.082 7.43194 158.414 5.84103 159.079 4.50012C159.744 3.15921 160.656 2.12512 161.815 1.39785C162.974 0.670576 164.298 0.30694 165.786 0.30694C167.275 0.30694 168.599 0.670576 169.758 1.39785C170.917 2.12512 171.829 3.15921 172.494 4.50012C173.159 5.84103 173.491 7.43194 173.491 9.27285ZM171.445 9.27285C171.445 7.76149 171.193 6.48592 170.687 5.44615C170.187 4.40637 169.508 3.61944 168.65 3.08535C167.798 2.55126 166.843 2.28421 165.786 2.28421C164.73 2.28421 163.772 2.55126 162.914 3.08535C162.062 3.61944 161.383 4.40637 160.877 5.44615C160.377 6.48592 160.127 7.76149 160.127 9.27285C160.127 10.7842 160.377 12.0598 160.877 13.0996C161.383 14.1393 162.062 14.9263 162.914 15.4603C163.772 15.9944 164.73 16.2615 165.786 16.2615C166.843 16.2615 167.798 15.9944 168.65 15.4603C169.508 14.9263 170.187 14.1393 170.687 13.0996C171.193 12.0598 171.445 10.7842 171.445 9.27285ZM181.845 18.0001V0.545576H187.743C189.106 0.545576 190.226 0.778531 191.101 1.24444C191.976 1.70467 192.623 2.33819 193.044 3.14501C193.464 3.95183 193.674 4.86944 193.674 5.89785C193.674 6.92626 193.464 7.83819 193.044 8.63364C192.623 9.4291 191.978 10.0541 191.109 10.5086C190.24 10.9575 189.129 11.1819 187.777 11.1819H183.004V9.27285H187.709C188.64 9.27285 189.39 9.13649 189.959 8.86376C190.532 8.59103 190.947 8.20467 191.203 7.70467C191.464 7.19899 191.595 6.59671 191.595 5.89785C191.595 5.19899 191.464 4.58819 191.203 4.06546C190.941 3.54274 190.524 3.13933 189.95 2.85524C189.376 2.56546 188.618 2.42058 187.674 2.42058H183.959V18.0001H181.845ZM190.061 10.1592L194.356 18.0001H191.902L187.674 10.1592H190.061ZM213.546 18.0001V0.545576H219.444C220.808 0.545576 221.927 0.778531 222.802 1.24444C223.677 1.70467 224.325 2.33819 224.745 3.14501C225.166 3.95183 225.376 4.86944 225.376 5.89785C225.376 6.92626 225.166 7.83819 224.745 8.63364C224.325 9.4291 223.68 10.0541 222.811 10.5086C221.941 10.9575 220.831 11.1819 219.478 11.1819H214.706V9.27285H219.41C220.342 9.27285 221.092 9.13649 221.66 8.86376C222.234 8.59103 222.649 8.20467 222.904 7.70467C223.166 7.19899 223.296 6.59671 223.296 5.89785C223.296 5.19899 223.166 4.58819 222.904 4.06546C222.643 3.54274 222.225 3.13933 221.652 2.85524C221.078 2.56546 220.319 2.42058 219.376 2.42058H215.66V18.0001H213.546ZM221.762 10.1592L226.058 18.0001H223.603L219.376 10.1592H221.762ZM233.698 18.0001V0.545576H244.232V2.42058H235.812V8.3183H243.687V10.1933H235.812V16.1251H244.368V18.0001H233.698ZM253.558 18.0001H251.342L257.751 0.545576H259.933L266.342 18.0001H264.126L258.91 3.30694H258.774L253.558 18.0001ZM254.376 11.1819H263.308V13.0569H254.376V11.1819ZM287.086 6.00012H284.972C284.847 5.39217 284.628 4.85808 284.316 4.39785C284.009 3.93762 283.634 3.55126 283.191 3.23876C282.753 2.92058 282.267 2.68194 281.733 2.52285C281.199 2.36376 280.642 2.28421 280.063 2.28421C279.006 2.28421 278.049 2.55126 277.191 3.08535C276.339 3.61944 275.66 4.40637 275.154 5.44615C274.654 6.48592 274.404 7.76149 274.404 9.27285C274.404 10.7842 274.654 12.0598 275.154 13.0996C275.66 14.1393 276.339 14.9263 277.191 15.4603C278.049 15.9944 279.006 16.2615 280.063 16.2615C280.642 16.2615 281.199 16.1819 281.733 16.0228C282.267 15.8638 282.753 15.628 283.191 15.3155C283.634 14.9973 284.009 14.6081 284.316 14.1478C284.628 13.6819 284.847 13.1478 284.972 12.5456H287.086C286.927 13.4376 286.637 14.2359 286.216 14.9405C285.796 15.645 285.273 16.2444 284.648 16.7388C284.023 17.2274 283.321 17.5996 282.543 17.8552C281.77 18.1109 280.944 18.2388 280.063 18.2388C278.574 18.2388 277.25 17.8751 276.091 17.1478C274.932 16.4206 274.02 15.3865 273.356 14.0456C272.691 12.7047 272.358 11.1138 272.358 9.27285C272.358 7.43194 272.691 5.84103 273.356 4.50012C274.02 3.15921 274.932 2.12512 276.091 1.39785C277.25 0.670576 278.574 0.30694 280.063 0.30694C280.944 0.30694 281.77 0.434781 282.543 0.690463C283.321 0.946145 284.023 1.32114 284.648 1.81546C285.273 2.3041 285.796 2.90069 286.216 3.60524C286.637 4.3041 286.927 5.10239 287.086 6.00012ZM295.301 18.0001V0.545576H297.415V8.3183H306.722V0.545576H308.835V18.0001H306.722V10.1933H297.415V18.0001H295.301ZM319.98 0.545576V18.0001H317.867V0.545576H319.98ZM342.859 0.545576V18.0001H340.814L331.302 4.29558H331.132V18.0001H329.018V0.545576H331.064L340.609 14.2842H340.78V0.545576H342.859ZM363.82 6.00012C363.633 5.42626 363.386 4.91205 363.079 4.45751C362.778 3.99728 362.417 3.60524 361.997 3.28137C361.582 2.95751 361.11 2.71035 360.582 2.53989C360.053 2.36944 359.474 2.28421 358.843 2.28421C357.809 2.28421 356.869 2.55126 356.022 3.08535C355.176 3.61944 354.502 4.40637 354.002 5.44615C353.502 6.48592 353.252 7.76149 353.252 9.27285C353.252 10.7842 353.505 12.0598 354.011 13.0996C354.516 14.1393 355.201 14.9263 356.065 15.4603C356.928 15.9944 357.9 16.2615 358.98 16.2615C359.98 16.2615 360.86 16.0484 361.622 15.6223C362.389 15.1905 362.985 14.5825 363.411 13.7984C363.843 13.0086 364.059 12.0797 364.059 11.0115L364.707 11.1478H359.457V9.27285H366.105V11.1478C366.105 12.5853 365.798 13.8353 365.184 14.8978C364.576 15.9603 363.735 16.7842 362.661 17.3694C361.593 17.949 360.366 18.2388 358.98 18.2388C357.434 18.2388 356.076 17.8751 354.906 17.1478C353.741 16.4206 352.832 15.3865 352.178 14.0456C351.531 12.7047 351.207 11.1138 351.207 9.27285C351.207 7.89217 351.391 6.65069 351.761 5.54842C352.136 4.44046 352.664 3.49728 353.346 2.71887C354.028 1.94046 354.835 1.34387 355.766 0.929099C356.698 0.514326 357.724 0.30694 358.843 0.30694C359.764 0.30694 360.622 0.446144 361.417 0.724553C362.218 0.99728 362.931 1.38648 363.556 1.89217C364.187 2.39217 364.712 2.9916 365.133 3.69046C365.553 4.38364 365.843 5.15353 366.002 6.00012H363.82ZM400.802 9.27285C400.802 11.1138 400.469 12.7047 399.805 14.0456C399.14 15.3865 398.228 16.4206 397.069 17.1478C395.91 17.8751 394.586 18.2388 393.097 18.2388C391.609 18.2388 390.285 17.8751 389.126 17.1478C387.967 16.4206 387.055 15.3865 386.39 14.0456C385.725 12.7047 385.393 11.1138 385.393 9.27285C385.393 7.43194 385.725 5.84103 386.39 4.50012C387.055 3.15921 387.967 2.12512 389.126 1.39785C390.285 0.670576 391.609 0.30694 393.097 0.30694C394.586 0.30694 395.91 0.670576 397.069 1.39785C398.228 2.12512 399.14 3.15921 399.805 4.50012C400.469 5.84103 400.802 7.43194 400.802 9.27285ZM398.756 9.27285C398.756 7.76149 398.504 6.48592 397.998 5.44615C397.498 4.40637 396.819 3.61944 395.961 3.08535C395.109 2.55126 394.154 2.28421 393.097 2.28421C392.04 2.28421 391.083 2.55126 390.225 3.08535C389.373 3.61944 388.694 4.40637 388.188 5.44615C387.688 6.48592 387.438 7.76149 387.438 9.27285C387.438 10.7842 387.688 12.0598 388.188 13.0996C388.694 14.1393 389.373 14.9263 390.225 15.4603C391.083 15.9944 392.04 16.2615 393.097 16.2615C394.154 16.2615 395.109 15.9944 395.961 15.4603C396.819 14.9263 397.498 14.1393 397.998 13.0996C398.504 12.0598 398.756 10.7842 398.756 9.27285ZM420.61 0.545576H422.724V12.1024C422.724 13.2956 422.443 14.3609 421.88 15.2984C421.323 16.2302 420.537 16.966 419.519 17.5058C418.502 18.0399 417.309 18.3069 415.94 18.3069C414.571 18.3069 413.377 18.0399 412.36 17.5058C411.343 16.966 410.554 16.2302 409.991 15.2984C409.434 14.3609 409.156 13.2956 409.156 12.1024V0.545576H411.269V11.9319C411.269 12.7842 411.457 13.5427 411.832 14.2075C412.207 14.8666 412.741 15.3865 413.434 15.7672C414.133 16.1422 414.968 16.3297 415.94 16.3297C416.912 16.3297 417.747 16.1422 418.446 15.7672C419.144 15.3865 419.679 14.8666 420.048 14.2075C420.423 13.5427 420.61 12.7842 420.61 11.9319V0.545576ZM430.79 2.42058V0.545576H443.881V2.42058H438.393V18.0001H436.279V2.42058H430.79ZM454.33 0.545576L454.159 13.091H452.182L452.011 0.545576H454.33ZM453.171 18.1365C452.75 18.1365 452.389 17.9859 452.088 17.6848C451.787 17.3836 451.636 17.0228 451.636 16.6024C451.636 16.1819 451.787 15.8211 452.088 15.52C452.389 15.2189 452.75 15.0683 453.171 15.0683C453.591 15.0683 453.952 15.2189 454.253 15.52C454.554 15.8211 454.705 16.1819 454.705 16.6024C454.705 16.8808 454.634 17.1365 454.492 17.3694C454.355 17.6024 454.171 17.7899 453.938 17.9319C453.71 18.0683 453.455 18.1365 453.171 18.1365Z" fill="#C2C2C2"/>
</svg>
