<svg width="438" height="66" viewBox="0 0 438 66" fill="none" xmlns="http://www.w3.org/2000/svg">
    <mask id="path-1-outside-1_451_5198" maskUnits="userSpaceOnUse" x="-0.999084" y="-1" width="440"
        height="68" fill="black">
        <rect fill="white" x="-0.999084" y="-1" width="440" height="68" />
        <path
            d="M14.0947 0.999998V65H0.563415V0.999998H14.0947ZM78.7587 0.999998V65H67.0712L39.2275 24.7187H38.7587V65H25.2275V0.999998H37.1025L64.7275 41.25H65.29V0.999998H78.7587ZM143.47 0.999998V65H131.782L103.938 24.7187H103.47V65H89.9384V0.999998H101.813L129.438 41.25H130.001V0.999998H143.47ZM213.462 33C213.462 39.9792 212.139 45.9167 209.493 50.8125C206.868 55.7083 203.285 59.4479 198.743 62.0312C194.222 64.5937 189.139 65.875 183.493 65.875C177.806 65.875 172.701 64.5833 168.181 62C163.66 59.4167 160.087 55.6771 157.462 50.7813C154.837 45.8854 153.524 39.9583 153.524 33C153.524 26.0208 154.837 20.0833 157.462 15.1875C160.087 10.2917 163.66 6.5625 168.181 4C172.701 1.41667 177.806 0.124998 183.493 0.124998C189.139 0.124998 194.222 1.41667 198.743 4C203.285 6.5625 206.868 10.2917 209.493 15.1875C212.139 20.0833 213.462 26.0208 213.462 33ZM199.743 33C199.743 28.4792 199.066 24.6667 197.712 21.5625C196.379 18.4583 194.493 16.1042 192.056 14.5C189.618 12.8958 186.764 12.0938 183.493 12.0938C180.222 12.0938 177.368 12.8958 174.931 14.5C172.493 16.1042 170.597 18.4583 169.243 21.5625C167.91 24.6667 167.243 28.4792 167.243 33C167.243 37.5208 167.91 41.3333 169.243 44.4375C170.597 47.5417 172.493 49.8958 174.931 51.5C177.368 53.1042 180.222 53.9062 183.493 53.9062C186.764 53.9062 189.618 53.1042 192.056 51.5C194.493 49.8958 196.379 47.5417 197.712 44.4375C199.066 41.3333 199.743 37.5208 199.743 33ZM231.438 0.999998L246.907 49.625H247.501L263.001 0.999998H278.001L255.938 65H238.501L216.407 0.999998H231.438ZM288.227 65H273.727L295.821 0.999998H313.259L335.321 65H320.821L304.79 15.625H304.29L288.227 65ZM287.321 39.8437H321.571V50.4062H287.321V39.8437ZM332.767 12.1562V0.999998H385.329V12.1562H365.735V65H352.36V12.1562H332.767ZM393.985 65V0.999998H437.11V12.1562H407.517V27.4062H434.892V38.5625H407.517V53.8437H437.235V65H393.985Z" />
    </mask>
    <path
        d="M14.0947 1H15.0947V0H14.0947V1ZM14.0947 65V66H15.0947V65H14.0947ZM0.563416 65H-0.436584V66H0.563416V65ZM0.563416 1V0H-0.436584V1H0.563416ZM13.0947 1V65H15.0947V1H13.0947ZM14.0947 64H0.563416V66H14.0947V64ZM1.56342 65V1H-0.436584V65H1.56342ZM0.563416 2H14.0947V0H0.563416V2ZM78.7587 1H79.7587V0H78.7587V1ZM78.7587 65V66H79.7587V65H78.7587ZM67.0712 65L66.2486 65.5686L66.5468 66H67.0712V65ZM39.2275 24.7188L40.0501 24.1501L39.7519 23.7188H39.2275V24.7188ZM38.7587 24.7188V23.7188H37.7587V24.7188H38.7587ZM38.7587 65V66H39.7587V65H38.7587ZM25.2275 65H24.2275V66H25.2275V65ZM25.2275 1V0H24.2275V1H25.2275ZM37.1025 1L37.927 0.43412L37.629 0H37.1025V1ZM64.7275 41.25L63.903 41.8159L64.2009 42.25H64.7275V41.25ZM65.29 41.25V42.25H66.29V41.25H65.29ZM65.29 1V0H64.29V1H65.29ZM77.7587 1V65H79.7587V1H77.7587ZM78.7587 64H67.0712V66H78.7587V64ZM67.8938 64.4314L40.0501 24.1501L38.4049 25.2874L66.2486 65.5686L67.8938 64.4314ZM39.2275 23.7188H38.7587V25.7188H39.2275V23.7188ZM37.7587 24.7188V65H39.7587V24.7188H37.7587ZM38.7587 64H25.2275V66H38.7587V64ZM26.2275 65V1H24.2275V65H26.2275ZM25.2275 2H37.1025V0H25.2275V2ZM36.278 1.56588L63.903 41.8159L65.552 40.6841L37.927 0.43412L36.278 1.56588ZM64.7275 42.25H65.29V40.25H64.7275V42.25ZM66.29 41.25V1H64.29V41.25H66.29ZM65.29 2H78.7587V0H65.29V2ZM143.47 1H144.47V0H143.47V1ZM143.47 65V66H144.47V65H143.47ZM131.782 65L130.96 65.5686L131.258 66H131.782V65ZM103.938 24.7188L104.761 24.1501L104.463 23.7188H103.938V24.7188ZM103.47 24.7188V23.7188H102.47V24.7188H103.47ZM103.47 65V66H104.47V65H103.47ZM89.9384 65H88.9384V66H89.9384V65ZM89.9384 1V0H88.9384V1H89.9384ZM101.813 1L102.638 0.43412L102.34 0H101.813V1ZM129.438 41.25L128.614 41.8159L128.912 42.25H129.438V41.25ZM130.001 41.25V42.25H131.001V41.25H130.001ZM130.001 1V0H129.001V1H130.001ZM142.47 1V65H144.47V1H142.47ZM143.47 64H131.782V66H143.47V64ZM132.605 64.4314L104.761 24.1501L103.116 25.2874L130.96 65.5686L132.605 64.4314ZM103.938 23.7188H103.47V25.7188H103.938V23.7188ZM102.47 24.7188V65H104.47V24.7188H102.47ZM103.47 64H89.9384V66H103.47V64ZM90.9384 65V1H88.9384V65H90.9384ZM89.9384 2H101.813V0H89.9384V2ZM100.989 1.56588L128.614 41.8159L130.263 40.6841L102.638 0.43412L100.989 1.56588ZM129.438 42.25H130.001V40.25H129.438V42.25ZM131.001 41.25V1H129.001V41.25H131.001ZM130.001 2H143.47V0H130.001V2ZM209.493 50.8125L208.613 50.3371L208.612 50.34L209.493 50.8125ZM198.743 62.0312L199.236 62.9012L199.238 62.9005L198.743 62.0312ZM168.181 62L168.677 61.1318L168.181 62ZM157.462 50.7812L156.581 51.2538L157.462 50.7812ZM157.462 15.1875L158.343 15.66L157.462 15.1875ZM168.181 4L168.674 4.86997L168.677 4.86824L168.181 4ZM198.743 4L198.247 4.86826L198.252 4.87093L198.743 4ZM209.493 15.1875L208.612 15.66L208.613 15.6629L209.493 15.1875ZM197.712 21.5625L196.793 21.9572L196.795 21.9623L197.712 21.5625ZM192.056 14.5L191.506 15.3353L192.056 14.5ZM174.931 14.5L175.48 15.3353L174.931 14.5ZM169.243 21.5625L168.327 21.1626L168.324 21.1678L169.243 21.5625ZM169.243 44.4375L168.324 44.8322L168.327 44.8373L169.243 44.4375ZM174.931 51.5L175.48 50.6647V50.6647L174.931 51.5ZM192.056 51.5L191.506 50.6647V50.6647L192.056 51.5ZM197.712 44.4375L196.795 44.0376L196.793 44.0428L197.712 44.4375ZM212.462 33C212.462 39.8546 211.163 45.6198 208.613 50.3371L210.373 51.2879C213.115 46.2135 214.462 40.1038 214.462 33H212.462ZM208.612 50.34C206.07 55.0807 202.616 58.6778 198.249 61.162L199.238 62.9005C203.953 60.218 207.666 56.3359 210.374 51.285L208.612 50.34ZM198.25 61.1613C193.892 63.6313 188.981 64.875 183.493 64.875V66.875C189.296 66.875 194.552 65.5562 199.236 62.9012L198.25 61.1613ZM183.493 64.875C177.963 64.875 173.033 63.6209 168.677 61.1318L167.684 62.8682C172.37 65.5458 177.648 66.875 183.493 66.875V64.875ZM168.677 61.1318C164.33 58.6479 160.886 55.0507 158.343 50.3087L156.581 51.2538C159.288 56.3035 162.99 60.1855 167.684 62.8682L168.677 61.1318ZM158.343 50.3087C155.813 45.5904 154.524 39.8343 154.524 33H152.524C152.524 40.0823 153.86 46.1804 156.581 51.2538L158.343 50.3087ZM154.524 33C154.524 26.1443 155.814 20.378 158.343 15.66L156.581 14.715C153.86 19.7887 152.524 25.8974 152.524 33H154.524ZM158.343 15.66C160.885 10.9187 164.329 7.33282 168.674 4.86996L167.687 3.13004C162.991 5.79218 159.288 9.66464 156.581 14.715L158.343 15.66ZM168.677 4.86824C173.033 2.37909 177.963 1.125 183.493 1.125V-0.875004C177.648 -0.875004 172.37 0.454239 167.684 3.13176L168.677 4.86824ZM183.493 1.125C188.98 1.125 193.89 2.37845 198.247 4.86824L199.239 3.13176C194.555 0.45488 189.298 -0.875004 183.493 -0.875004V1.125ZM198.252 4.87093C202.617 7.33412 206.07 10.9199 208.612 15.66L210.374 14.715C207.666 9.66346 203.952 5.79088 199.234 3.12907L198.252 4.87093ZM208.613 15.6629C211.163 20.3802 212.462 26.1454 212.462 33H214.462C214.462 25.8962 213.115 19.7865 210.373 14.7121L208.613 15.6629ZM200.743 33C200.743 28.3852 200.053 24.4276 198.628 21.1626L196.795 21.9623C198.079 24.9057 198.743 28.5731 198.743 33H200.743ZM198.631 21.1678C197.233 17.9129 195.231 15.3926 192.605 13.6647L191.506 15.3353C193.755 16.8157 195.524 19.0038 196.793 21.9572L198.631 21.1678ZM192.605 13.6647C189.985 11.9404 186.935 11.0938 183.493 11.0938V13.0938C186.593 13.0938 189.251 13.8513 191.506 15.3353L192.605 13.6647ZM183.493 11.0938C180.051 11.0938 177.001 11.9404 174.381 13.6647L175.48 15.3353C177.735 13.8513 180.393 13.0938 183.493 13.0938V11.0938ZM174.381 13.6647C171.757 15.3916 169.745 17.91 168.327 21.1626L170.16 21.9623C171.449 19.0066 173.229 16.8167 175.48 15.3353L174.381 13.6647ZM168.324 21.1678C166.923 24.4312 166.243 28.3869 166.243 33H168.243C168.243 28.5715 168.897 24.9021 170.162 21.9572L168.324 21.1678ZM166.243 33C166.243 37.6131 166.923 41.5688 168.324 44.8322L170.162 44.0428C168.897 41.0979 168.243 37.4285 168.243 33H166.243ZM168.327 44.8373C169.745 48.09 171.757 50.6084 174.381 52.3353L175.48 50.6647C173.229 49.1833 171.449 46.9934 170.16 44.0377L168.327 44.8373ZM174.381 52.3353C177.001 54.0596 180.051 54.9062 183.493 54.9062V52.9062C180.393 52.9062 177.735 52.1487 175.48 50.6647L174.381 52.3353ZM183.493 54.9062C186.935 54.9062 189.985 54.0596 192.605 52.3353L191.506 50.6647C189.251 52.1487 186.593 52.9062 183.493 52.9062V54.9062ZM192.605 52.3353C195.231 50.6074 197.233 48.0871 198.631 44.8322L196.793 44.0428C195.524 46.9962 193.755 49.1843 191.506 50.6647L192.605 52.3353ZM198.628 44.8373C200.053 41.5724 200.743 37.6148 200.743 33H198.743C198.743 37.4269 198.079 41.0943 196.795 44.0377L198.628 44.8373ZM231.438 1L232.391 0.696846L232.17 0H231.438V1ZM246.907 49.625L245.954 49.9282L246.176 50.625H246.907V49.625ZM247.501 49.625V50.625H248.232L248.454 49.9287L247.501 49.625ZM263.001 1V0H262.27L262.048 0.696289L263.001 1ZM278.001 1L278.946 1.3259L279.403 0H278.001V1ZM255.938 65V66H256.651L256.884 65.3259L255.938 65ZM238.501 65L237.556 65.3263L237.788 66H238.501V65ZM216.407 1V0H215.004L215.462 1.32632L216.407 1ZM230.485 1.30315L245.954 49.9282L247.86 49.3218L232.391 0.696846L230.485 1.30315ZM246.907 50.625H247.501V48.625H246.907V50.625ZM248.454 49.9287L263.954 1.30371L262.048 0.696289L246.548 49.3213L248.454 49.9287ZM263.001 2H278.001V0H263.001V2ZM277.056 0.674091L254.993 64.6741L256.884 65.3259L278.946 1.3259L277.056 0.674091ZM255.938 64H238.501V66H255.938V64ZM239.446 64.6737L217.352 0.673679L215.462 1.32632L237.556 65.3263L239.446 64.6737ZM216.407 2H231.438V0H216.407V2ZM288.227 65V66H288.954L289.178 65.3094L288.227 65ZM273.727 65L272.782 64.6737L272.324 66H273.727V65ZM295.821 1V0H295.109L294.876 0.673679L295.821 1ZM313.259 1L314.204 0.674091L313.972 0H313.259V1ZM335.321 65V66H336.724L336.267 64.6741L335.321 65ZM320.821 65L319.87 65.3088L320.095 66H320.821V65ZM304.79 15.625L305.741 15.3162L305.517 14.625H304.79V15.625ZM304.29 15.625V14.625H303.564L303.339 15.3156L304.29 15.625ZM287.321 39.8438V38.8438H286.321V39.8438H287.321ZM321.571 39.8438H322.571V38.8438H321.571V39.8438ZM321.571 50.4062V51.4062H322.571V50.4062H321.571ZM287.321 50.4062H286.321V51.4062H287.321V50.4062ZM288.227 64H273.727V66H288.227V64ZM274.673 65.3263L296.766 1.32632L294.876 0.673679L272.782 64.6737L274.673 65.3263ZM295.821 2H313.259V0H295.821V2ZM312.313 1.3259L334.376 65.3259L336.267 64.6741L314.204 0.674091L312.313 1.3259ZM335.321 64H320.821V66H335.321V64ZM321.772 64.6912L305.741 15.3162L303.839 15.9338L319.87 65.3088L321.772 64.6912ZM304.79 14.625H304.29V16.625H304.79V14.625ZM303.339 15.3156L287.277 64.6906L289.178 65.3094L305.241 15.9344L303.339 15.3156ZM287.321 40.8438H321.571V38.8438H287.321V40.8438ZM320.571 39.8438V50.4062H322.571V39.8438H320.571ZM321.571 49.4062H287.321V51.4062H321.571V49.4062ZM288.321 50.4062V39.8438H286.321V50.4062H288.321ZM332.767 12.1562H331.767V13.1562H332.767V12.1562ZM332.767 1V0H331.767V1H332.767ZM385.329 1H386.329V0H385.329V1ZM385.329 12.1562V13.1562H386.329V12.1562H385.329ZM365.735 12.1562V11.1562H364.735V12.1562H365.735ZM365.735 65V66H366.735V65H365.735ZM352.36 65H351.36V66H352.36V65ZM352.36 12.1562H353.36V11.1562H352.36V12.1562ZM333.767 12.1562V1H331.767V12.1562H333.767ZM332.767 2H385.329V0H332.767V2ZM384.329 1V12.1562H386.329V1H384.329ZM385.329 11.1562H365.735V13.1562H385.329V11.1562ZM364.735 12.1562V65H366.735V12.1562H364.735ZM365.735 64H352.36V66H365.735V64ZM353.36 65V12.1562H351.36V65H353.36ZM352.36 11.1562H332.767V13.1562H352.36V11.1562ZM393.985 65H392.985V66H393.985V65ZM393.985 1V0H392.985V1H393.985ZM437.11 1H438.11V0H437.11V1ZM437.11 12.1562V13.1562H438.11V12.1562H437.11ZM407.517 12.1562V11.1562H406.517V12.1562H407.517ZM407.517 27.4062H406.517V28.4062H407.517V27.4062ZM434.892 27.4062H435.892V26.4062H434.892V27.4062ZM434.892 38.5625V39.5625H435.892V38.5625H434.892ZM407.517 38.5625V37.5625H406.517V38.5625H407.517ZM407.517 53.8438H406.517V54.8438H407.517V53.8438ZM437.235 53.8438H438.235V52.8438H437.235V53.8438ZM437.235 65V66H438.235V65H437.235ZM394.985 65V1H392.985V65H394.985ZM393.985 2H437.11V0H393.985V2ZM436.11 1V12.1562H438.11V1H436.11ZM437.11 11.1562H407.517V13.1562H437.11V11.1562ZM406.517 12.1562V27.4062H408.517V12.1562H406.517ZM407.517 28.4062H434.892V26.4062H407.517V28.4062ZM433.892 27.4062V38.5625H435.892V27.4062H433.892ZM434.892 37.5625H407.517V39.5625H434.892V37.5625ZM406.517 38.5625V53.8438H408.517V38.5625H406.517ZM407.517 54.8438H437.235V52.8438H407.517V54.8438ZM436.235 53.8438V65H438.235V53.8438H436.235ZM437.235 64H393.985V66H437.235V64Z"
        fill="#F7F7F7" mask="url(#path-1-outside-1_451_5198)" />
</svg>
    